<svg class="graph" width="1896" height="926"><defs><linearGradient id="gradient-rainbow-colors" x1="0%" y1="0%" x2="100%" y2="0%"><stop offset="0" stop-color="#b3c6ff"></stop><stop offset="1" stop-color="#000000"></stop></linearGradient></defs><g class="axis" transform="translate(0,746.645390070922)"><g class="tick" style="opacity: 1;" transform="translate(130,0)"><line y2="6" x2="0"></line><text dy=".71em" style="text-anchor: middle;" y="9" x="0">0</text></g><g class="tick" style="opacity: 1;" transform="translate(225.11627906976744,0)"><line y2="6" x2="0"></line><text dy=".71em" style="text-anchor: middle;" y="9" x="0">5</text></g><g class="tick" style="opacity: 1;" transform="translate(320.2325581395349,0)"><line y2="6" x2="0"></line><text dy=".71em" style="text-anchor: middle;" y="9" x="0">10</text></g><g class="tick" style="opacity: 1;" transform="translate(415.3488372093023,0)"><line y2="6" x2="0"></line><text dy=".71em" style="text-anchor: middle;" y="9" x="0">15</text></g><g class="tick" style="opacity: 1;" transform="translate(510.4651162790698,0)"><line y2="6" x2="0"></line><text dy=".71em" style="text-anchor: middle;" y="9" x="0">20</text></g><g class="tick" style="opacity: 1;" transform="translate(605.5813953488372,0)"><line y2="6" x2="0"></line><text dy=".71em" style="text-anchor: middle;" y="9" x="0">25</text></g><g class="tick" style="opacity: 1;" transform="translate(700.6976744186046,0)"><line y2="6" x2="0"></line><text dy=".71em" style="text-anchor: middle;" y="9" x="0">30</text></g><g class="tick" style="opacity: 1;" transform="translate(795.813953488372,0)"><line y2="6" x2="0"></line><text dy=".71em" style="text-anchor: middle;" y="9" x="0">35</text></g><g class="tick" style="opacity: 1;" transform="translate(890.9302325581396,0)"><line y2="6" x2="0"></line><text dy=".71em" style="text-anchor: middle;" y="9" x="0">40</text></g><g class="tick" style="opacity: 1;" transform="translate(986.0465116279071,0)"><line y2="6" x2="0"></line><text dy=".71em" style="text-anchor: middle;" y="9" x="0">45</text></g><g class="tick" style="opacity: 1;" transform="translate(1081.1627906976744,0)"><line y2="6" x2="0"></line><text dy=".71em" style="text-anchor: middle;" y="9" x="0">50</text></g><g class="tick" style="opacity: 1;" transform="translate(1176.279069767442,0)"><line y2="6" x2="0"></line><text dy=".71em" style="text-anchor: middle;" y="9" x="0">55</text></g><g class="tick" style="opacity: 1;" transform="translate(1271.3953488372092,0)"><line y2="6" x2="0"></line><text dy=".71em" style="text-anchor: middle;" y="9" x="0">60</text></g><g class="tick" style="opacity: 1;" transform="translate(1366.5116279069769,0)"><line y2="6" x2="0"></line><text dy=".71em" style="text-anchor: middle;" y="9" x="0">65</text></g><g class="tick" style="opacity: 1;" transform="translate(1461.627906976744,0)"><line y2="6" x2="0"></line><text dy=".71em" style="text-anchor: middle;" y="9" x="0">70</text></g><g class="tick" style="opacity: 1;" transform="translate(1556.7441860465117,0)"><line y2="6" x2="0"></line><text dy=".71em" style="text-anchor: middle;" y="9" x="0">75</text></g><g class="tick" style="opacity: 1;" transform="translate(1651.860465116279,0)"><line y2="6" x2="0"></line><text dy=".71em" style="text-anchor: middle;" y="9" x="0">80</text></g><g class="tick" style="opacity: 1;" transform="translate(1746.9767441860465,0)"><line y2="6" x2="0"></line><text dy=".71em" style="text-anchor: middle;" y="9" x="0">85</text></g><path class="domain" d="M130,6V0H1766V6"></path></g><text class="legendTitle" x="1736" y="796">Time</text><g class="axis" transform="translate(111.19540229885058,0)"><g class="tick" style="opacity: 1;" transform="translate(0,707.8862559241707)"><line x2="-6" y2="0"></line><text dy=".32em" style="text-anchor: end;" x="-9" y="0">50</text></g><g class="tick" style="opacity: 1;" transform="translate(0,643.1943127962086)"><line x2="-6" y2="0"></line><text dy=".32em" style="text-anchor: end;" x="-9" y="0">100</text></g><g class="tick" style="opacity: 1;" transform="translate(0,578.5023696682465)"><line x2="-6" y2="0"></line><text dy=".32em" style="text-anchor: end;" x="-9" y="0">150</text></g><g class="tick" style="opacity: 1;" transform="translate(0,513.8104265402843)"><line x2="-6" y2="0"></line><text dy=".32em" style="text-anchor: end;" x="-9" y="0">200</text></g><g class="tick" style="opacity: 1;" transform="translate(0,449.1184834123223)"><line x2="-6" y2="0"></line><text dy=".32em" style="text-anchor: end;" x="-9" y="0">250</text></g><g class="tick" style="opacity: 1;" transform="translate(0,384.4265402843602)"><line x2="-6" y2="0"></line><text dy=".32em" style="text-anchor: end;" x="-9" y="0">300</text></g><g class="tick" style="opacity: 1;" transform="translate(0,319.7345971563981)"><line x2="-6" y2="0"></line><text dy=".32em" style="text-anchor: end;" x="-9" y="0">350</text></g><g class="tick" style="opacity: 1;" transform="translate(0,255.042654028436)"><line x2="-6" y2="0"></line><text dy=".32em" style="text-anchor: end;" x="-9" y="0">400</text></g><g class="tick" style="opacity: 1;" transform="translate(0,190.35071090047393)"><line x2="-6" y2="0"></line><text dy=".32em" style="text-anchor: end;" x="-9" y="0">450</text></g><path class="domain" d="M-6,180H0V726H-6"></path></g><text class="legendTitle" x="100" y="170">Pitch</text><text class="title" x="1013" y="50" text-anchor="middle">yoyo.csv</text><text class="title" x="1013" y="100" text-anchor="middle">Min Z : 83 Max Z : 96</text><rect x="120.59770114942529" y="354.02285637457567" width="18.804597701149426" height="1.2907801418439715" fill="#00002e" class="pianoroll"></rect><rect x="139.62095696337877" y="354.02285637457567" width="18.804597701149426" height="1.2907801418439715" fill="#00002e" class="pianoroll"></rect><rect x="158.64421277733226" y="354.02285637457567" width="18.804597701149426" height="1.2907801418439715" fill="#00002e" class="pianoroll"></rect><rect x="196.69072440523925" y="356.6105340996941" width="18.804597701149426" height="1.2907801418439715" fill="#00002e" class="pianoroll"></rect><rect x="215.71398021919273" y="356.6105340996941" width="18.804597701149426" height="1.2907801418439715" fill="#00002e" class="pianoroll"></rect><rect x="234.73723603314622" y="356.6105340996941" width="18.804597701149426" height="1.2907801418439715" fill="#00002e" class="pianoroll"></rect><rect x="272.7837476610532" y="350.14133978689796" width="18.804597701149426" height="1.2907801418439715" fill="#00002e" class="pianoroll"></rect><rect x="291.8070034750067" y="350.14133978689796" width="18.804597701149426" height="1.2907801418439715" fill="#00002e" class="pianoroll"></rect><rect x="310.8302592889602" y="350.14133978689796" width="18.804597701149426" height="1.2907801418439715" fill="#00002e" class="pianoroll"></rect><rect x="348.87677091686714" y="347.55366206177945" width="18.804597701149426" height="1.2907801418439715" fill="#00002e" class="pianoroll"></rect><rect x="367.9000267308206" y="347.55366206177945" width="18.804597701149426" height="1.2907801418439715" fill="#00002e" class="pianoroll"></rect><rect x="386.9232825447741" y="341.08446774898323" width="18.804597701149426" height="1.2907801418439715" fill="#b3c6ff" class="pianoroll"></rect><rect x="405.9465383587276" y="341.08446774898323" width="18.804597701149426" height="1.2907801418439715" fill="#b3c6ff" class="pianoroll"></rect><rect x="424.9697941726811" y="344.965984336661" width="18.804597701149426" height="1.2907801418439715" fill="#00002e" class="pianoroll"></rect><rect x="443.99304998663456" y="344.965984336661" width="18.804597701149426" height="1.2907801418439715" fill="#00002e" class="pianoroll"></rect><rect x="463.0163058005881" y="344.965984336661" width="18.804597701149426" height="1.2907801418439715" fill="#00002e" class="pianoroll"></rect><rect x="501.06281742849507" y="347.55366206177945" width="18.804597701149426" height="1.2907801418439715" fill="#00002e" class="pianoroll"></rect><rect x="520.0860732424485" y="347.55366206177945" width="18.804597701149426" height="1.2907801418439715" fill="#00002e" class="pianoroll"></rect><rect x="539.109329056402" y="341.08446774898323" width="18.804597701149426" height="1.2907801418439715" fill="#b3c6ff" class="pianoroll"></rect><rect x="558.1325848703553" y="341.08446774898323" width="18.804597701149426" height="1.2907801418439715" fill="#b3c6ff" class="pianoroll"></rect><rect x="577.1558406843089" y="344.965984336661" width="18.804597701149426" height="1.2907801418439715" fill="#00002e" class="pianoroll"></rect><rect x="596.1790964982624" y="344.965984336661" width="18.804597701149426" height="1.2907801418439715" fill="#00002e" class="pianoroll"></rect><rect x="615.2023523122159" y="344.965984336661" width="18.804597701149426" height="1.2907801418439715" fill="#00002e" class="pianoroll"></rect><rect x="653.2488639401229" y="350.14133978689796" width="18.804597701149426" height="1.2907801418439715" fill="#00002e" class="pianoroll"></rect><rect x="672.2721197540764" y="350.14133978689796" width="18.804597701149426" height="1.2907801418439715" fill="#00002e" class="pianoroll"></rect><rect x="691.2953755680298" y="350.14133978689796" width="18.804597701149426" height="1.2907801418439715" fill="#00002e" class="pianoroll"></rect><rect x="729.3418871959368" y="347.55366206177945" width="18.804597701149426" height="1.2907801418439715" fill="#00002e" class="pianoroll"></rect><rect x="748.3651430098904" y="347.55366206177945" width="18.804597701149426" height="1.2907801418439715" fill="#00002e" class="pianoroll"></rect><rect x="767.3883988238438" y="347.55366206177945" width="18.804597701149426" height="1.2907801418439715" fill="#00002e" class="pianoroll"></rect><rect x="805.4349104517509" y="354.02285637457567" width="18.804597701149426" height="1.2907801418439715" fill="#00002e" class="pianoroll"></rect><rect x="824.4581662657042" y="354.02285637457567" width="18.804597701149426" height="1.2907801418439715" fill="#00002e" class="pianoroll"></rect><rect x="843.4814220796578" y="354.02285637457567" width="18.804597701149426" height="1.2907801418439715" fill="#00002e" class="pianoroll"></rect><rect x="881.5279337075648" y="356.6105340996941" width="18.804597701149426" height="1.2907801418439715" fill="#00002e" class="pianoroll"></rect><rect x="900.5511895215183" y="356.6105340996941" width="18.804597701149426" height="1.2907801418439715" fill="#00002e" class="pianoroll"></rect><rect x="919.5744453354718" y="356.6105340996941" width="18.804597701149426" height="1.2907801418439715" fill="#00002e" class="pianoroll"></rect><rect x="957.6209569633787" y="716.2977378911634" width="18.804597701149426" height="1.2907801418439715" fill="#00002e" class="pianoroll"></rect><rect x="957.6209569633787" y="535.1602971328696" width="18.804597701149426" height="1.2907801418439715" fill="#00002e" class="pianoroll"></rect><rect x="957.6209569633787" y="365.66740613760885" width="18.804597701149426" height="1.2907801418439715" fill="#00143c" class="pianoroll"></rect><rect x="957.6209569633787" y="360.4920506873719" width="18.804597701149426" height="1.2907801418439715" fill="#00002e" class="pianoroll"></rect><rect x="957.6209569633787" y="354.02285637457567" width="18.804597701149426" height="1.2907801418439715" fill="#00002e" class="pianoroll"></rect><rect x="957.6209569633787" y="203.93754831770357" width="18.804597701149426" height="1.2907801418439715" fill="#00143c" class="pianoroll"></rect><rect x="957.6209569633787" y="200.05603173002584" width="18.804597701149426" height="1.2907801418439715" fill="#00143c" class="pianoroll"></rect><rect x="957.6209569633787" y="194.8806762797889" width="18.804597701149426" height="1.2907801418439715" fill="#00002e" class="pianoroll"></rect><rect x="957.6209569633787" y="188.4114819669927" width="18.804597701149426" height="1.2907801418439715" fill="#00002e" class="pianoroll"></rect><rect x="976.6442127773323" y="716.2977378911634" width="18.804597701149426" height="1.2907801418439715" fill="#00002e" class="pianoroll"></rect><rect x="976.6442127773323" y="535.1602971328696" width="18.804597701149426" height="1.2907801418439715" fill="#00002e" class="pianoroll"></rect><rect x="976.6442127773323" y="365.66740613760885" width="18.804597701149426" height="1.2907801418439715" fill="#00143c" class="pianoroll"></rect><rect x="976.6442127773323" y="360.4920506873719" width="18.804597701149426" height="1.2907801418439715" fill="#00002e" class="pianoroll"></rect><rect x="976.6442127773323" y="354.02285637457567" width="18.804597701149426" height="1.2907801418439715" fill="#00002e" class="pianoroll"></rect><rect x="976.6442127773323" y="203.93754831770357" width="18.804597701149426" height="1.2907801418439715" fill="#00143c" class="pianoroll"></rect><rect x="976.6442127773323" y="200.05603173002584" width="18.804597701149426" height="1.2907801418439715" fill="#00143c" class="pianoroll"></rect><rect x="976.6442127773323" y="194.8806762797889" width="18.804597701149426" height="1.2907801418439715" fill="#00002e" class="pianoroll"></rect><rect x="976.6442127773323" y="188.4114819669927" width="18.804597701149426" height="1.2907801418439715" fill="#00002e" class="pianoroll"></rect><rect x="995.6674685912856" y="716.2977378911634" width="18.804597701149426" height="1.2907801418439715" fill="#00002e" class="pianoroll"></rect><rect x="995.6674685912856" y="535.1602971328696" width="18.804597701149426" height="1.2907801418439715" fill="#00002e" class="pianoroll"></rect><rect x="995.6674685912856" y="365.66740613760885" width="18.804597701149426" height="1.2907801418439715" fill="#00143c" class="pianoroll"></rect><rect x="995.6674685912856" y="360.4920506873719" width="18.804597701149426" height="1.2907801418439715" fill="#00002e" class="pianoroll"></rect><rect x="995.6674685912856" y="354.02285637457567" width="18.804597701149426" height="1.2907801418439715" fill="#00002e" class="pianoroll"></rect><rect x="995.6674685912856" y="203.93754831770357" width="18.804597701149426" height="1.2907801418439715" fill="#00143c" class="pianoroll"></rect><rect x="995.6674685912856" y="200.05603173002584" width="18.804597701149426" height="1.2907801418439715" fill="#00143c" class="pianoroll"></rect><rect x="995.6674685912856" y="194.8806762797889" width="18.804597701149426" height="1.2907801418439715" fill="#00002e" class="pianoroll"></rect><rect x="995.6674685912856" y="188.4114819669927" width="18.804597701149426" height="1.2907801418439715" fill="#00002e" class="pianoroll"></rect><rect x="1033.7139802191928" y="713.7100601660449" width="18.804597701149426" height="1.2907801418439715" fill="#00002e" class="pianoroll"></rect><rect x="1033.7139802191928" y="537.747974857988" width="18.804597701149426" height="1.2907801418439715" fill="#00002e" class="pianoroll"></rect><rect x="1033.7139802191928" y="366.9612450001681" width="18.804597701149426" height="1.2907801418439715" fill="#00143c" class="pianoroll"></rect><rect x="1033.7139802191928" y="363.07972841249034" width="18.804597701149426" height="1.2907801418439715" fill="#00002e" class="pianoroll"></rect><rect x="1033.7139802191928" y="356.6105340996941" width="18.804597701149426" height="1.2907801418439715" fill="#00002e" class="pianoroll"></rect><rect x="1033.7139802191928" y="206.52522604282208" width="18.804597701149426" height="1.2907801418439715" fill="#00143c" class="pianoroll"></rect><rect x="1033.7139802191928" y="201.34987059258515" width="18.804597701149426" height="1.2907801418439715" fill="#00143c" class="pianoroll"></rect><rect x="1033.7139802191928" y="197.46835400490738" width="18.804597701149426" height="1.2907801418439715" fill="#00002e" class="pianoroll"></rect><rect x="1033.7139802191928" y="190.99915969211122" width="18.804597701149426" height="1.2907801418439715" fill="#00002e" class="pianoroll"></rect><rect x="1052.7372360331462" y="713.7100601660449" width="18.804597701149426" height="1.2907801418439715" fill="#00002e" class="pianoroll"></rect><rect x="1052.7372360331462" y="537.747974857988" width="18.804597701149426" height="1.2907801418439715" fill="#00002e" class="pianoroll"></rect><rect x="1052.7372360331462" y="366.9612450001681" width="18.804597701149426" height="1.2907801418439715" fill="#00143c" class="pianoroll"></rect><rect x="1052.7372360331462" y="363.07972841249034" width="18.804597701149426" height="1.2907801418439715" fill="#00002e" class="pianoroll"></rect><rect x="1052.7372360331462" y="356.6105340996941" width="18.804597701149426" height="1.2907801418439715" fill="#00002e" class="pianoroll"></rect><rect x="1052.7372360331462" y="206.52522604282208" width="18.804597701149426" height="1.2907801418439715" fill="#00143c" class="pianoroll"></rect><rect x="1052.7372360331462" y="201.34987059258515" width="18.804597701149426" height="1.2907801418439715" fill="#00143c" class="pianoroll"></rect><rect x="1052.7372360331462" y="197.46835400490738" width="18.804597701149426" height="1.2907801418439715" fill="#00002e" class="pianoroll"></rect><rect x="1052.7372360331462" y="190.99915969211122" width="18.804597701149426" height="1.2907801418439715" fill="#00002e" class="pianoroll"></rect><rect x="1071.7604918470997" y="713.7100601660449" width="18.804597701149426" height="1.2907801418439715" fill="#00002e" class="pianoroll"></rect><rect x="1071.7604918470997" y="537.747974857988" width="18.804597701149426" height="1.2907801418439715" fill="#00002e" class="pianoroll"></rect><rect x="1071.7604918470997" y="366.9612450001681" width="18.804597701149426" height="1.2907801418439715" fill="#00143c" class="pianoroll"></rect><rect x="1071.7604918470997" y="363.07972841249034" width="18.804597701149426" height="1.2907801418439715" fill="#00002e" class="pianoroll"></rect><rect x="1071.7604918470997" y="356.6105340996941" width="18.804597701149426" height="1.2907801418439715" fill="#00002e" class="pianoroll"></rect><rect x="1071.7604918470997" y="206.52522604282208" width="18.804597701149426" height="1.2907801418439715" fill="#00143c" class="pianoroll"></rect><rect x="1071.7604918470997" y="201.34987059258515" width="18.804597701149426" height="1.2907801418439715" fill="#00143c" class="pianoroll"></rect><rect x="1071.7604918470997" y="197.46835400490738" width="18.804597701149426" height="1.2907801418439715" fill="#00002e" class="pianoroll"></rect><rect x="1071.7604918470997" y="190.99915969211122" width="18.804597701149426" height="1.2907801418439715" fill="#00002e" class="pianoroll"></rect><rect x="1109.8070034750067" y="716.2977378911634" width="18.804597701149426" height="1.2907801418439715" fill="#00002e" class="pianoroll"></rect><rect x="1109.8070034750067" y="535.1602971328696" width="18.804597701149426" height="1.2907801418439715" fill="#00002e" class="pianoroll"></rect><rect x="1109.8070034750067" y="365.66740613760885" width="18.804597701149426" height="1.2907801418439715" fill="#00143c" class="pianoroll"></rect><rect x="1109.8070034750067" y="360.4920506873719" width="18.804597701149426" height="1.2907801418439715" fill="#00002e" class="pianoroll"></rect><rect x="1109.8070034750067" y="350.14133978689796" width="18.804597701149426" height="1.2907801418439715" fill="#00002e" class="pianoroll"></rect><rect x="1109.8070034750067" y="200.05603173002584" width="18.804597701149426" height="1.2907801418439715" fill="#00143c" class="pianoroll"></rect><rect x="1109.8070034750067" y="194.8806762797889" width="18.804597701149426" height="1.2907801418439715" fill="#00143c" class="pianoroll"></rect><rect x="1109.8070034750067" y="188.4114819669927" width="18.804597701149426" height="1.2907801418439715" fill="#00002e" class="pianoroll"></rect><rect x="1109.8070034750067" y="184.52996537931497" width="18.804597701149426" height="1.2907801418439715" fill="#00002e" class="pianoroll"></rect><rect x="1128.8302592889602" y="716.2977378911634" width="18.804597701149426" height="1.2907801418439715" fill="#00002e" class="pianoroll"></rect><rect x="1128.8302592889602" y="535.1602971328696" width="18.804597701149426" height="1.2907801418439715" fill="#00002e" class="pianoroll"></rect><rect x="1128.8302592889602" y="365.66740613760885" width="18.804597701149426" height="1.2907801418439715" fill="#00143c" class="pianoroll"></rect><rect x="1128.8302592889602" y="360.4920506873719" width="18.804597701149426" height="1.2907801418439715" fill="#00002e" class="pianoroll"></rect><rect x="1128.8302592889602" y="350.14133978689796" width="18.804597701149426" height="1.2907801418439715" fill="#00002e" class="pianoroll"></rect><rect x="1128.8302592889602" y="200.05603173002584" width="18.804597701149426" height="1.2907801418439715" fill="#00143c" class="pianoroll"></rect><rect x="1128.8302592889602" y="194.8806762797889" width="18.804597701149426" height="1.2907801418439715" fill="#00143c" class="pianoroll"></rect><rect x="1128.8302592889602" y="188.4114819669927" width="18.804597701149426" height="1.2907801418439715" fill="#00002e" class="pianoroll"></rect><rect x="1128.8302592889602" y="184.52996537931497" width="18.804597701149426" height="1.2907801418439715" fill="#00002e" class="pianoroll"></rect><rect x="1147.8535151029137" y="716.2977378911634" width="18.804597701149426" height="1.2907801418439715" fill="#00002e" class="pianoroll"></rect><rect x="1147.8535151029137" y="535.1602971328696" width="18.804597701149426" height="1.2907801418439715" fill="#00002e" class="pianoroll"></rect><rect x="1147.8535151029137" y="365.66740613760885" width="18.804597701149426" height="1.2907801418439715" fill="#00143c" class="pianoroll"></rect><rect x="1147.8535151029137" y="360.4920506873719" width="18.804597701149426" height="1.2907801418439715" fill="#00002e" class="pianoroll"></rect><rect x="1147.8535151029137" y="350.14133978689796" width="18.804597701149426" height="1.2907801418439715" fill="#00002e" class="pianoroll"></rect><rect x="1147.8535151029137" y="200.05603173002584" width="18.804597701149426" height="1.2907801418439715" fill="#00143c" class="pianoroll"></rect><rect x="1147.8535151029137" y="194.8806762797889" width="18.804597701149426" height="1.2907801418439715" fill="#00143c" class="pianoroll"></rect><rect x="1147.8535151029137" y="188.4114819669927" width="18.804597701149426" height="1.2907801418439715" fill="#00002e" class="pianoroll"></rect><rect x="1147.8535151029137" y="184.52996537931497" width="18.804597701149426" height="1.2907801418439715" fill="#00002e" class="pianoroll"></rect><rect x="1185.9000267308206" y="718.8854156162818" width="18.804597701149426" height="1.2907801418439715" fill="#00002e" class="pianoroll"></rect><rect x="1185.9000267308206" y="537.747974857988" width="18.804597701149426" height="1.2907801418439715" fill="#00002e" class="pianoroll"></rect><rect x="1185.9000267308206" y="363.07972841249034" width="18.804597701149426" height="1.2907801418439715" fill="#00143c" class="pianoroll"></rect><rect x="1185.9000267308206" y="351.43517864945716" width="18.804597701149426" height="1.2907801418439715" fill="#00002e" class="pianoroll"></rect><rect x="1185.9000267308206" y="347.55366206177945" width="18.804597701149426" height="1.2907801418439715" fill="#00002e" class="pianoroll"></rect><rect x="1185.9000267308206" y="197.46835400490738" width="18.804597701149426" height="1.2907801418439715" fill="#00143c" class="pianoroll"></rect><rect x="1185.9000267308206" y="190.99915969211122" width="18.804597701149426" height="1.2907801418439715" fill="#00143c" class="pianoroll"></rect><rect x="1185.9000267308206" y="185.8238042418742" width="18.804597701149426" height="1.2907801418439715" fill="#00002e" class="pianoroll"></rect><rect x="1185.9000267308206" y="181.94228765419652" width="18.804597701149426" height="1.2907801418439715" fill="#00002e" class="pianoroll"></rect><rect x="1204.923282544774" y="718.8854156162818" width="18.804597701149426" height="1.2907801418439715" fill="#00002e" class="pianoroll"></rect><rect x="1204.923282544774" y="537.747974857988" width="18.804597701149426" height="1.2907801418439715" fill="#00002e" class="pianoroll"></rect><rect x="1204.923282544774" y="363.07972841249034" width="18.804597701149426" height="1.2907801418439715" fill="#00143c" class="pianoroll"></rect><rect x="1204.923282544774" y="351.43517864945716" width="18.804597701149426" height="1.2907801418439715" fill="#00002e" class="pianoroll"></rect><rect x="1204.923282544774" y="347.55366206177945" width="18.804597701149426" height="1.2907801418439715" fill="#00002e" class="pianoroll"></rect><rect x="1204.923282544774" y="197.46835400490738" width="18.804597701149426" height="1.2907801418439715" fill="#00143c" class="pianoroll"></rect><rect x="1204.923282544774" y="190.99915969211122" width="18.804597701149426" height="1.2907801418439715" fill="#00143c" class="pianoroll"></rect><rect x="1204.923282544774" y="185.8238042418742" width="18.804597701149426" height="1.2907801418439715" fill="#00002e" class="pianoroll"></rect><rect x="1204.923282544774" y="181.94228765419652" width="18.804597701149426" height="1.2907801418439715" fill="#00002e" class="pianoroll"></rect><rect x="1223.9465383587276" y="718.8854156162818" width="18.804597701149426" height="1.2907801418439715" fill="#00002e" class="pianoroll"></rect><rect x="1223.9465383587276" y="537.747974857988" width="18.804597701149426" height="1.2907801418439715" fill="#00002e" class="pianoroll"></rect><rect x="1223.9465383587276" y="363.07972841249034" width="18.804597701149426" height="1.2907801418439715" fill="#00143c" class="pianoroll"></rect><rect x="1223.9465383587276" y="351.43517864945716" width="18.804597701149426" height="1.2907801418439715" fill="#00002e" class="pianoroll"></rect><rect x="1223.9465383587276" y="341.08446774898323" width="18.804597701149426" height="1.2907801418439715" fill="#00143c" class="pianoroll"></rect><rect x="1223.9465383587276" y="197.46835400490738" width="18.804597701149426" height="1.2907801418439715" fill="#00143c" class="pianoroll"></rect><rect x="1223.9465383587276" y="190.99915969211122" width="18.804597701149426" height="1.2907801418439715" fill="#00143c" class="pianoroll"></rect><rect x="1223.9465383587276" y="185.8238042418742" width="18.804597701149426" height="1.2907801418439715" fill="#00002e" class="pianoroll"></rect><rect x="1223.9465383587276" y="181.94228765419652" width="18.804597701149426" height="1.2907801418439715" fill="#00002e" class="pianoroll"></rect><rect x="1242.9697941726813" y="341.08446774898323" width="18.804597701149426" height="1.2907801418439715" fill="#00143c" class="pianoroll"></rect><rect x="1261.9930499866346" y="722.7669322039595" width="18.804597701149426" height="1.2907801418439715" fill="#00002e" class="pianoroll"></rect><rect x="1261.9930499866346" y="541.6294914456657" width="18.804597701149426" height="1.2907801418439715" fill="#00002e" class="pianoroll"></rect><rect x="1261.9930499866346" y="356.6105340996941" width="18.804597701149426" height="1.2907801418439715" fill="#00143c" class="pianoroll"></rect><rect x="1261.9930499866346" y="351.43517864945716" width="18.804597701149426" height="1.2907801418439715" fill="#00002e" class="pianoroll"></rect><rect x="1261.9930499866346" y="344.965984336661" width="18.804597701149426" height="1.2907801418439715" fill="#00002e" class="pianoroll"></rect><rect x="1261.9930499866346" y="194.8806762797889" width="18.804597701149426" height="1.2907801418439715" fill="#00143c" class="pianoroll"></rect><rect x="1261.9930499866346" y="190.99915969211122" width="18.804597701149426" height="1.2907801418439715" fill="#00143c" class="pianoroll"></rect><rect x="1261.9930499866346" y="185.8238042418742" width="18.804597701149426" height="1.2907801418439715" fill="#00002e" class="pianoroll"></rect><rect x="1261.9930499866346" y="179.354609929078" width="18.804597701149426" height="1.2907801418439715" fill="#00002e" class="pianoroll"></rect><rect x="1281.0163058005883" y="722.7669322039595" width="18.804597701149426" height="1.2907801418439715" fill="#00002e" class="pianoroll"></rect><rect x="1281.0163058005883" y="541.6294914456657" width="18.804597701149426" height="1.2907801418439715" fill="#00002e" class="pianoroll"></rect><rect x="1281.0163058005883" y="356.6105340996941" width="18.804597701149426" height="1.2907801418439715" fill="#00143c" class="pianoroll"></rect><rect x="1281.0163058005883" y="351.43517864945716" width="18.804597701149426" height="1.2907801418439715" fill="#00002e" class="pianoroll"></rect><rect x="1281.0163058005883" y="344.965984336661" width="18.804597701149426" height="1.2907801418439715" fill="#00002e" class="pianoroll"></rect><rect x="1281.0163058005883" y="194.8806762797889" width="18.804597701149426" height="1.2907801418439715" fill="#00143c" class="pianoroll"></rect><rect x="1281.0163058005883" y="190.99915969211122" width="18.804597701149426" height="1.2907801418439715" fill="#00143c" class="pianoroll"></rect><rect x="1281.0163058005883" y="185.8238042418742" width="18.804597701149426" height="1.2907801418439715" fill="#00002e" class="pianoroll"></rect><rect x="1281.0163058005883" y="179.354609929078" width="18.804597701149426" height="1.2907801418439715" fill="#00002e" class="pianoroll"></rect><rect x="1300.0395616145415" y="722.7669322039595" width="18.804597701149426" height="1.2907801418439715" fill="#00002e" class="pianoroll"></rect><rect x="1300.0395616145415" y="541.6294914456657" width="18.804597701149426" height="1.2907801418439715" fill="#00002e" class="pianoroll"></rect><rect x="1300.0395616145415" y="356.6105340996941" width="18.804597701149426" height="1.2907801418439715" fill="#00143c" class="pianoroll"></rect><rect x="1300.0395616145415" y="351.43517864945716" width="18.804597701149426" height="1.2907801418439715" fill="#00002e" class="pianoroll"></rect><rect x="1300.0395616145415" y="344.965984336661" width="18.804597701149426" height="1.2907801418439715" fill="#00002e" class="pianoroll"></rect><rect x="1300.0395616145415" y="194.8806762797889" width="18.804597701149426" height="1.2907801418439715" fill="#00143c" class="pianoroll"></rect><rect x="1300.0395616145415" y="190.99915969211122" width="18.804597701149426" height="1.2907801418439715" fill="#00143c" class="pianoroll"></rect><rect x="1300.0395616145415" y="185.8238042418742" width="18.804597701149426" height="1.2907801418439715" fill="#00002e" class="pianoroll"></rect><rect x="1300.0395616145415" y="179.354609929078" width="18.804597701149426" height="1.2907801418439715" fill="#00002e" class="pianoroll"></rect><rect x="1338.0860732424485" y="718.8854156162818" width="18.804597701149426" height="1.2907801418439715" fill="#00002e" class="pianoroll"></rect><rect x="1338.0860732424485" y="537.747974857988" width="18.804597701149426" height="1.2907801418439715" fill="#00002e" class="pianoroll"></rect><rect x="1338.0860732424485" y="363.07972841249034" width="18.804597701149426" height="1.2907801418439715" fill="#00143c" class="pianoroll"></rect><rect x="1338.0860732424485" y="351.43517864945716" width="18.804597701149426" height="1.2907801418439715" fill="#00002e" class="pianoroll"></rect><rect x="1338.0860732424485" y="347.55366206177945" width="18.804597701149426" height="1.2907801418439715" fill="#00002e" class="pianoroll"></rect><rect x="1338.0860732424485" y="197.46835400490738" width="18.804597701149426" height="1.2907801418439715" fill="#00143c" class="pianoroll"></rect><rect x="1338.0860732424485" y="190.99915969211122" width="18.804597701149426" height="1.2907801418439715" fill="#00143c" class="pianoroll"></rect><rect x="1338.0860732424485" y="185.8238042418742" width="18.804597701149426" height="1.2907801418439715" fill="#00002e" class="pianoroll"></rect><rect x="1338.0860732424485" y="181.94228765419652" width="18.804597701149426" height="1.2907801418439715" fill="#00002e" class="pianoroll"></rect><rect x="1357.1093290564022" y="718.8854156162818" width="18.804597701149426" height="1.2907801418439715" fill="#00002e" class="pianoroll"></rect><rect x="1357.1093290564022" y="537.747974857988" width="18.804597701149426" height="1.2907801418439715" fill="#00002e" class="pianoroll"></rect><rect x="1357.1093290564022" y="363.07972841249034" width="18.804597701149426" height="1.2907801418439715" fill="#00143c" class="pianoroll"></rect><rect x="1357.1093290564022" y="351.43517864945716" width="18.804597701149426" height="1.2907801418439715" fill="#00002e" class="pianoroll"></rect><rect x="1357.1093290564022" y="347.55366206177945" width="18.804597701149426" height="1.2907801418439715" fill="#00002e" class="pianoroll"></rect><rect x="1357.1093290564022" y="197.46835400490738" width="18.804597701149426" height="1.2907801418439715" fill="#00143c" class="pianoroll"></rect><rect x="1357.1093290564022" y="190.99915969211122" width="18.804597701149426" height="1.2907801418439715" fill="#00143c" class="pianoroll"></rect><rect x="1357.1093290564022" y="185.8238042418742" width="18.804597701149426" height="1.2907801418439715" fill="#00002e" class="pianoroll"></rect><rect x="1357.1093290564022" y="181.94228765419652" width="18.804597701149426" height="1.2907801418439715" fill="#00002e" class="pianoroll"></rect><rect x="1376.1325848703557" y="718.8854156162818" width="18.804597701149426" height="1.2907801418439715" fill="#00002e" class="pianoroll"></rect><rect x="1376.1325848703557" y="537.747974857988" width="18.804597701149426" height="1.2907801418439715" fill="#00002e" class="pianoroll"></rect><rect x="1376.1325848703557" y="363.07972841249034" width="18.804597701149426" height="1.2907801418439715" fill="#00143c" class="pianoroll"></rect><rect x="1376.1325848703557" y="351.43517864945716" width="18.804597701149426" height="1.2907801418439715" fill="#00002e" class="pianoroll"></rect><rect x="1376.1325848703557" y="341.08446774898323" width="18.804597701149426" height="1.2907801418439715" fill="#00143c" class="pianoroll"></rect><rect x="1376.1325848703557" y="197.46835400490738" width="18.804597701149426" height="1.2907801418439715" fill="#00143c" class="pianoroll"></rect><rect x="1376.1325848703557" y="190.99915969211122" width="18.804597701149426" height="1.2907801418439715" fill="#00143c" class="pianoroll"></rect><rect x="1376.1325848703557" y="185.8238042418742" width="18.804597701149426" height="1.2907801418439715" fill="#00002e" class="pianoroll"></rect><rect x="1376.1325848703557" y="181.94228765419652" width="18.804597701149426" height="1.2907801418439715" fill="#00002e" class="pianoroll"></rect><rect x="1395.1558406843092" y="341.08446774898323" width="18.804597701149426" height="1.2907801418439715" fill="#00143c" class="pianoroll"></rect><rect x="1414.1790964982624" y="712.4162213034856" width="18.804597701149426" height="1.2907801418439715" fill="#00002e" class="pianoroll"></rect><rect x="1414.1790964982624" y="531.2787805451918" width="18.804597701149426" height="1.2907801418439715" fill="#00002e" class="pianoroll"></rect><rect x="1414.1790964982624" y="356.6105340996941" width="18.804597701149426" height="1.2907801418439715" fill="#00143c" class="pianoroll"></rect><rect x="1414.1790964982624" y="350.14133978689796" width="18.804597701149426" height="1.2907801418439715" fill="#00002e" class="pianoroll"></rect><rect x="1414.1790964982624" y="344.965984336661" width="18.804597701149426" height="1.2907801418439715" fill="#00002e" class="pianoroll"></rect><rect x="1414.1790964982624" y="194.8806762797889" width="18.804597701149426" height="1.2907801418439715" fill="#00143c" class="pianoroll"></rect><rect x="1414.1790964982624" y="190.99915969211122" width="18.804597701149426" height="1.2907801418439715" fill="#00143c" class="pianoroll"></rect><rect x="1414.1790964982624" y="184.52996537931497" width="18.804597701149426" height="1.2907801418439715" fill="#00002e" class="pianoroll"></rect><rect x="1414.1790964982624" y="179.354609929078" width="18.804597701149426" height="1.2907801418439715" fill="#00002e" class="pianoroll"></rect><rect x="1433.2023523122161" y="712.4162213034856" width="18.804597701149426" height="1.2907801418439715" fill="#00002e" class="pianoroll"></rect><rect x="1433.2023523122161" y="531.2787805451918" width="18.804597701149426" height="1.2907801418439715" fill="#00002e" class="pianoroll"></rect><rect x="1433.2023523122161" y="356.6105340996941" width="18.804597701149426" height="1.2907801418439715" fill="#00143c" class="pianoroll"></rect><rect x="1433.2023523122161" y="350.14133978689796" width="18.804597701149426" height="1.2907801418439715" fill="#00002e" class="pianoroll"></rect><rect x="1433.2023523122161" y="344.965984336661" width="18.804597701149426" height="1.2907801418439715" fill="#00002e" class="pianoroll"></rect><rect x="1433.2023523122161" y="194.8806762797889" width="18.804597701149426" height="1.2907801418439715" fill="#00143c" class="pianoroll"></rect><rect x="1433.2023523122161" y="190.99915969211122" width="18.804597701149426" height="1.2907801418439715" fill="#00143c" class="pianoroll"></rect><rect x="1433.2023523122161" y="184.52996537931497" width="18.804597701149426" height="1.2907801418439715" fill="#00002e" class="pianoroll"></rect><rect x="1433.2023523122161" y="179.354609929078" width="18.804597701149426" height="1.2907801418439715" fill="#00002e" class="pianoroll"></rect><rect x="1452.2256081261694" y="712.4162213034856" width="18.804597701149426" height="1.2907801418439715" fill="#00002e" class="pianoroll"></rect><rect x="1452.2256081261694" y="531.2787805451918" width="18.804597701149426" height="1.2907801418439715" fill="#00002e" class="pianoroll"></rect><rect x="1452.2256081261694" y="356.6105340996941" width="18.804597701149426" height="1.2907801418439715" fill="#00143c" class="pianoroll"></rect><rect x="1452.2256081261694" y="350.14133978689796" width="18.804597701149426" height="1.2907801418439715" fill="#00002e" class="pianoroll"></rect><rect x="1452.2256081261694" y="344.965984336661" width="18.804597701149426" height="1.2907801418439715" fill="#00002e" class="pianoroll"></rect><rect x="1452.2256081261694" y="194.8806762797889" width="18.804597701149426" height="1.2907801418439715" fill="#00143c" class="pianoroll"></rect><rect x="1452.2256081261694" y="190.99915969211122" width="18.804597701149426" height="1.2907801418439715" fill="#00143c" class="pianoroll"></rect><rect x="1452.2256081261694" y="184.52996537931497" width="18.804597701149426" height="1.2907801418439715" fill="#00002e" class="pianoroll"></rect><rect x="1452.2256081261694" y="179.354609929078" width="18.804597701149426" height="1.2907801418439715" fill="#00002e" class="pianoroll"></rect><rect x="1490.2721197540766" y="716.2977378911634" width="18.804597701149426" height="1.2907801418439715" fill="#00002e" class="pianoroll"></rect><rect x="1490.2721197540766" y="535.1602971328696" width="18.804597701149426" height="1.2907801418439715" fill="#00002e" class="pianoroll"></rect><rect x="1490.2721197540766" y="360.4920506873719" width="18.804597701149426" height="1.2907801418439715" fill="#00143c" class="pianoroll"></rect><rect x="1490.2721197540766" y="354.02285637457567" width="18.804597701149426" height="1.2907801418439715" fill="#00002e" class="pianoroll"></rect><rect x="1490.2721197540766" y="350.14133978689796" width="18.804597701149426" height="1.2907801418439715" fill="#00002e" class="pianoroll"></rect><rect x="1490.2721197540766" y="200.05603173002584" width="18.804597701149426" height="1.2907801418439715" fill="#00143c" class="pianoroll"></rect><rect x="1490.2721197540766" y="194.8806762797889" width="18.804597701149426" height="1.2907801418439715" fill="#00143c" class="pianoroll"></rect><rect x="1490.2721197540766" y="188.4114819669927" width="18.804597701149426" height="1.2907801418439715" fill="#00002e" class="pianoroll"></rect><rect x="1490.2721197540766" y="184.52996537931497" width="18.804597701149426" height="1.2907801418439715" fill="#00002e" class="pianoroll"></rect><rect x="1509.29537556803" y="716.2977378911634" width="18.804597701149426" height="1.2907801418439715" fill="#00002e" class="pianoroll"></rect><rect x="1509.29537556803" y="535.1602971328696" width="18.804597701149426" height="1.2907801418439715" fill="#00002e" class="pianoroll"></rect><rect x="1509.29537556803" y="360.4920506873719" width="18.804597701149426" height="1.2907801418439715" fill="#00143c" class="pianoroll"></rect><rect x="1509.29537556803" y="354.02285637457567" width="18.804597701149426" height="1.2907801418439715" fill="#00002e" class="pianoroll"></rect><rect x="1509.29537556803" y="350.14133978689796" width="18.804597701149426" height="1.2907801418439715" fill="#00002e" class="pianoroll"></rect><rect x="1509.29537556803" y="200.05603173002584" width="18.804597701149426" height="1.2907801418439715" fill="#00143c" class="pianoroll"></rect><rect x="1509.29537556803" y="194.8806762797889" width="18.804597701149426" height="1.2907801418439715" fill="#00143c" class="pianoroll"></rect><rect x="1509.29537556803" y="188.4114819669927" width="18.804597701149426" height="1.2907801418439715" fill="#00002e" class="pianoroll"></rect><rect x="1509.29537556803" y="184.52996537931497" width="18.804597701149426" height="1.2907801418439715" fill="#00002e" class="pianoroll"></rect><rect x="1528.3186313819833" y="716.2977378911634" width="18.804597701149426" height="1.2907801418439715" fill="#00002e" class="pianoroll"></rect><rect x="1528.3186313819833" y="535.1602971328696" width="18.804597701149426" height="1.2907801418439715" fill="#00002e" class="pianoroll"></rect><rect x="1528.3186313819833" y="360.4920506873719" width="18.804597701149426" height="1.2907801418439715" fill="#00143c" class="pianoroll"></rect><rect x="1528.3186313819833" y="354.02285637457567" width="18.804597701149426" height="1.2907801418439715" fill="#00002e" class="pianoroll"></rect><rect x="1528.3186313819833" y="350.14133978689796" width="18.804597701149426" height="1.2907801418439715" fill="#00002e" class="pianoroll"></rect><rect x="1528.3186313819833" y="200.05603173002584" width="18.804597701149426" height="1.2907801418439715" fill="#00143c" class="pianoroll"></rect><rect x="1528.3186313819833" y="194.8806762797889" width="18.804597701149426" height="1.2907801418439715" fill="#00143c" class="pianoroll"></rect><rect x="1528.3186313819833" y="188.4114819669927" width="18.804597701149426" height="1.2907801418439715" fill="#00002e" class="pianoroll"></rect><rect x="1528.3186313819833" y="184.52996537931497" width="18.804597701149426" height="1.2907801418439715" fill="#00002e" class="pianoroll"></rect><rect x="1566.3651430098905" y="725.354609929078" width="18.804597701149426" height="1.2907801418439715" fill="#3f5688" class="pianoroll"></rect><rect x="1566.3651430098905" y="544.2171691707842" width="18.804597701149426" height="1.2907801418439715" fill="#3f5688" class="pianoroll"></rect><rect x="1566.3651430098905" y="357.90437296225343" width="18.804597701149426" height="1.2907801418439715" fill="#4f6598" class="pianoroll"></rect><rect x="1566.3651430098905" y="354.02285637457567" width="18.804597701149426" height="1.2907801418439715" fill="#3f5688" class="pianoroll"></rect><rect x="1566.3651430098905" y="347.55366206177945" width="18.804597701149426" height="1.2907801418439715" fill="#3f5688" class="pianoroll"></rect><rect x="1566.3651430098905" y="197.46835400490738" width="18.804597701149426" height="1.2907801418439715" fill="#4f6598" class="pianoroll"></rect><rect x="1566.3651430098905" y="192.29299855467045" width="18.804597701149426" height="1.2907801418439715" fill="#4f6598" class="pianoroll"></rect><rect x="1566.3651430098905" y="188.4114819669927" width="18.804597701149426" height="1.2907801418439715" fill="#3f5688" class="pianoroll"></rect><rect x="1566.3651430098905" y="181.94228765419652" width="18.804597701149426" height="1.2907801418439715" fill="#3f5688" class="pianoroll"></rect><rect x="1585.388398823844" y="725.354609929078" width="18.804597701149426" height="1.2907801418439715" fill="#3f5688" class="pianoroll"></rect><rect x="1585.388398823844" y="544.2171691707842" width="18.804597701149426" height="1.2907801418439715" fill="#3f5688" class="pianoroll"></rect><rect x="1585.388398823844" y="357.90437296225343" width="18.804597701149426" height="1.2907801418439715" fill="#4f6598" class="pianoroll"></rect><rect x="1585.388398823844" y="354.02285637457567" width="18.804597701149426" height="1.2907801418439715" fill="#3f5688" class="pianoroll"></rect><rect x="1585.388398823844" y="347.55366206177945" width="18.804597701149426" height="1.2907801418439715" fill="#3f5688" class="pianoroll"></rect><rect x="1585.388398823844" y="197.46835400490738" width="18.804597701149426" height="1.2907801418439715" fill="#4f6598" class="pianoroll"></rect><rect x="1585.388398823844" y="192.29299855467045" width="18.804597701149426" height="1.2907801418439715" fill="#4f6598" class="pianoroll"></rect><rect x="1585.388398823844" y="188.4114819669927" width="18.804597701149426" height="1.2907801418439715" fill="#3f5688" class="pianoroll"></rect><rect x="1585.388398823844" y="181.94228765419652" width="18.804597701149426" height="1.2907801418439715" fill="#3f5688" class="pianoroll"></rect><rect x="1604.4116546377973" y="725.354609929078" width="18.804597701149426" height="1.2907801418439715" fill="#3f5688" class="pianoroll"></rect><rect x="1604.4116546377973" y="544.2171691707842" width="18.804597701149426" height="1.2907801418439715" fill="#3f5688" class="pianoroll"></rect><rect x="1604.4116546377973" y="357.90437296225343" width="18.804597701149426" height="1.2907801418439715" fill="#4f6598" class="pianoroll"></rect><rect x="1604.4116546377973" y="354.02285637457567" width="18.804597701149426" height="1.2907801418439715" fill="#3f5688" class="pianoroll"></rect><rect x="1604.4116546377973" y="347.55366206177945" width="18.804597701149426" height="1.2907801418439715" fill="#3f5688" class="pianoroll"></rect><rect x="1604.4116546377973" y="197.46835400490738" width="18.804597701149426" height="1.2907801418439715" fill="#4f6598" class="pianoroll"></rect><rect x="1604.4116546377973" y="192.29299855467045" width="18.804597701149426" height="1.2907801418439715" fill="#4f6598" class="pianoroll"></rect><rect x="1604.4116546377973" y="188.4114819669927" width="18.804597701149426" height="1.2907801418439715" fill="#3f5688" class="pianoroll"></rect><rect x="1604.4116546377973" y="181.94228765419652" width="18.804597701149426" height="1.2907801418439715" fill="#3f5688" class="pianoroll"></rect><rect x="1642.4581662657044" y="720.179254478841" width="18.804597701149426" height="1.2907801418439715" fill="#6075a8" class="pianoroll"></rect><rect x="1642.4581662657044" y="539.0418137205472" width="18.804597701149426" height="1.2907801418439715" fill="#6075a8" class="pianoroll"></rect><rect x="1642.4581662657044" y="369.54892272528656" width="18.804597701149426" height="1.2907801418439715" fill="#7084b9" class="pianoroll"></rect><rect x="1642.4581662657044" y="363.07972841249034" width="18.804597701149426" height="1.2907801418439715" fill="#6075a8" class="pianoroll"></rect><rect x="1642.4581662657044" y="354.02285637457567" width="18.804597701149426" height="1.2907801418439715" fill="#6075a8" class="pianoroll"></rect><rect x="1642.4581662657044" y="207.81906490538134" width="18.804597701149426" height="1.2907801418439715" fill="#7084b9" class="pianoroll"></rect><rect x="1642.4581662657044" y="203.93754831770357" width="18.804597701149426" height="1.2907801418439715" fill="#7084b9" class="pianoroll"></rect><rect x="1642.4581662657044" y="197.46835400490738" width="18.804597701149426" height="1.2907801418439715" fill="#6075a8" class="pianoroll"></rect><rect x="1642.4581662657044" y="188.4114819669927" width="18.804597701149426" height="1.2907801418439715" fill="#6075a8" class="pianoroll"></rect><rect x="1661.481422079658" y="720.179254478841" width="18.804597701149426" height="1.2907801418439715" fill="#6075a8" class="pianoroll"></rect><rect x="1661.481422079658" y="539.0418137205472" width="18.804597701149426" height="1.2907801418439715" fill="#6075a8" class="pianoroll"></rect><rect x="1661.481422079658" y="369.54892272528656" width="18.804597701149426" height="1.2907801418439715" fill="#7084b9" class="pianoroll"></rect><rect x="1661.481422079658" y="363.07972841249034" width="18.804597701149426" height="1.2907801418439715" fill="#6075a8" class="pianoroll"></rect><rect x="1661.481422079658" y="354.02285637457567" width="18.804597701149426" height="1.2907801418439715" fill="#6075a8" class="pianoroll"></rect><rect x="1661.481422079658" y="207.81906490538134" width="18.804597701149426" height="1.2907801418439715" fill="#7084b9" class="pianoroll"></rect><rect x="1661.481422079658" y="203.93754831770357" width="18.804597701149426" height="1.2907801418439715" fill="#7084b9" class="pianoroll"></rect><rect x="1661.481422079658" y="197.46835400490738" width="18.804597701149426" height="1.2907801418439715" fill="#6075a8" class="pianoroll"></rect><rect x="1661.481422079658" y="188.4114819669927" width="18.804597701149426" height="1.2907801418439715" fill="#6075a8" class="pianoroll"></rect><rect x="1680.5046778936114" y="720.179254478841" width="18.804597701149426" height="1.2907801418439715" fill="#6075a8" class="pianoroll"></rect><rect x="1680.5046778936114" y="539.0418137205472" width="18.804597701149426" height="1.2907801418439715" fill="#6075a8" class="pianoroll"></rect><rect x="1680.5046778936114" y="369.54892272528656" width="18.804597701149426" height="1.2907801418439715" fill="#7084b9" class="pianoroll"></rect><rect x="1680.5046778936114" y="363.07972841249034" width="18.804597701149426" height="1.2907801418439715" fill="#6075a8" class="pianoroll"></rect><rect x="1680.5046778936114" y="354.02285637457567" width="18.804597701149426" height="1.2907801418439715" fill="#6075a8" class="pianoroll"></rect><rect x="1680.5046778936114" y="207.81906490538134" width="18.804597701149426" height="1.2907801418439715" fill="#7084b9" class="pianoroll"></rect><rect x="1680.5046778936114" y="203.93754831770357" width="18.804597701149426" height="1.2907801418439715" fill="#7084b9" class="pianoroll"></rect><rect x="1680.5046778936114" y="197.46835400490738" width="18.804597701149426" height="1.2907801418439715" fill="#6075a8" class="pianoroll"></rect><rect x="1680.5046778936114" y="188.4114819669927" width="18.804597701149426" height="1.2907801418439715" fill="#6075a8" class="pianoroll"></rect><rect x="1718.5511895215184" y="718.8854156162818" width="18.804597701149426" height="1.2907801418439715" fill="#91a4dc" class="pianoroll"></rect><rect x="1718.5511895215184" y="537.747974857988" width="18.804597701149426" height="1.2907801418439715" fill="#91a4dc" class="pianoroll"></rect><rect x="1718.5511895215184" y="366.9612450001681" width="18.804597701149426" height="1.2907801418439715" fill="#a2b5ed" class="pianoroll"></rect><rect x="1718.5511895215184" y="363.07972841249034" width="18.804597701149426" height="1.2907801418439715" fill="#91a4dc" class="pianoroll"></rect><rect x="1718.5511895215184" y="356.6105340996941" width="18.804597701149426" height="1.2907801418439715" fill="#91a4dc" class="pianoroll"></rect><rect x="1718.5511895215184" y="206.52522604282208" width="18.804597701149426" height="1.2907801418439715" fill="#a2b5ed" class="pianoroll"></rect><rect x="1718.5511895215184" y="201.34987059258515" width="18.804597701149426" height="1.2907801418439715" fill="#a2b5ed" class="pianoroll"></rect><rect x="1718.5511895215184" y="197.46835400490738" width="18.804597701149426" height="1.2907801418439715" fill="#91a4dc" class="pianoroll"></rect><rect x="1718.5511895215184" y="190.99915969211122" width="18.804597701149426" height="1.2907801418439715" fill="#91a4dc" class="pianoroll"></rect><rect x="1737.5744453354719" y="718.8854156162818" width="18.804597701149426" height="1.2907801418439715" fill="#91a4dc" class="pianoroll"></rect><rect x="1737.5744453354719" y="537.747974857988" width="18.804597701149426" height="1.2907801418439715" fill="#91a4dc" class="pianoroll"></rect><rect x="1737.5744453354719" y="366.9612450001681" width="18.804597701149426" height="1.2907801418439715" fill="#a2b5ed" class="pianoroll"></rect><rect x="1737.5744453354719" y="363.07972841249034" width="18.804597701149426" height="1.2907801418439715" fill="#91a4dc" class="pianoroll"></rect><rect x="1737.5744453354719" y="356.6105340996941" width="18.804597701149426" height="1.2907801418439715" fill="#91a4dc" class="pianoroll"></rect><rect x="1737.5744453354719" y="206.52522604282208" width="18.804597701149426" height="1.2907801418439715" fill="#a2b5ed" class="pianoroll"></rect><rect x="1737.5744453354719" y="201.34987059258515" width="18.804597701149426" height="1.2907801418439715" fill="#a2b5ed" class="pianoroll"></rect><rect x="1737.5744453354719" y="197.46835400490738" width="18.804597701149426" height="1.2907801418439715" fill="#91a4dc" class="pianoroll"></rect><rect x="1737.5744453354719" y="190.99915969211122" width="18.804597701149426" height="1.2907801418439715" fill="#91a4dc" class="pianoroll"></rect><rect x="1756.5977011494253" y="718.8854156162818" width="18.804597701149426" height="1.2907801418439715" fill="#91a4dc" class="pianoroll"></rect><rect x="1756.5977011494253" y="537.747974857988" width="18.804597701149426" height="1.2907801418439715" fill="#91a4dc" class="pianoroll"></rect><rect x="1756.5977011494253" y="366.9612450001681" width="18.804597701149426" height="1.2907801418439715" fill="#a2b5ed" class="pianoroll"></rect><rect x="1756.5977011494253" y="363.07972841249034" width="18.804597701149426" height="1.2907801418439715" fill="#91a4dc" class="pianoroll"></rect><rect x="1756.5977011494253" y="356.6105340996941" width="18.804597701149426" height="1.2907801418439715" fill="#91a4dc" class="pianoroll"></rect><rect x="1756.5977011494253" y="206.52522604282208" width="18.804597701149426" height="1.2907801418439715" fill="#a2b5ed" class="pianoroll"></rect><rect x="1756.5977011494253" y="201.34987059258515" width="18.804597701149426" height="1.2907801418439715" fill="#a2b5ed" class="pianoroll"></rect><rect x="1756.5977011494253" y="197.46835400490738" width="18.804597701149426" height="1.2907801418439715" fill="#91a4dc" class="pianoroll"></rect><rect x="1756.5977011494253" y="190.99915969211122" width="18.804597701149426" height="1.2907801418439715" fill="#91a4dc" class="pianoroll"></rect></svg>
