<svg class="graph" width="831" height="424"><defs><linearGradient id="gradient-rainbow-colors" x1="0%" y1="0%" x2="100%" y2="0%"><stop offset="0" stop-color="#b3c6ff"></stop><stop offset="1" stop-color="#000000"></stop></linearGradient></defs><g class="axis" transform="translate(0,244.05200945626478)"><g class="tick" style="opacity: 1;" transform="translate(130,0)"><line y2="6" x2="0"></line><text dy=".71em" style="text-anchor: middle;" y="9" x="0">0</text></g><g class="tick" style="opacity: 1;" transform="translate(163.19767441860466,0)"><line y2="6" x2="0"></line><text dy=".71em" style="text-anchor: middle;" y="9" x="0">5</text></g><g class="tick" style="opacity: 1;" transform="translate(196.3953488372093,0)"><line y2="6" x2="0"></line><text dy=".71em" style="text-anchor: middle;" y="9" x="0">10</text></g><g class="tick" style="opacity: 1;" transform="translate(229.59302325581396,0)"><line y2="6" x2="0"></line><text dy=".71em" style="text-anchor: middle;" y="9" x="0">15</text></g><g class="tick" style="opacity: 1;" transform="translate(262.7906976744186,0)"><line y2="6" x2="0"></line><text dy=".71em" style="text-anchor: middle;" y="9" x="0">20</text></g><g class="tick" style="opacity: 1;" transform="translate(295.98837209302326,0)"><line y2="6" x2="0"></line><text dy=".71em" style="text-anchor: middle;" y="9" x="0">25</text></g><g class="tick" style="opacity: 1;" transform="translate(329.1860465116279,0)"><line y2="6" x2="0"></line><text dy=".71em" style="text-anchor: middle;" y="9" x="0">30</text></g><g class="tick" style="opacity: 1;" transform="translate(362.3837209302325,0)"><line y2="6" x2="0"></line><text dy=".71em" style="text-anchor: middle;" y="9" x="0">35</text></g><g class="tick" style="opacity: 1;" transform="translate(395.5813953488372,0)"><line y2="6" x2="0"></line><text dy=".71em" style="text-anchor: middle;" y="9" x="0">40</text></g><g class="tick" style="opacity: 1;" transform="translate(428.7790697674419,0)"><line y2="6" x2="0"></line><text dy=".71em" style="text-anchor: middle;" y="9" x="0">45</text></g><g class="tick" style="opacity: 1;" transform="translate(461.9767441860466,0)"><line y2="6" x2="0"></line><text dy=".71em" style="text-anchor: middle;" y="9" x="0">50</text></g><g class="tick" style="opacity: 1;" transform="translate(495.1744186046512,0)"><line y2="6" x2="0"></line><text dy=".71em" style="text-anchor: middle;" y="9" x="0">55</text></g><g class="tick" style="opacity: 1;" transform="translate(528.3720930232558,0)"><line y2="6" x2="0"></line><text dy=".71em" style="text-anchor: middle;" y="9" x="0">60</text></g><g class="tick" style="opacity: 1;" transform="translate(561.5697674418604,0)"><line y2="6" x2="0"></line><text dy=".71em" style="text-anchor: middle;" y="9" x="0">65</text></g><g class="tick" style="opacity: 1;" transform="translate(594.767441860465,0)"><line y2="6" x2="0"></line><text dy=".71em" style="text-anchor: middle;" y="9" x="0">70</text></g><g class="tick" style="opacity: 1;" transform="translate(627.9651162790698,0)"><line y2="6" x2="0"></line><text dy=".71em" style="text-anchor: middle;" y="9" x="0">75</text></g><g class="tick" style="opacity: 1;" transform="translate(661.1627906976744,0)"><line y2="6" x2="0"></line><text dy=".71em" style="text-anchor: middle;" y="9" x="0">80</text></g><g class="tick" style="opacity: 1;" transform="translate(694.3604651162791,0)"><line y2="6" x2="0"></line><text dy=".71em" style="text-anchor: middle;" y="9" x="0">85</text></g><path class="domain" d="M130,6V0H701V6"></path></g><text class="legendTitle" x="671" y="294">Time</text><g class="axis" transform="translate(123.4367816091954,0)"><g class="tick" style="opacity: 1;" transform="translate(0,222.5402843601896)"><line x2="-6" y2="0"></line><text dy=".32em" style="text-anchor: end;" x="-9" y="0">50</text></g><g class="tick" style="opacity: 1;" transform="translate(0,217.32701421800948)"><line x2="-6" y2="0"></line><text dy=".32em" style="text-anchor: end;" x="-9" y="0">100</text></g><g class="tick" style="opacity: 1;" transform="translate(0,212.1137440758294)"><line x2="-6" y2="0"></line><text dy=".32em" style="text-anchor: end;" x="-9" y="0">150</text></g><g class="tick" style="opacity: 1;" transform="translate(0,206.90047393364927)"><line x2="-6" y2="0"></line><text dy=".32em" style="text-anchor: end;" x="-9" y="0">200</text></g><g class="tick" style="opacity: 1;" transform="translate(0,201.6872037914692)"><line x2="-6" y2="0"></line><text dy=".32em" style="text-anchor: end;" x="-9" y="0">250</text></g><g class="tick" style="opacity: 1;" transform="translate(0,196.4739336492891)"><line x2="-6" y2="0"></line><text dy=".32em" style="text-anchor: end;" x="-9" y="0">300</text></g><g class="tick" style="opacity: 1;" transform="translate(0,191.260663507109)"><line x2="-6" y2="0"></line><text dy=".32em" style="text-anchor: end;" x="-9" y="0">350</text></g><g class="tick" style="opacity: 1;" transform="translate(0,186.0473933649289)"><line x2="-6" y2="0"></line><text dy=".32em" style="text-anchor: end;" x="-9" y="0">400</text></g><g class="tick" style="opacity: 1;" transform="translate(0,180.83412322274881)"><line x2="-6" y2="0"></line><text dy=".32em" style="text-anchor: end;" x="-9" y="0">450</text></g><path class="domain" d="M-6,180H0V224H-6"></path></g><text class="legendTitle" x="100" y="170">Pitch</text><text class="title" x="480.5" y="50" text-anchor="middle">temp.csv</text><text class="title" x="480.5" y="100" text-anchor="middle">Min Z : 83 Max Z : 96</text><rect x="126.7183908045977" y="194.02381992762147" width="6.563218390804598" height="0.10401891252955082" fill="#00002e" class="pianoroll"></rect><rect x="133.35792568831863" y="194.02381992762147" width="6.563218390804598" height="0.10401891252955082" fill="#00002e" class="pianoroll"></rect><rect x="139.99746057203956" y="194.02381992762147" width="6.563218390804598" height="0.10401891252955082" fill="#00002e" class="pianoroll"></rect><rect x="153.27653033948144" y="194.2323507333087" width="6.563218390804598" height="0.10401891252955082" fill="#00002e" class="pianoroll"></rect><rect x="159.91606522320237" y="194.2323507333087" width="6.563218390804598" height="0.10401891252955082" fill="#00002e" class="pianoroll"></rect><rect x="166.5556001069233" y="194.2323507333087" width="6.563218390804598" height="0.10401891252955082" fill="#00002e" class="pianoroll"></rect><rect x="179.83466987436515" y="193.7110237190907" width="6.563218390804598" height="0.10401891252955082" fill="#00002e" class="pianoroll"></rect><rect x="186.47420475808607" y="193.7110237190907" width="6.563218390804598" height="0.10401891252955082" fill="#00002e" class="pianoroll"></rect><rect x="193.113739641807" y="193.7110237190907" width="6.563218390804598" height="0.10401891252955082" fill="#00002e" class="pianoroll"></rect><rect x="206.39280940924888" y="193.50249291340347" width="6.563218390804598" height="0.10401891252955082" fill="#00002e" class="pianoroll"></rect><rect x="213.03234429296978" y="193.50249291340347" width="6.563218390804598" height="0.10401891252955082" fill="#00002e" class="pianoroll"></rect><rect x="219.67187917669074" y="192.98116589918544" width="6.563218390804598" height="0.10401891252955082" fill="#b3c6ff" class="pianoroll"></rect><rect x="226.31141406041166" y="192.98116589918544" width="6.563218390804598" height="0.10401891252955082" fill="#b3c6ff" class="pianoroll"></rect><rect x="232.9509489441326" y="193.29396210771625" width="6.563218390804598" height="0.10401891252955082" fill="#00002e" class="pianoroll"></rect><rect x="239.5904838278535" y="193.29396210771625" width="6.563218390804598" height="0.10401891252955082" fill="#00002e" class="pianoroll"></rect><rect x="246.23001871157444" y="193.29396210771625" width="6.563218390804598" height="0.10401891252955082" fill="#00002e" class="pianoroll"></rect><rect x="259.50908847901627" y="193.50249291340347" width="6.563218390804598" height="0.10401891252955082" fill="#00002e" class="pianoroll"></rect><rect x="266.1486233627372" y="193.50249291340347" width="6.563218390804598" height="0.10401891252955082" fill="#00002e" class="pianoroll"></rect><rect x="272.7881582464581" y="192.98116589918544" width="6.563218390804598" height="0.10401891252955082" fill="#b3c6ff" class="pianoroll"></rect><rect x="279.427693130179" y="192.98116589918544" width="6.563218390804598" height="0.10401891252955082" fill="#b3c6ff" class="pianoroll"></rect><rect x="286.0672280139" y="193.29396210771625" width="6.563218390804598" height="0.10401891252955082" fill="#00002e" class="pianoroll"></rect><rect x="292.70676289762093" y="193.29396210771625" width="6.563218390804598" height="0.10401891252955082" fill="#00002e" class="pianoroll"></rect><rect x="299.34629778134183" y="193.29396210771625" width="6.563218390804598" height="0.10401891252955082" fill="#00002e" class="pianoroll"></rect><rect x="312.62536754878374" y="193.7110237190907" width="6.563218390804598" height="0.10401891252955082" fill="#00002e" class="pianoroll"></rect><rect x="319.26490243250464" y="193.7110237190907" width="6.563218390804598" height="0.10401891252955082" fill="#00002e" class="pianoroll"></rect><rect x="325.9044373162256" y="193.7110237190907" width="6.563218390804598" height="0.10401891252955082" fill="#00002e" class="pianoroll"></rect><rect x="339.18350708366745" y="193.50249291340347" width="6.563218390804598" height="0.10401891252955082" fill="#00002e" class="pianoroll"></rect><rect x="345.82304196738835" y="193.50249291340347" width="6.563218390804598" height="0.10401891252955082" fill="#00002e" class="pianoroll"></rect><rect x="352.46257685110925" y="193.50249291340347" width="6.563218390804598" height="0.10401891252955082" fill="#00002e" class="pianoroll"></rect><rect x="365.74164661855116" y="194.02381992762147" width="6.563218390804598" height="0.10401891252955082" fill="#00002e" class="pianoroll"></rect><rect x="372.38118150227206" y="194.02381992762147" width="6.563218390804598" height="0.10401891252955082" fill="#00002e" class="pianoroll"></rect><rect x="379.020716385993" y="194.02381992762147" width="6.563218390804598" height="0.10401891252955082" fill="#00002e" class="pianoroll"></rect><rect x="392.29978615343487" y="194.2323507333087" width="6.563218390804598" height="0.10401891252955082" fill="#00002e" class="pianoroll"></rect><rect x="398.9393210371558" y="194.2323507333087" width="6.563218390804598" height="0.10401891252955082" fill="#00002e" class="pianoroll"></rect><rect x="405.5788559208767" y="194.2323507333087" width="6.563218390804598" height="0.10401891252955082" fill="#00002e" class="pianoroll"></rect><rect x="418.85792568831863" y="223.21813272383" width="6.563218390804598" height="0.10401891252955082" fill="#00002e" class="pianoroll"></rect><rect x="418.85792568831863" y="208.62097632572574" width="6.563218390804598" height="0.10401891252955082" fill="#00002e" class="pianoroll"></rect><rect x="418.85792568831863" y="194.96220855321388" width="6.563218390804598" height="0.10401891252955082" fill="#00143c" class="pianoroll"></rect><rect x="418.85792568831863" y="194.54514694183948" width="6.563218390804598" height="0.10401891252955082" fill="#00002e" class="pianoroll"></rect><rect x="418.85792568831863" y="194.02381992762147" width="6.563218390804598" height="0.10401891252955082" fill="#00002e" class="pianoroll"></rect><rect x="418.85792568831863" y="181.92903319776366" width="6.563218390804598" height="0.10401891252955082" fill="#00143c" class="pianoroll"></rect><rect x="418.85792568831863" y="181.61623698923285" width="6.563218390804598" height="0.10401891252955082" fill="#00143c" class="pianoroll"></rect><rect x="418.85792568831863" y="181.19917537785844" width="6.563218390804598" height="0.10401891252955082" fill="#00002e" class="pianoroll"></rect><rect x="418.85792568831863" y="180.67784836364044" width="6.563218390804598" height="0.10401891252955082" fill="#00002e" class="pianoroll"></rect><rect x="425.4974605720396" y="223.21813272383" width="6.563218390804598" height="0.10401891252955082" fill="#00002e" class="pianoroll"></rect><rect x="425.4974605720396" y="208.62097632572574" width="6.563218390804598" height="0.10401891252955082" fill="#00002e" class="pianoroll"></rect><rect x="425.4974605720396" y="194.96220855321388" width="6.563218390804598" height="0.10401891252955082" fill="#00143c" class="pianoroll"></rect><rect x="425.4974605720396" y="194.54514694183948" width="6.563218390804598" height="0.10401891252955082" fill="#00002e" class="pianoroll"></rect><rect x="425.4974605720396" y="194.02381992762147" width="6.563218390804598" height="0.10401891252955082" fill="#00002e" class="pianoroll"></rect><rect x="425.4974605720396" y="181.92903319776366" width="6.563218390804598" height="0.10401891252955082" fill="#00143c" class="pianoroll"></rect><rect x="425.4974605720396" y="181.61623698923285" width="6.563218390804598" height="0.10401891252955082" fill="#00143c" class="pianoroll"></rect><rect x="425.4974605720396" y="181.19917537785844" width="6.563218390804598" height="0.10401891252955082" fill="#00002e" class="pianoroll"></rect><rect x="425.4974605720396" y="180.67784836364044" width="6.563218390804598" height="0.10401891252955082" fill="#00002e" class="pianoroll"></rect><rect x="432.1369954557604" y="223.21813272383" width="6.563218390804598" height="0.10401891252955082" fill="#00002e" class="pianoroll"></rect><rect x="432.1369954557604" y="208.62097632572574" width="6.563218390804598" height="0.10401891252955082" fill="#00002e" class="pianoroll"></rect><rect x="432.1369954557604" y="194.96220855321388" width="6.563218390804598" height="0.10401891252955082" fill="#00143c" class="pianoroll"></rect><rect x="432.1369954557604" y="194.54514694183948" width="6.563218390804598" height="0.10401891252955082" fill="#00002e" class="pianoroll"></rect><rect x="432.1369954557604" y="194.02381992762147" width="6.563218390804598" height="0.10401891252955082" fill="#00002e" class="pianoroll"></rect><rect x="432.1369954557604" y="181.92903319776366" width="6.563218390804598" height="0.10401891252955082" fill="#00143c" class="pianoroll"></rect><rect x="432.1369954557604" y="181.61623698923285" width="6.563218390804598" height="0.10401891252955082" fill="#00143c" class="pianoroll"></rect><rect x="432.1369954557604" y="181.19917537785844" width="6.563218390804598" height="0.10401891252955082" fill="#00002e" class="pianoroll"></rect><rect x="432.1369954557604" y="180.67784836364044" width="6.563218390804598" height="0.10401891252955082" fill="#00002e" class="pianoroll"></rect><rect x="445.41606522320234" y="223.00960191814278" width="6.563218390804598" height="0.10401891252955082" fill="#00002e" class="pianoroll"></rect><rect x="445.41606522320234" y="208.82950713141292" width="6.563218390804598" height="0.10401891252955082" fill="#00002e" class="pianoroll"></rect><rect x="445.41606522320234" y="195.0664739560575" width="6.563218390804598" height="0.10401891252955082" fill="#00143c" class="pianoroll"></rect><rect x="445.41606522320234" y="194.7536777475267" width="6.563218390804598" height="0.10401891252955082" fill="#00002e" class="pianoroll"></rect><rect x="445.41606522320234" y="194.2323507333087" width="6.563218390804598" height="0.10401891252955082" fill="#00002e" class="pianoroll"></rect><rect x="445.41606522320234" y="182.13756400345085" width="6.563218390804598" height="0.10401891252955082" fill="#00143c" class="pianoroll"></rect><rect x="445.41606522320234" y="181.72050239207647" width="6.563218390804598" height="0.10401891252955082" fill="#00143c" class="pianoroll"></rect><rect x="445.41606522320234" y="181.40770618354563" width="6.563218390804598" height="0.10401891252955082" fill="#00002e" class="pianoroll"></rect><rect x="445.41606522320234" y="180.88637916932765" width="6.563218390804598" height="0.10401891252955082" fill="#00002e" class="pianoroll"></rect><rect x="452.0556001069233" y="223.00960191814278" width="6.563218390804598" height="0.10401891252955082" fill="#00002e" class="pianoroll"></rect><rect x="452.0556001069233" y="208.82950713141292" width="6.563218390804598" height="0.10401891252955082" fill="#00002e" class="pianoroll"></rect><rect x="452.0556001069233" y="195.0664739560575" width="6.563218390804598" height="0.10401891252955082" fill="#00143c" class="pianoroll"></rect><rect x="452.0556001069233" y="194.7536777475267" width="6.563218390804598" height="0.10401891252955082" fill="#00002e" class="pianoroll"></rect><rect x="452.0556001069233" y="194.2323507333087" width="6.563218390804598" height="0.10401891252955082" fill="#00002e" class="pianoroll"></rect><rect x="452.0556001069233" y="182.13756400345085" width="6.563218390804598" height="0.10401891252955082" fill="#00143c" class="pianoroll"></rect><rect x="452.0556001069233" y="181.72050239207647" width="6.563218390804598" height="0.10401891252955082" fill="#00143c" class="pianoroll"></rect><rect x="452.0556001069233" y="181.40770618354563" width="6.563218390804598" height="0.10401891252955082" fill="#00002e" class="pianoroll"></rect><rect x="452.0556001069233" y="180.88637916932765" width="6.563218390804598" height="0.10401891252955082" fill="#00002e" class="pianoroll"></rect><rect x="458.69513499064425" y="223.00960191814278" width="6.563218390804598" height="0.10401891252955082" fill="#00002e" class="pianoroll"></rect><rect x="458.69513499064425" y="208.82950713141292" width="6.563218390804598" height="0.10401891252955082" fill="#00002e" class="pianoroll"></rect><rect x="458.69513499064425" y="195.0664739560575" width="6.563218390804598" height="0.10401891252955082" fill="#00143c" class="pianoroll"></rect><rect x="458.69513499064425" y="194.7536777475267" width="6.563218390804598" height="0.10401891252955082" fill="#00002e" class="pianoroll"></rect><rect x="458.69513499064425" y="194.2323507333087" width="6.563218390804598" height="0.10401891252955082" fill="#00002e" class="pianoroll"></rect><rect x="458.69513499064425" y="182.13756400345085" width="6.563218390804598" height="0.10401891252955082" fill="#00143c" class="pianoroll"></rect><rect x="458.69513499064425" y="181.72050239207647" width="6.563218390804598" height="0.10401891252955082" fill="#00143c" class="pianoroll"></rect><rect x="458.69513499064425" y="181.40770618354563" width="6.563218390804598" height="0.10401891252955082" fill="#00002e" class="pianoroll"></rect><rect x="458.69513499064425" y="180.88637916932765" width="6.563218390804598" height="0.10401891252955082" fill="#00002e" class="pianoroll"></rect><rect x="471.97420475808605" y="223.21813272383" width="6.563218390804598" height="0.10401891252955082" fill="#00002e" class="pianoroll"></rect><rect x="471.97420475808605" y="208.62097632572574" width="6.563218390804598" height="0.10401891252955082" fill="#00002e" class="pianoroll"></rect><rect x="471.97420475808605" y="194.96220855321388" width="6.563218390804598" height="0.10401891252955082" fill="#00143c" class="pianoroll"></rect><rect x="471.97420475808605" y="194.54514694183948" width="6.563218390804598" height="0.10401891252955082" fill="#00002e" class="pianoroll"></rect><rect x="471.97420475808605" y="193.7110237190907" width="6.563218390804598" height="0.10401891252955082" fill="#00002e" class="pianoroll"></rect><rect x="471.97420475808605" y="181.61623698923285" width="6.563218390804598" height="0.10401891252955082" fill="#00143c" class="pianoroll"></rect><rect x="471.97420475808605" y="181.19917537785844" width="6.563218390804598" height="0.10401891252955082" fill="#00143c" class="pianoroll"></rect><rect x="471.97420475808605" y="180.67784836364044" width="6.563218390804598" height="0.10401891252955082" fill="#00002e" class="pianoroll"></rect><rect x="471.97420475808605" y="180.36505215510962" width="6.563218390804598" height="0.10401891252955082" fill="#00002e" class="pianoroll"></rect><rect x="478.613739641807" y="223.21813272383" width="6.563218390804598" height="0.10401891252955082" fill="#00002e" class="pianoroll"></rect><rect x="478.613739641807" y="208.62097632572574" width="6.563218390804598" height="0.10401891252955082" fill="#00002e" class="pianoroll"></rect><rect x="478.613739641807" y="194.96220855321388" width="6.563218390804598" height="0.10401891252955082" fill="#00143c" class="pianoroll"></rect><rect x="478.613739641807" y="194.54514694183948" width="6.563218390804598" height="0.10401891252955082" fill="#00002e" class="pianoroll"></rect><rect x="478.613739641807" y="193.7110237190907" width="6.563218390804598" height="0.10401891252955082" fill="#00002e" class="pianoroll"></rect><rect x="478.613739641807" y="181.61623698923285" width="6.563218390804598" height="0.10401891252955082" fill="#00143c" class="pianoroll"></rect><rect x="478.613739641807" y="181.19917537785844" width="6.563218390804598" height="0.10401891252955082" fill="#00143c" class="pianoroll"></rect><rect x="478.613739641807" y="180.67784836364044" width="6.563218390804598" height="0.10401891252955082" fill="#00002e" class="pianoroll"></rect><rect x="478.613739641807" y="180.36505215510962" width="6.563218390804598" height="0.10401891252955082" fill="#00002e" class="pianoroll"></rect><rect x="485.2532745255279" y="223.21813272383" width="6.563218390804598" height="0.10401891252955082" fill="#00002e" class="pianoroll"></rect><rect x="485.2532745255279" y="208.62097632572574" width="6.563218390804598" height="0.10401891252955082" fill="#00002e" class="pianoroll"></rect><rect x="485.2532745255279" y="194.96220855321388" width="6.563218390804598" height="0.10401891252955082" fill="#00143c" class="pianoroll"></rect><rect x="485.2532745255279" y="194.54514694183948" width="6.563218390804598" height="0.10401891252955082" fill="#00002e" class="pianoroll"></rect><rect x="485.2532745255279" y="193.7110237190907" width="6.563218390804598" height="0.10401891252955082" fill="#00002e" class="pianoroll"></rect><rect x="485.2532745255279" y="181.61623698923285" width="6.563218390804598" height="0.10401891252955082" fill="#00143c" class="pianoroll"></rect><rect x="485.2532745255279" y="181.19917537785844" width="6.563218390804598" height="0.10401891252955082" fill="#00143c" class="pianoroll"></rect><rect x="485.2532745255279" y="180.67784836364044" width="6.563218390804598" height="0.10401891252955082" fill="#00002e" class="pianoroll"></rect><rect x="485.2532745255279" y="180.36505215510962" width="6.563218390804598" height="0.10401891252955082" fill="#00002e" class="pianoroll"></rect><rect x="498.53234429296975" y="223.4266635295172" width="6.563218390804598" height="0.10401891252955082" fill="#00002e" class="pianoroll"></rect><rect x="498.53234429296975" y="208.82950713141292" width="6.563218390804598" height="0.10401891252955082" fill="#00002e" class="pianoroll"></rect><rect x="498.53234429296975" y="194.7536777475267" width="6.563218390804598" height="0.10401891252955082" fill="#00143c" class="pianoroll"></rect><rect x="498.53234429296975" y="193.81528912193426" width="6.563218390804598" height="0.10401891252955082" fill="#00002e" class="pianoroll"></rect><rect x="498.53234429296975" y="193.50249291340347" width="6.563218390804598" height="0.10401891252955082" fill="#00002e" class="pianoroll"></rect><rect x="498.53234429296975" y="181.40770618354563" width="6.563218390804598" height="0.10401891252955082" fill="#00143c" class="pianoroll"></rect><rect x="498.53234429296975" y="180.88637916932765" width="6.563218390804598" height="0.10401891252955082" fill="#00143c" class="pianoroll"></rect><rect x="498.53234429296975" y="180.46931755795322" width="6.563218390804598" height="0.10401891252955082" fill="#00002e" class="pianoroll"></rect><rect x="498.53234429296975" y="180.1565213494224" width="6.563218390804598" height="0.10401891252955082" fill="#00002e" class="pianoroll"></rect><rect x="505.1718791766907" y="223.4266635295172" width="6.563218390804598" height="0.10401891252955082" fill="#00002e" class="pianoroll"></rect><rect x="505.1718791766907" y="208.82950713141292" width="6.563218390804598" height="0.10401891252955082" fill="#00002e" class="pianoroll"></rect><rect x="505.1718791766907" y="194.7536777475267" width="6.563218390804598" height="0.10401891252955082" fill="#00143c" class="pianoroll"></rect><rect x="505.1718791766907" y="193.81528912193426" width="6.563218390804598" height="0.10401891252955082" fill="#00002e" class="pianoroll"></rect><rect x="505.1718791766907" y="193.50249291340347" width="6.563218390804598" height="0.10401891252955082" fill="#00002e" class="pianoroll"></rect><rect x="505.1718791766907" y="181.40770618354563" width="6.563218390804598" height="0.10401891252955082" fill="#00143c" class="pianoroll"></rect><rect x="505.1718791766907" y="180.88637916932765" width="6.563218390804598" height="0.10401891252955082" fill="#00143c" class="pianoroll"></rect><rect x="505.1718791766907" y="180.46931755795322" width="6.563218390804598" height="0.10401891252955082" fill="#00002e" class="pianoroll"></rect><rect x="505.1718791766907" y="180.1565213494224" width="6.563218390804598" height="0.10401891252955082" fill="#00002e" class="pianoroll"></rect><rect x="511.8114140604116" y="223.4266635295172" width="6.563218390804598" height="0.10401891252955082" fill="#00002e" class="pianoroll"></rect><rect x="511.8114140604116" y="208.82950713141292" width="6.563218390804598" height="0.10401891252955082" fill="#00002e" class="pianoroll"></rect><rect x="511.8114140604116" y="194.7536777475267" width="6.563218390804598" height="0.10401891252955082" fill="#00143c" class="pianoroll"></rect><rect x="511.8114140604116" y="193.81528912193426" width="6.563218390804598" height="0.10401891252955082" fill="#00002e" class="pianoroll"></rect><rect x="511.8114140604116" y="192.98116589918544" width="6.563218390804598" height="0.10401891252955082" fill="#00143c" class="pianoroll"></rect><rect x="511.8114140604116" y="181.40770618354563" width="6.563218390804598" height="0.10401891252955082" fill="#00143c" class="pianoroll"></rect><rect x="511.8114140604116" y="180.88637916932765" width="6.563218390804598" height="0.10401891252955082" fill="#00143c" class="pianoroll"></rect><rect x="511.8114140604116" y="180.46931755795322" width="6.563218390804598" height="0.10401891252955082" fill="#00002e" class="pianoroll"></rect><rect x="511.8114140604116" y="180.1565213494224" width="6.563218390804598" height="0.10401891252955082" fill="#00002e" class="pianoroll"></rect><rect x="518.4509489441326" y="192.98116589918544" width="6.563218390804598" height="0.10401891252955082" fill="#00143c" class="pianoroll"></rect><rect x="525.0904838278535" y="223.739459738048" width="6.563218390804598" height="0.10401891252955082" fill="#00002e" class="pianoroll"></rect><rect x="525.0904838278535" y="209.14230333994374" width="6.563218390804598" height="0.10401891252955082" fill="#00002e" class="pianoroll"></rect><rect x="525.0904838278535" y="194.2323507333087" width="6.563218390804598" height="0.10401891252955082" fill="#00143c" class="pianoroll"></rect><rect x="525.0904838278535" y="193.81528912193426" width="6.563218390804598" height="0.10401891252955082" fill="#00002e" class="pianoroll"></rect><rect x="525.0904838278535" y="193.29396210771625" width="6.563218390804598" height="0.10401891252955082" fill="#00002e" class="pianoroll"></rect><rect x="525.0904838278535" y="181.19917537785844" width="6.563218390804598" height="0.10401891252955082" fill="#00143c" class="pianoroll"></rect><rect x="525.0904838278535" y="180.88637916932765" width="6.563218390804598" height="0.10401891252955082" fill="#00143c" class="pianoroll"></rect><rect x="525.0904838278535" y="180.46931755795322" width="6.563218390804598" height="0.10401891252955082" fill="#00002e" class="pianoroll"></rect><rect x="525.0904838278535" y="179.94799054373522" width="6.563218390804598" height="0.10401891252955082" fill="#00002e" class="pianoroll"></rect><rect x="531.7300187115744" y="223.739459738048" width="6.563218390804598" height="0.10401891252955082" fill="#00002e" class="pianoroll"></rect><rect x="531.7300187115744" y="209.14230333994374" width="6.563218390804598" height="0.10401891252955082" fill="#00002e" class="pianoroll"></rect><rect x="531.7300187115744" y="194.2323507333087" width="6.563218390804598" height="0.10401891252955082" fill="#00143c" class="pianoroll"></rect><rect x="531.7300187115744" y="193.81528912193426" width="6.563218390804598" height="0.10401891252955082" fill="#00002e" class="pianoroll"></rect><rect x="531.7300187115744" y="193.29396210771625" width="6.563218390804598" height="0.10401891252955082" fill="#00002e" class="pianoroll"></rect><rect x="531.7300187115744" y="181.19917537785844" width="6.563218390804598" height="0.10401891252955082" fill="#00143c" class="pianoroll"></rect><rect x="531.7300187115744" y="180.88637916932765" width="6.563218390804598" height="0.10401891252955082" fill="#00143c" class="pianoroll"></rect><rect x="531.7300187115744" y="180.46931755795322" width="6.563218390804598" height="0.10401891252955082" fill="#00002e" class="pianoroll"></rect><rect x="531.7300187115744" y="179.94799054373522" width="6.563218390804598" height="0.10401891252955082" fill="#00002e" class="pianoroll"></rect><rect x="538.3695535952953" y="223.739459738048" width="6.563218390804598" height="0.10401891252955082" fill="#00002e" class="pianoroll"></rect><rect x="538.3695535952953" y="209.14230333994374" width="6.563218390804598" height="0.10401891252955082" fill="#00002e" class="pianoroll"></rect><rect x="538.3695535952953" y="194.2323507333087" width="6.563218390804598" height="0.10401891252955082" fill="#00143c" class="pianoroll"></rect><rect x="538.3695535952953" y="193.81528912193426" width="6.563218390804598" height="0.10401891252955082" fill="#00002e" class="pianoroll"></rect><rect x="538.3695535952953" y="193.29396210771625" width="6.563218390804598" height="0.10401891252955082" fill="#00002e" class="pianoroll"></rect><rect x="538.3695535952953" y="181.19917537785844" width="6.563218390804598" height="0.10401891252955082" fill="#00143c" class="pianoroll"></rect><rect x="538.3695535952953" y="180.88637916932765" width="6.563218390804598" height="0.10401891252955082" fill="#00143c" class="pianoroll"></rect><rect x="538.3695535952953" y="180.46931755795322" width="6.563218390804598" height="0.10401891252955082" fill="#00002e" class="pianoroll"></rect><rect x="538.3695535952953" y="179.94799054373522" width="6.563218390804598" height="0.10401891252955082" fill="#00002e" class="pianoroll"></rect><rect x="551.6486233627372" y="223.4266635295172" width="6.563218390804598" height="0.10401891252955082" fill="#00002e" class="pianoroll"></rect><rect x="551.6486233627372" y="208.82950713141292" width="6.563218390804598" height="0.10401891252955082" fill="#00002e" class="pianoroll"></rect><rect x="551.6486233627372" y="194.7536777475267" width="6.563218390804598" height="0.10401891252955082" fill="#00143c" class="pianoroll"></rect><rect x="551.6486233627372" y="193.81528912193426" width="6.563218390804598" height="0.10401891252955082" fill="#00002e" class="pianoroll"></rect><rect x="551.6486233627372" y="193.50249291340347" width="6.563218390804598" height="0.10401891252955082" fill="#00002e" class="pianoroll"></rect><rect x="551.6486233627372" y="181.40770618354563" width="6.563218390804598" height="0.10401891252955082" fill="#00143c" class="pianoroll"></rect><rect x="551.6486233627372" y="180.88637916932765" width="6.563218390804598" height="0.10401891252955082" fill="#00143c" class="pianoroll"></rect><rect x="551.6486233627372" y="180.46931755795322" width="6.563218390804598" height="0.10401891252955082" fill="#00002e" class="pianoroll"></rect><rect x="551.6486233627372" y="180.1565213494224" width="6.563218390804598" height="0.10401891252955082" fill="#00002e" class="pianoroll"></rect><rect x="558.2881582464581" y="223.4266635295172" width="6.563218390804598" height="0.10401891252955082" fill="#00002e" class="pianoroll"></rect><rect x="558.2881582464581" y="208.82950713141292" width="6.563218390804598" height="0.10401891252955082" fill="#00002e" class="pianoroll"></rect><rect x="558.2881582464581" y="194.7536777475267" width="6.563218390804598" height="0.10401891252955082" fill="#00143c" class="pianoroll"></rect><rect x="558.2881582464581" y="193.81528912193426" width="6.563218390804598" height="0.10401891252955082" fill="#00002e" class="pianoroll"></rect><rect x="558.2881582464581" y="193.50249291340347" width="6.563218390804598" height="0.10401891252955082" fill="#00002e" class="pianoroll"></rect><rect x="558.2881582464581" y="181.40770618354563" width="6.563218390804598" height="0.10401891252955082" fill="#00143c" class="pianoroll"></rect><rect x="558.2881582464581" y="180.88637916932765" width="6.563218390804598" height="0.10401891252955082" fill="#00143c" class="pianoroll"></rect><rect x="558.2881582464581" y="180.46931755795322" width="6.563218390804598" height="0.10401891252955082" fill="#00002e" class="pianoroll"></rect><rect x="558.2881582464581" y="180.1565213494224" width="6.563218390804598" height="0.10401891252955082" fill="#00002e" class="pianoroll"></rect><rect x="564.927693130179" y="223.4266635295172" width="6.563218390804598" height="0.10401891252955082" fill="#00002e" class="pianoroll"></rect><rect x="564.927693130179" y="208.82950713141292" width="6.563218390804598" height="0.10401891252955082" fill="#00002e" class="pianoroll"></rect><rect x="564.927693130179" y="194.7536777475267" width="6.563218390804598" height="0.10401891252955082" fill="#00143c" class="pianoroll"></rect><rect x="564.927693130179" y="193.81528912193426" width="6.563218390804598" height="0.10401891252955082" fill="#00002e" class="pianoroll"></rect><rect x="564.927693130179" y="192.98116589918544" width="6.563218390804598" height="0.10401891252955082" fill="#00143c" class="pianoroll"></rect><rect x="564.927693130179" y="181.40770618354563" width="6.563218390804598" height="0.10401891252955082" fill="#00143c" class="pianoroll"></rect><rect x="564.927693130179" y="180.88637916932765" width="6.563218390804598" height="0.10401891252955082" fill="#00143c" class="pianoroll"></rect><rect x="564.927693130179" y="180.46931755795322" width="6.563218390804598" height="0.10401891252955082" fill="#00002e" class="pianoroll"></rect><rect x="564.927693130179" y="180.1565213494224" width="6.563218390804598" height="0.10401891252955082" fill="#00002e" class="pianoroll"></rect><rect x="571.5672280139" y="192.98116589918544" width="6.563218390804598" height="0.10401891252955082" fill="#00143c" class="pianoroll"></rect><rect x="578.2067628976208" y="222.90533651529918" width="6.563218390804598" height="0.10401891252955082" fill="#00002e" class="pianoroll"></rect><rect x="578.2067628976208" y="208.30818011719492" width="6.563218390804598" height="0.10401891252955082" fill="#00002e" class="pianoroll"></rect><rect x="578.2067628976208" y="194.2323507333087" width="6.563218390804598" height="0.10401891252955082" fill="#00143c" class="pianoroll"></rect><rect x="578.2067628976208" y="193.7110237190907" width="6.563218390804598" height="0.10401891252955082" fill="#00002e" class="pianoroll"></rect><rect x="578.2067628976208" y="193.29396210771625" width="6.563218390804598" height="0.10401891252955082" fill="#00002e" class="pianoroll"></rect><rect x="578.2067628976208" y="181.19917537785844" width="6.563218390804598" height="0.10401891252955082" fill="#00143c" class="pianoroll"></rect><rect x="578.2067628976208" y="180.88637916932765" width="6.563218390804598" height="0.10401891252955082" fill="#00143c" class="pianoroll"></rect><rect x="578.2067628976208" y="180.36505215510962" width="6.563218390804598" height="0.10401891252955082" fill="#00002e" class="pianoroll"></rect><rect x="578.2067628976208" y="179.94799054373522" width="6.563218390804598" height="0.10401891252955082" fill="#00002e" class="pianoroll"></rect><rect x="584.8462977813418" y="222.90533651529918" width="6.563218390804598" height="0.10401891252955082" fill="#00002e" class="pianoroll"></rect><rect x="584.8462977813418" y="208.30818011719492" width="6.563218390804598" height="0.10401891252955082" fill="#00002e" class="pianoroll"></rect><rect x="584.8462977813418" y="194.2323507333087" width="6.563218390804598" height="0.10401891252955082" fill="#00143c" class="pianoroll"></rect><rect x="584.8462977813418" y="193.7110237190907" width="6.563218390804598" height="0.10401891252955082" fill="#00002e" class="pianoroll"></rect><rect x="584.8462977813418" y="193.29396210771625" width="6.563218390804598" height="0.10401891252955082" fill="#00002e" class="pianoroll"></rect><rect x="584.8462977813418" y="181.19917537785844" width="6.563218390804598" height="0.10401891252955082" fill="#00143c" class="pianoroll"></rect><rect x="584.8462977813418" y="180.88637916932765" width="6.563218390804598" height="0.10401891252955082" fill="#00143c" class="pianoroll"></rect><rect x="584.8462977813418" y="180.36505215510962" width="6.563218390804598" height="0.10401891252955082" fill="#00002e" class="pianoroll"></rect><rect x="584.8462977813418" y="179.94799054373522" width="6.563218390804598" height="0.10401891252955082" fill="#00002e" class="pianoroll"></rect><rect x="591.4858326650627" y="222.90533651529918" width="6.563218390804598" height="0.10401891252955082" fill="#00002e" class="pianoroll"></rect><rect x="591.4858326650627" y="208.30818011719492" width="6.563218390804598" height="0.10401891252955082" fill="#00002e" class="pianoroll"></rect><rect x="591.4858326650627" y="194.2323507333087" width="6.563218390804598" height="0.10401891252955082" fill="#00143c" class="pianoroll"></rect><rect x="591.4858326650627" y="193.7110237190907" width="6.563218390804598" height="0.10401891252955082" fill="#00002e" class="pianoroll"></rect><rect x="591.4858326650627" y="193.29396210771625" width="6.563218390804598" height="0.10401891252955082" fill="#00002e" class="pianoroll"></rect><rect x="591.4858326650627" y="181.19917537785844" width="6.563218390804598" height="0.10401891252955082" fill="#00143c" class="pianoroll"></rect><rect x="591.4858326650627" y="180.88637916932765" width="6.563218390804598" height="0.10401891252955082" fill="#00143c" class="pianoroll"></rect><rect x="591.4858326650627" y="180.36505215510962" width="6.563218390804598" height="0.10401891252955082" fill="#00002e" class="pianoroll"></rect><rect x="591.4858326650627" y="179.94799054373522" width="6.563218390804598" height="0.10401891252955082" fill="#00002e" class="pianoroll"></rect><rect x="604.7649024325046" y="223.21813272383" width="6.563218390804598" height="0.10401891252955082" fill="#00002e" class="pianoroll"></rect><rect x="604.7649024325046" y="208.62097632572574" width="6.563218390804598" height="0.10401891252955082" fill="#00002e" class="pianoroll"></rect><rect x="604.7649024325046" y="194.54514694183948" width="6.563218390804598" height="0.10401891252955082" fill="#00143c" class="pianoroll"></rect><rect x="604.7649024325046" y="194.02381992762147" width="6.563218390804598" height="0.10401891252955082" fill="#00002e" class="pianoroll"></rect><rect x="604.7649024325046" y="193.7110237190907" width="6.563218390804598" height="0.10401891252955082" fill="#00002e" class="pianoroll"></rect><rect x="604.7649024325046" y="181.61623698923285" width="6.563218390804598" height="0.10401891252955082" fill="#00143c" class="pianoroll"></rect><rect x="604.7649024325046" y="181.19917537785844" width="6.563218390804598" height="0.10401891252955082" fill="#00143c" class="pianoroll"></rect><rect x="604.7649024325046" y="180.67784836364044" width="6.563218390804598" height="0.10401891252955082" fill="#00002e" class="pianoroll"></rect><rect x="604.7649024325046" y="180.36505215510962" width="6.563218390804598" height="0.10401891252955082" fill="#00002e" class="pianoroll"></rect><rect x="611.4044373162255" y="223.21813272383" width="6.563218390804598" height="0.10401891252955082" fill="#00002e" class="pianoroll"></rect><rect x="611.4044373162255" y="208.62097632572574" width="6.563218390804598" height="0.10401891252955082" fill="#00002e" class="pianoroll"></rect><rect x="611.4044373162255" y="194.54514694183948" width="6.563218390804598" height="0.10401891252955082" fill="#00143c" class="pianoroll"></rect><rect x="611.4044373162255" y="194.02381992762147" width="6.563218390804598" height="0.10401891252955082" fill="#00002e" class="pianoroll"></rect><rect x="611.4044373162255" y="193.7110237190907" width="6.563218390804598" height="0.10401891252955082" fill="#00002e" class="pianoroll"></rect><rect x="611.4044373162255" y="181.61623698923285" width="6.563218390804598" height="0.10401891252955082" fill="#00143c" class="pianoroll"></rect><rect x="611.4044373162255" y="181.19917537785844" width="6.563218390804598" height="0.10401891252955082" fill="#00143c" class="pianoroll"></rect><rect x="611.4044373162255" y="180.67784836364044" width="6.563218390804598" height="0.10401891252955082" fill="#00002e" class="pianoroll"></rect><rect x="611.4044373162255" y="180.36505215510962" width="6.563218390804598" height="0.10401891252955082" fill="#00002e" class="pianoroll"></rect><rect x="618.0439721999464" y="223.21813272383" width="6.563218390804598" height="0.10401891252955082" fill="#00002e" class="pianoroll"></rect><rect x="618.0439721999464" y="208.62097632572574" width="6.563218390804598" height="0.10401891252955082" fill="#00002e" class="pianoroll"></rect><rect x="618.0439721999464" y="194.54514694183948" width="6.563218390804598" height="0.10401891252955082" fill="#00143c" class="pianoroll"></rect><rect x="618.0439721999464" y="194.02381992762147" width="6.563218390804598" height="0.10401891252955082" fill="#00002e" class="pianoroll"></rect><rect x="618.0439721999464" y="193.7110237190907" width="6.563218390804598" height="0.10401891252955082" fill="#00002e" class="pianoroll"></rect><rect x="618.0439721999464" y="181.61623698923285" width="6.563218390804598" height="0.10401891252955082" fill="#00143c" class="pianoroll"></rect><rect x="618.0439721999464" y="181.19917537785844" width="6.563218390804598" height="0.10401891252955082" fill="#00143c" class="pianoroll"></rect><rect x="618.0439721999464" y="180.67784836364044" width="6.563218390804598" height="0.10401891252955082" fill="#00002e" class="pianoroll"></rect><rect x="618.0439721999464" y="180.36505215510962" width="6.563218390804598" height="0.10401891252955082" fill="#00002e" class="pianoroll"></rect><rect x="631.3230419673883" y="223.94799054373522" width="6.563218390804598" height="0.10401891252955082" fill="#3f5688" class="pianoroll"></rect><rect x="631.3230419673883" y="209.35083414563093" width="6.563218390804598" height="0.10401891252955082" fill="#3f5688" class="pianoroll"></rect><rect x="631.3230419673883" y="194.3366161361523" width="6.563218390804598" height="0.10401891252955082" fill="#4f6598" class="pianoroll"></rect><rect x="631.3230419673883" y="194.02381992762147" width="6.563218390804598" height="0.10401891252955082" fill="#3f5688" class="pianoroll"></rect><rect x="631.3230419673883" y="193.50249291340347" width="6.563218390804598" height="0.10401891252955082" fill="#3f5688" class="pianoroll"></rect><rect x="631.3230419673883" y="181.40770618354563" width="6.563218390804598" height="0.10401891252955082" fill="#4f6598" class="pianoroll"></rect><rect x="631.3230419673883" y="180.99064457217125" width="6.563218390804598" height="0.10401891252955082" fill="#4f6598" class="pianoroll"></rect><rect x="631.3230419673883" y="180.67784836364044" width="6.563218390804598" height="0.10401891252955082" fill="#3f5688" class="pianoroll"></rect><rect x="631.3230419673883" y="180.1565213494224" width="6.563218390804598" height="0.10401891252955082" fill="#3f5688" class="pianoroll"></rect><rect x="637.9625768511094" y="223.94799054373522" width="6.563218390804598" height="0.10401891252955082" fill="#3f5688" class="pianoroll"></rect><rect x="637.9625768511094" y="209.35083414563093" width="6.563218390804598" height="0.10401891252955082" fill="#3f5688" class="pianoroll"></rect><rect x="637.9625768511094" y="194.3366161361523" width="6.563218390804598" height="0.10401891252955082" fill="#4f6598" class="pianoroll"></rect><rect x="637.9625768511094" y="194.02381992762147" width="6.563218390804598" height="0.10401891252955082" fill="#3f5688" class="pianoroll"></rect><rect x="637.9625768511094" y="193.50249291340347" width="6.563218390804598" height="0.10401891252955082" fill="#3f5688" class="pianoroll"></rect><rect x="637.9625768511094" y="181.40770618354563" width="6.563218390804598" height="0.10401891252955082" fill="#4f6598" class="pianoroll"></rect><rect x="637.9625768511094" y="180.99064457217125" width="6.563218390804598" height="0.10401891252955082" fill="#4f6598" class="pianoroll"></rect><rect x="637.9625768511094" y="180.67784836364044" width="6.563218390804598" height="0.10401891252955082" fill="#3f5688" class="pianoroll"></rect><rect x="637.9625768511094" y="180.1565213494224" width="6.563218390804598" height="0.10401891252955082" fill="#3f5688" class="pianoroll"></rect><rect x="644.6021117348301" y="223.94799054373522" width="6.563218390804598" height="0.10401891252955082" fill="#3f5688" class="pianoroll"></rect><rect x="644.6021117348301" y="209.35083414563093" width="6.563218390804598" height="0.10401891252955082" fill="#3f5688" class="pianoroll"></rect><rect x="644.6021117348301" y="194.3366161361523" width="6.563218390804598" height="0.10401891252955082" fill="#4f6598" class="pianoroll"></rect><rect x="644.6021117348301" y="194.02381992762147" width="6.563218390804598" height="0.10401891252955082" fill="#3f5688" class="pianoroll"></rect><rect x="644.6021117348301" y="193.50249291340347" width="6.563218390804598" height="0.10401891252955082" fill="#3f5688" class="pianoroll"></rect><rect x="644.6021117348301" y="181.40770618354563" width="6.563218390804598" height="0.10401891252955082" fill="#4f6598" class="pianoroll"></rect><rect x="644.6021117348301" y="180.99064457217125" width="6.563218390804598" height="0.10401891252955082" fill="#4f6598" class="pianoroll"></rect><rect x="644.6021117348301" y="180.67784836364044" width="6.563218390804598" height="0.10401891252955082" fill="#3f5688" class="pianoroll"></rect><rect x="644.6021117348301" y="180.1565213494224" width="6.563218390804598" height="0.10401891252955082" fill="#3f5688" class="pianoroll"></rect><rect x="657.881181502272" y="223.5309289323608" width="6.563218390804598" height="0.10401891252955082" fill="#6075a8" class="pianoroll"></rect><rect x="657.881181502272" y="208.93377253425655" width="6.563218390804598" height="0.10401891252955082" fill="#6075a8" class="pianoroll"></rect><rect x="657.881181502272" y="195.2750047617447" width="6.563218390804598" height="0.10401891252955082" fill="#7084b9" class="pianoroll"></rect><rect x="657.881181502272" y="194.7536777475267" width="6.563218390804598" height="0.10401891252955082" fill="#6075a8" class="pianoroll"></rect><rect x="657.881181502272" y="194.02381992762147" width="6.563218390804598" height="0.10401891252955082" fill="#6075a8" class="pianoroll"></rect><rect x="657.881181502272" y="182.24182940629447" width="6.563218390804598" height="0.10401891252955082" fill="#7084b9" class="pianoroll"></rect><rect x="657.881181502272" y="181.92903319776366" width="6.563218390804598" height="0.10401891252955082" fill="#7084b9" class="pianoroll"></rect><rect x="657.881181502272" y="181.40770618354563" width="6.563218390804598" height="0.10401891252955082" fill="#6075a8" class="pianoroll"></rect><rect x="657.881181502272" y="180.67784836364044" width="6.563218390804598" height="0.10401891252955082" fill="#6075a8" class="pianoroll"></rect><rect x="664.5207163859931" y="223.5309289323608" width="6.563218390804598" height="0.10401891252955082" fill="#6075a8" class="pianoroll"></rect><rect x="664.5207163859931" y="208.93377253425655" width="6.563218390804598" height="0.10401891252955082" fill="#6075a8" class="pianoroll"></rect><rect x="664.5207163859931" y="195.2750047617447" width="6.563218390804598" height="0.10401891252955082" fill="#7084b9" class="pianoroll"></rect><rect x="664.5207163859931" y="194.7536777475267" width="6.563218390804598" height="0.10401891252955082" fill="#6075a8" class="pianoroll"></rect><rect x="664.5207163859931" y="194.02381992762147" width="6.563218390804598" height="0.10401891252955082" fill="#6075a8" class="pianoroll"></rect><rect x="664.5207163859931" y="182.24182940629447" width="6.563218390804598" height="0.10401891252955082" fill="#7084b9" class="pianoroll"></rect><rect x="664.5207163859931" y="181.92903319776366" width="6.563218390804598" height="0.10401891252955082" fill="#7084b9" class="pianoroll"></rect><rect x="664.5207163859931" y="181.40770618354563" width="6.563218390804598" height="0.10401891252955082" fill="#6075a8" class="pianoroll"></rect><rect x="664.5207163859931" y="180.67784836364044" width="6.563218390804598" height="0.10401891252955082" fill="#6075a8" class="pianoroll"></rect><rect x="671.160251269714" y="223.5309289323608" width="6.563218390804598" height="0.10401891252955082" fill="#6075a8" class="pianoroll"></rect><rect x="671.160251269714" y="208.93377253425655" width="6.563218390804598" height="0.10401891252955082" fill="#6075a8" class="pianoroll"></rect><rect x="671.160251269714" y="195.2750047617447" width="6.563218390804598" height="0.10401891252955082" fill="#7084b9" class="pianoroll"></rect><rect x="671.160251269714" y="194.7536777475267" width="6.563218390804598" height="0.10401891252955082" fill="#6075a8" class="pianoroll"></rect><rect x="671.160251269714" y="194.02381992762147" width="6.563218390804598" height="0.10401891252955082" fill="#6075a8" class="pianoroll"></rect><rect x="671.160251269714" y="182.24182940629447" width="6.563218390804598" height="0.10401891252955082" fill="#7084b9" class="pianoroll"></rect><rect x="671.160251269714" y="181.92903319776366" width="6.563218390804598" height="0.10401891252955082" fill="#7084b9" class="pianoroll"></rect><rect x="671.160251269714" y="181.40770618354563" width="6.563218390804598" height="0.10401891252955082" fill="#6075a8" class="pianoroll"></rect><rect x="671.160251269714" y="180.67784836364044" width="6.563218390804598" height="0.10401891252955082" fill="#6075a8" class="pianoroll"></rect><rect x="684.4393210371558" y="223.4266635295172" width="6.563218390804598" height="0.10401891252955082" fill="#91a4dc" class="pianoroll"></rect><rect x="684.4393210371558" y="208.82950713141292" width="6.563218390804598" height="0.10401891252955082" fill="#91a4dc" class="pianoroll"></rect><rect x="684.4393210371558" y="195.0664739560575" width="6.563218390804598" height="0.10401891252955082" fill="#a2b5ed" class="pianoroll"></rect><rect x="684.4393210371558" y="194.7536777475267" width="6.563218390804598" height="0.10401891252955082" fill="#91a4dc" class="pianoroll"></rect><rect x="684.4393210371558" y="194.2323507333087" width="6.563218390804598" height="0.10401891252955082" fill="#91a4dc" class="pianoroll"></rect><rect x="684.4393210371558" y="182.13756400345085" width="6.563218390804598" height="0.10401891252955082" fill="#a2b5ed" class="pianoroll"></rect><rect x="684.4393210371558" y="181.72050239207647" width="6.563218390804598" height="0.10401891252955082" fill="#a2b5ed" class="pianoroll"></rect><rect x="684.4393210371558" y="181.40770618354563" width="6.563218390804598" height="0.10401891252955082" fill="#91a4dc" class="pianoroll"></rect><rect x="684.4393210371558" y="180.88637916932765" width="6.563218390804598" height="0.10401891252955082" fill="#91a4dc" class="pianoroll"></rect><rect x="691.0788559208768" y="223.4266635295172" width="6.563218390804598" height="0.10401891252955082" fill="#91a4dc" class="pianoroll"></rect><rect x="691.0788559208768" y="208.82950713141292" width="6.563218390804598" height="0.10401891252955082" fill="#91a4dc" class="pianoroll"></rect><rect x="691.0788559208768" y="195.0664739560575" width="6.563218390804598" height="0.10401891252955082" fill="#a2b5ed" class="pianoroll"></rect><rect x="691.0788559208768" y="194.7536777475267" width="6.563218390804598" height="0.10401891252955082" fill="#91a4dc" class="pianoroll"></rect><rect x="691.0788559208768" y="194.2323507333087" width="6.563218390804598" height="0.10401891252955082" fill="#91a4dc" class="pianoroll"></rect><rect x="691.0788559208768" y="182.13756400345085" width="6.563218390804598" height="0.10401891252955082" fill="#a2b5ed" class="pianoroll"></rect><rect x="691.0788559208768" y="181.72050239207647" width="6.563218390804598" height="0.10401891252955082" fill="#a2b5ed" class="pianoroll"></rect><rect x="691.0788559208768" y="181.40770618354563" width="6.563218390804598" height="0.10401891252955082" fill="#91a4dc" class="pianoroll"></rect><rect x="691.0788559208768" y="180.88637916932765" width="6.563218390804598" height="0.10401891252955082" fill="#91a4dc" class="pianoroll"></rect><rect x="697.7183908045977" y="223.4266635295172" width="6.563218390804598" height="0.10401891252955082" fill="#91a4dc" class="pianoroll"></rect><rect x="697.7183908045977" y="208.82950713141292" width="6.563218390804598" height="0.10401891252955082" fill="#91a4dc" class="pianoroll"></rect><rect x="697.7183908045977" y="195.0664739560575" width="6.563218390804598" height="0.10401891252955082" fill="#a2b5ed" class="pianoroll"></rect><rect x="697.7183908045977" y="194.7536777475267" width="6.563218390804598" height="0.10401891252955082" fill="#91a4dc" class="pianoroll"></rect><rect x="697.7183908045977" y="194.2323507333087" width="6.563218390804598" height="0.10401891252955082" fill="#91a4dc" class="pianoroll"></rect><rect x="697.7183908045977" y="182.13756400345085" width="6.563218390804598" height="0.10401891252955082" fill="#a2b5ed" class="pianoroll"></rect><rect x="697.7183908045977" y="181.72050239207647" width="6.563218390804598" height="0.10401891252955082" fill="#a2b5ed" class="pianoroll"></rect><rect x="697.7183908045977" y="181.40770618354563" width="6.563218390804598" height="0.10401891252955082" fill="#91a4dc" class="pianoroll"></rect><rect x="697.7183908045977" y="180.88637916932765" width="6.563218390804598" height="0.10401891252955082" fill="#91a4dc" class="pianoroll"></rect></svg>
