<svg class="graph" width="1896" height="926"><defs><linearGradient id="gradient-rainbow-colors" x1="0%" y1="0%" x2="100%" y2="0%"><stop offset="0" stop-color="#b3c6ff"></stop><stop offset="1" stop-color="#000000"></stop></linearGradient></defs><g class="axis" transform="translate(0,752.5)"><g class="tick" style="opacity: 1;" transform="translate(130,0)"><line y2="6" x2="0"></line><text dy=".71em" style="text-anchor: middle;" y="9" x="0">0</text></g><g class="tick" style="opacity: 1;" transform="translate(224.0229885057471,0)"><line y2="6" x2="0"></line><text dy=".71em" style="text-anchor: middle;" y="9" x="0">5</text></g><g class="tick" style="opacity: 1;" transform="translate(318.04597701149424,0)"><line y2="6" x2="0"></line><text dy=".71em" style="text-anchor: middle;" y="9" x="0">10</text></g><g class="tick" style="opacity: 1;" transform="translate(412.0689655172414,0)"><line y2="6" x2="0"></line><text dy=".71em" style="text-anchor: middle;" y="9" x="0">15</text></g><g class="tick" style="opacity: 1;" transform="translate(506.0919540229885,0)"><line y2="6" x2="0"></line><text dy=".71em" style="text-anchor: middle;" y="9" x="0">20</text></g><g class="tick" style="opacity: 1;" transform="translate(600.1149425287356,0)"><line y2="6" x2="0"></line><text dy=".71em" style="text-anchor: middle;" y="9" x="0">25</text></g><g class="tick" style="opacity: 1;" transform="translate(694.1379310344828,0)"><line y2="6" x2="0"></line><text dy=".71em" style="text-anchor: middle;" y="9" x="0">30</text></g><g class="tick" style="opacity: 1;" transform="translate(788.1609195402299,0)"><line y2="6" x2="0"></line><text dy=".71em" style="text-anchor: middle;" y="9" x="0">35</text></g><g class="tick" style="opacity: 1;" transform="translate(882.183908045977,0)"><line y2="6" x2="0"></line><text dy=".71em" style="text-anchor: middle;" y="9" x="0">40</text></g><g class="tick" style="opacity: 1;" transform="translate(976.2068965517242,0)"><line y2="6" x2="0"></line><text dy=".71em" style="text-anchor: middle;" y="9" x="0">45</text></g><g class="tick" style="opacity: 1;" transform="translate(1070.2298850574712,0)"><line y2="6" x2="0"></line><text dy=".71em" style="text-anchor: middle;" y="9" x="0">50</text></g><g class="tick" style="opacity: 1;" transform="translate(1164.2528735632184,0)"><line y2="6" x2="0"></line><text dy=".71em" style="text-anchor: middle;" y="9" x="0">55</text></g><g class="tick" style="opacity: 1;" transform="translate(1258.2758620689656,0)"><line y2="6" x2="0"></line><text dy=".71em" style="text-anchor: middle;" y="9" x="0">60</text></g><g class="tick" style="opacity: 1;" transform="translate(1352.2988505747126,0)"><line y2="6" x2="0"></line><text dy=".71em" style="text-anchor: middle;" y="9" x="0">65</text></g><g class="tick" style="opacity: 1;" transform="translate(1446.3218390804598,0)"><line y2="6" x2="0"></line><text dy=".71em" style="text-anchor: middle;" y="9" x="0">70</text></g><g class="tick" style="opacity: 1;" transform="translate(1540.3448275862067,0)"><line y2="6" x2="0"></line><text dy=".71em" style="text-anchor: middle;" y="9" x="0">75</text></g><g class="tick" style="opacity: 1;" transform="translate(1634.367816091954,0)"><line y2="6" x2="0"></line><text dy=".71em" style="text-anchor: middle;" y="9" x="0">80</text></g><g class="tick" style="opacity: 1;" transform="translate(1728.3908045977012,0)"><line y2="6" x2="0"></line><text dy=".71em" style="text-anchor: middle;" y="9" x="0">85</text></g><path class="domain" d="M130,6V0H1766V6"></path></g><text class="legendTitle" x="1736" y="796">Time</text><g class="axis" transform="translate(111.4090909090909,0)"><g class="tick" style="opacity: 1;" transform="translate(0,672.7317073170732)"><line x2="-6" y2="0"></line><text dy=".32em" style="text-anchor: end;" x="-9" y="0">40</text></g><g class="tick" style="opacity: 1;" transform="translate(0,606.1463414634146)"><line x2="-6" y2="0"></line><text dy=".32em" style="text-anchor: end;" x="-9" y="0">45</text></g><g class="tick" style="opacity: 1;" transform="translate(0,539.560975609756)"><line x2="-6" y2="0"></line><text dy=".32em" style="text-anchor: end;" x="-9" y="0">50</text></g><g class="tick" style="opacity: 1;" transform="translate(0,472.9756097560976)"><line x2="-6" y2="0"></line><text dy=".32em" style="text-anchor: end;" x="-9" y="0">55</text></g><g class="tick" style="opacity: 1;" transform="translate(0,406.39024390243907)"><line x2="-6" y2="0"></line><text dy=".32em" style="text-anchor: end;" x="-9" y="0">60</text></g><g class="tick" style="opacity: 1;" transform="translate(0,339.80487804878055)"><line x2="-6" y2="0"></line><text dy=".32em" style="text-anchor: end;" x="-9" y="0">65</text></g><g class="tick" style="opacity: 1;" transform="translate(0,273.219512195122)"><line x2="-6" y2="0"></line><text dy=".32em" style="text-anchor: end;" x="-9" y="0">70</text></g><g class="tick" style="opacity: 1;" transform="translate(0,206.63414634146346)"><line x2="-6" y2="0"></line><text dy=".32em" style="text-anchor: end;" x="-9" y="0">75</text></g><path class="domain" d="M-6,180H0V726H-6"></path></g><text class="legendTitle" x="100" y="170">Pitch</text><text class="title" x="1013" y="50" text-anchor="middle">yoyo.csv</text><text class="title" x="1013" y="100" text-anchor="middle">Min Z : 84 Max Z : 111</text><rect x="120.70454545454545" y="306.67073170731703" width="18.59090909090909" height="13" fill="#53699b" class="pianoroll"></rect><rect x="139.5091431556949" y="306.67073170731703" width="18.59090909090909" height="13" fill="#53699b" class="pianoroll"></rect><rect x="158.3137408568443" y="306.67073170731703" width="18.59090909090909" height="13" fill="#53699b" class="pianoroll"></rect><rect x="195.92293625914317" y="333.30487804878055" width="18.59090909090909" height="13" fill="#92a6dd" class="pianoroll"></rect><rect x="214.72753396029256" y="333.30487804878055" width="18.59090909090909" height="13" fill="#92a6dd" class="pianoroll"></rect><rect x="233.532131661442" y="333.30487804878055" width="18.59090909090909" height="13" fill="#92a6dd" class="pianoroll"></rect><rect x="252.33672936259146" y="333.30487804878055" width="18.59090909090909" height="13" fill="#92a6dd" class="pianoroll"></rect><rect x="271.14132706374085" y="266.719512195122" width="18.59090909090909" height="13" fill="#53699b" class="pianoroll"></rect><rect x="289.94592476489026" y="266.719512195122" width="18.59090909090909" height="13" fill="#53699b" class="pianoroll"></rect><rect x="308.7505224660397" y="266.719512195122" width="18.59090909090909" height="13" fill="#53699b" class="pianoroll"></rect><rect x="346.3597178683385" y="240.08536585365854" width="18.59090909090909" height="13" fill="#002550" class="pianoroll"></rect><rect x="365.16431556948794" y="240.08536585365854" width="18.59090909090909" height="13" fill="#002550" class="pianoroll"></rect><rect x="383.9689132706374" y="173.5" width="18.59090909090909" height="13" fill="#92a6dd" class="pianoroll"></rect><rect x="402.77351097178683" y="173.5" width="18.59090909090909" height="13" fill="#92a6dd" class="pianoroll"></rect><rect x="421.5781086729362" y="213.4512195121951" width="18.59090909090909" height="13" fill="#7287bc" class="pianoroll"></rect><rect x="440.38270637408567" y="213.4512195121951" width="18.59090909090909" height="13" fill="#7287bc" class="pianoroll"></rect><rect x="459.1873040752351" y="213.4512195121951" width="18.59090909090909" height="13" fill="#7287bc" class="pianoroll"></rect><rect x="496.7964994775339" y="240.08536585365854" width="18.59090909090909" height="13" fill="#002550" class="pianoroll"></rect><rect x="515.6010971786834" y="240.08536585365854" width="18.59090909090909" height="13" fill="#002550" class="pianoroll"></rect><rect x="534.4056948798329" y="173.5" width="18.59090909090909" height="13" fill="#344c7c" class="pianoroll"></rect><rect x="553.2102925809822" y="173.5" width="18.59090909090909" height="13" fill="#344c7c" class="pianoroll"></rect><rect x="572.0148902821317" y="213.4512195121951" width="18.59090909090909" height="13" fill="#7287bc" class="pianoroll"></rect><rect x="590.8194879832811" y="213.4512195121951" width="18.59090909090909" height="13" fill="#7287bc" class="pianoroll"></rect><rect x="609.6240856844305" y="213.4512195121951" width="18.59090909090909" height="13" fill="#7287bc" class="pianoroll"></rect><rect x="647.2332810867294" y="266.719512195122" width="18.59090909090909" height="13" fill="#3c5384" class="pianoroll"></rect><rect x="666.0378787878788" y="266.719512195122" width="18.59090909090909" height="13" fill="#3c5384" class="pianoroll"></rect><rect x="684.8424764890283" y="266.719512195122" width="18.59090909090909" height="13" fill="#3c5384" class="pianoroll"></rect><rect x="722.451671891327" y="240.08536585365854" width="18.59090909090909" height="13" fill="#243f6d" class="pianoroll"></rect><rect x="741.2562695924765" y="240.08536585365854" width="18.59090909090909" height="13" fill="#243f6d" class="pianoroll"></rect><rect x="760.060867293626" y="240.08536585365854" width="18.59090909090909" height="13" fill="#243f6d" class="pianoroll"></rect><rect x="797.6700626959248" y="306.67073170731703" width="18.59090909090909" height="13" fill="#53699b" class="pianoroll"></rect><rect x="816.4746603970742" y="306.67073170731703" width="18.59090909090909" height="13" fill="#53699b" class="pianoroll"></rect><rect x="835.2792580982236" y="306.67073170731703" width="18.59090909090909" height="13" fill="#53699b" class="pianoroll"></rect><rect x="872.8884535005225" y="333.30487804878055" width="18.59090909090909" height="13" fill="#8296cc" class="pianoroll"></rect><rect x="891.6930512016719" y="333.30487804878055" width="18.59090909090909" height="13" fill="#8296cc" class="pianoroll"></rect><rect x="910.4976489028213" y="333.30487804878055" width="18.59090909090909" height="13" fill="#8296cc" class="pianoroll"></rect><rect x="948.1068443051203" y="626.280487804878" width="18.59090909090909" height="13" fill="#92a6dd" class="pianoroll"></rect><rect x="948.1068443051203" y="466.4756097560976" width="18.59090909090909" height="13" fill="#92a6dd" class="pianoroll"></rect><rect x="948.1068443051203" y="426.5243902439024" width="18.59090909090909" height="13" fill="#92a6dd" class="pianoroll"></rect><rect x="948.1068443051203" y="373.2560975609756" width="18.59090909090909" height="13" fill="#92a6dd" class="pianoroll"></rect><rect x="948.1068443051203" y="306.67073170731703" width="18.59090909090909" height="13" fill="#445a8c" class="pianoroll"></rect><rect x="966.9114420062697" y="626.280487804878" width="18.59090909090909" height="13" fill="#92a6dd" class="pianoroll"></rect><rect x="966.9114420062697" y="466.4756097560976" width="18.59090909090909" height="13" fill="#92a6dd" class="pianoroll"></rect><rect x="966.9114420062697" y="426.5243902439024" width="18.59090909090909" height="13" fill="#92a6dd" class="pianoroll"></rect><rect x="966.9114420062697" y="373.2560975609756" width="18.59090909090909" height="13" fill="#92a6dd" class="pianoroll"></rect><rect x="966.9114420062697" y="306.67073170731703" width="18.59090909090909" height="13" fill="#445a8c" class="pianoroll"></rect><rect x="985.7160397074191" y="626.280487804878" width="18.59090909090909" height="13" fill="#92a6dd" class="pianoroll"></rect><rect x="985.7160397074191" y="466.4756097560976" width="18.59090909090909" height="13" fill="#92a6dd" class="pianoroll"></rect><rect x="985.7160397074191" y="426.5243902439024" width="18.59090909090909" height="13" fill="#92a6dd" class="pianoroll"></rect><rect x="985.7160397074191" y="373.2560975609756" width="18.59090909090909" height="13" fill="#92a6dd" class="pianoroll"></rect><rect x="985.7160397074191" y="306.67073170731703" width="18.59090909090909" height="13" fill="#445a8c" class="pianoroll"></rect><rect x="1004.5206374085685" y="626.280487804878" width="18.59090909090909" height="13" fill="#92a6dd" class="pianoroll"></rect><rect x="1004.5206374085685" y="466.4756097560976" width="18.59090909090909" height="13" fill="#92a6dd" class="pianoroll"></rect><rect x="1004.5206374085685" y="426.5243902439024" width="18.59090909090909" height="13" fill="#92a6dd" class="pianoroll"></rect><rect x="1004.5206374085685" y="373.2560975609756" width="18.59090909090909" height="13" fill="#92a6dd" class="pianoroll"></rect><rect x="1004.5206374085685" y="306.67073170731703" width="18.59090909090909" height="13" fill="#445a8c" class="pianoroll"></rect><rect x="1023.3252351097178" y="599.6463414634146" width="18.59090909090909" height="13" fill="#92a6dd" class="pianoroll"></rect><rect x="1023.3252351097178" y="493.10975609756105" width="18.59090909090909" height="13" fill="#92a6dd" class="pianoroll"></rect><rect x="1023.3252351097178" y="439.8414634146341" width="18.59090909090909" height="13" fill="#92a6dd" class="pianoroll"></rect><rect x="1023.3252351097178" y="399.89024390243907" width="18.59090909090909" height="13" fill="#92a6dd" class="pianoroll"></rect><rect x="1023.3252351097178" y="333.30487804878055" width="18.59090909090909" height="13" fill="#445a8c" class="pianoroll"></rect><rect x="1042.1298328108674" y="599.6463414634146" width="18.59090909090909" height="13" fill="#92a6dd" class="pianoroll"></rect><rect x="1042.1298328108674" y="493.10975609756105" width="18.59090909090909" height="13" fill="#92a6dd" class="pianoroll"></rect><rect x="1042.1298328108674" y="439.8414634146341" width="18.59090909090909" height="13" fill="#92a6dd" class="pianoroll"></rect><rect x="1042.1298328108674" y="399.89024390243907" width="18.59090909090909" height="13" fill="#92a6dd" class="pianoroll"></rect><rect x="1042.1298328108674" y="333.30487804878055" width="18.59090909090909" height="13" fill="#445a8c" class="pianoroll"></rect><rect x="1060.9344305120167" y="599.6463414634146" width="18.59090909090909" height="13" fill="#92a6dd" class="pianoroll"></rect><rect x="1060.9344305120167" y="493.10975609756105" width="18.59090909090909" height="13" fill="#92a6dd" class="pianoroll"></rect><rect x="1060.9344305120167" y="439.8414634146341" width="18.59090909090909" height="13" fill="#92a6dd" class="pianoroll"></rect><rect x="1060.9344305120167" y="399.89024390243907" width="18.59090909090909" height="13" fill="#92a6dd" class="pianoroll"></rect><rect x="1060.9344305120167" y="333.30487804878055" width="18.59090909090909" height="13" fill="#445a8c" class="pianoroll"></rect><rect x="1079.739028213166" y="599.6463414634146" width="18.59090909090909" height="13" fill="#92a6dd" class="pianoroll"></rect><rect x="1079.739028213166" y="493.10975609756105" width="18.59090909090909" height="13" fill="#92a6dd" class="pianoroll"></rect><rect x="1079.739028213166" y="439.8414634146341" width="18.59090909090909" height="13" fill="#92a6dd" class="pianoroll"></rect><rect x="1079.739028213166" y="399.89024390243907" width="18.59090909090909" height="13" fill="#92a6dd" class="pianoroll"></rect><rect x="1079.739028213166" y="333.30487804878055" width="18.59090909090909" height="13" fill="#445a8c" class="pianoroll"></rect><rect x="1098.5436259143155" y="626.280487804878" width="18.59090909090909" height="13" fill="#92a6dd" class="pianoroll"></rect><rect x="1098.5436259143155" y="466.4756097560976" width="18.59090909090909" height="13" fill="#92a6dd" class="pianoroll"></rect><rect x="1098.5436259143155" y="426.5243902439024" width="18.59090909090909" height="13" fill="#92a6dd" class="pianoroll"></rect><rect x="1098.5436259143155" y="373.2560975609756" width="18.59090909090909" height="13" fill="#92a6dd" class="pianoroll"></rect><rect x="1098.5436259143155" y="266.719512195122" width="18.59090909090909" height="13" fill="#445a8c" class="pianoroll"></rect><rect x="1117.348223615465" y="626.280487804878" width="18.59090909090909" height="13" fill="#92a6dd" class="pianoroll"></rect><rect x="1117.348223615465" y="466.4756097560976" width="18.59090909090909" height="13" fill="#92a6dd" class="pianoroll"></rect><rect x="1117.348223615465" y="426.5243902439024" width="18.59090909090909" height="13" fill="#92a6dd" class="pianoroll"></rect><rect x="1117.348223615465" y="373.2560975609756" width="18.59090909090909" height="13" fill="#92a6dd" class="pianoroll"></rect><rect x="1117.348223615465" y="266.719512195122" width="18.59090909090909" height="13" fill="#445a8c" class="pianoroll"></rect><rect x="1136.1528213166146" y="626.280487804878" width="18.59090909090909" height="13" fill="#92a6dd" class="pianoroll"></rect><rect x="1136.1528213166146" y="466.4756097560976" width="18.59090909090909" height="13" fill="#92a6dd" class="pianoroll"></rect><rect x="1136.1528213166146" y="426.5243902439024" width="18.59090909090909" height="13" fill="#92a6dd" class="pianoroll"></rect><rect x="1136.1528213166146" y="373.2560975609756" width="18.59090909090909" height="13" fill="#92a6dd" class="pianoroll"></rect><rect x="1136.1528213166146" y="266.719512195122" width="18.59090909090909" height="13" fill="#445a8c" class="pianoroll"></rect><rect x="1154.9574190177639" y="626.280487804878" width="18.59090909090909" height="13" fill="#92a6dd" class="pianoroll"></rect><rect x="1154.9574190177639" y="466.4756097560976" width="18.59090909090909" height="13" fill="#92a6dd" class="pianoroll"></rect><rect x="1154.9574190177639" y="426.5243902439024" width="18.59090909090909" height="13" fill="#92a6dd" class="pianoroll"></rect><rect x="1154.9574190177639" y="373.2560975609756" width="18.59090909090909" height="13" fill="#92a6dd" class="pianoroll"></rect><rect x="1154.9574190177639" y="266.719512195122" width="18.59090909090909" height="13" fill="#445a8c" class="pianoroll"></rect><rect x="1173.7620167189134" y="652.9146341463415" width="18.59090909090909" height="13" fill="#92a6dd" class="pianoroll"></rect><rect x="1173.7620167189134" y="493.10975609756105" width="18.59090909090909" height="13" fill="#92a6dd" class="pianoroll"></rect><rect x="1173.7620167189134" y="399.89024390243907" width="18.59090909090909" height="13" fill="#92a6dd" class="pianoroll"></rect><rect x="1173.7620167189134" y="280.0365853658536" width="18.59090909090909" height="13" fill="#92a6dd" class="pianoroll"></rect><rect x="1173.7620167189134" y="240.08536585365854" width="18.59090909090909" height="13" fill="#445a8c" class="pianoroll"></rect><rect x="1192.5666144200627" y="652.9146341463415" width="18.59090909090909" height="13" fill="#92a6dd" class="pianoroll"></rect><rect x="1192.5666144200627" y="493.10975609756105" width="18.59090909090909" height="13" fill="#92a6dd" class="pianoroll"></rect><rect x="1192.5666144200627" y="399.89024390243907" width="18.59090909090909" height="13" fill="#92a6dd" class="pianoroll"></rect><rect x="1192.5666144200627" y="280.0365853658536" width="18.59090909090909" height="13" fill="#92a6dd" class="pianoroll"></rect><rect x="1192.5666144200627" y="240.08536585365854" width="18.59090909090909" height="13" fill="#445a8c" class="pianoroll"></rect><rect x="1211.371212121212" y="652.9146341463415" width="18.59090909090909" height="13" fill="#92a6dd" class="pianoroll"></rect><rect x="1211.371212121212" y="493.10975609756105" width="18.59090909090909" height="13" fill="#92a6dd" class="pianoroll"></rect><rect x="1211.371212121212" y="399.89024390243907" width="18.59090909090909" height="13" fill="#92a6dd" class="pianoroll"></rect><rect x="1211.371212121212" y="280.0365853658536" width="18.59090909090909" height="13" fill="#92a6dd" class="pianoroll"></rect><rect x="1211.371212121212" y="173.5" width="18.59090909090909" height="13" fill="#00002e" class="pianoroll"></rect><rect x="1230.1758098223615" y="652.9146341463415" width="18.59090909090909" height="13" fill="#92a6dd" class="pianoroll"></rect><rect x="1230.1758098223615" y="493.10975609756105" width="18.59090909090909" height="13" fill="#92a6dd" class="pianoroll"></rect><rect x="1230.1758098223615" y="399.89024390243907" width="18.59090909090909" height="13" fill="#92a6dd" class="pianoroll"></rect><rect x="1230.1758098223615" y="280.0365853658536" width="18.59090909090909" height="13" fill="#92a6dd" class="pianoroll"></rect><rect x="1230.1758098223615" y="173.5" width="18.59090909090909" height="13" fill="#00002e" class="pianoroll"></rect><rect x="1248.980407523511" y="692.8658536585365" width="18.59090909090909" height="13" fill="#92a6dd" class="pianoroll"></rect><rect x="1248.980407523511" y="533.060975609756" width="18.59090909090909" height="13" fill="#92a6dd" class="pianoroll"></rect><rect x="1248.980407523511" y="333.30487804878055" width="18.59090909090909" height="13" fill="#92a6dd" class="pianoroll"></rect><rect x="1248.980407523511" y="280.0365853658536" width="18.59090909090909" height="13" fill="#92a6dd" class="pianoroll"></rect><rect x="1248.980407523511" y="213.4512195121951" width="18.59090909090909" height="13" fill="#445a8c" class="pianoroll"></rect><rect x="1267.7850052246606" y="692.8658536585365" width="18.59090909090909" height="13" fill="#92a6dd" class="pianoroll"></rect><rect x="1267.7850052246606" y="533.060975609756" width="18.59090909090909" height="13" fill="#92a6dd" class="pianoroll"></rect><rect x="1267.7850052246606" y="333.30487804878055" width="18.59090909090909" height="13" fill="#92a6dd" class="pianoroll"></rect><rect x="1267.7850052246606" y="280.0365853658536" width="18.59090909090909" height="13" fill="#92a6dd" class="pianoroll"></rect><rect x="1267.7850052246606" y="213.4512195121951" width="18.59090909090909" height="13" fill="#445a8c" class="pianoroll"></rect><rect x="1286.58960292581" y="692.8658536585365" width="18.59090909090909" height="13" fill="#92a6dd" class="pianoroll"></rect><rect x="1286.58960292581" y="533.060975609756" width="18.59090909090909" height="13" fill="#92a6dd" class="pianoroll"></rect><rect x="1286.58960292581" y="333.30487804878055" width="18.59090909090909" height="13" fill="#92a6dd" class="pianoroll"></rect><rect x="1286.58960292581" y="280.0365853658536" width="18.59090909090909" height="13" fill="#92a6dd" class="pianoroll"></rect><rect x="1286.58960292581" y="213.4512195121951" width="18.59090909090909" height="13" fill="#445a8c" class="pianoroll"></rect><rect x="1305.3942006269592" y="692.8658536585365" width="18.59090909090909" height="13" fill="#92a6dd" class="pianoroll"></rect><rect x="1305.3942006269592" y="533.060975609756" width="18.59090909090909" height="13" fill="#92a6dd" class="pianoroll"></rect><rect x="1305.3942006269592" y="333.30487804878055" width="18.59090909090909" height="13" fill="#92a6dd" class="pianoroll"></rect><rect x="1305.3942006269592" y="280.0365853658536" width="18.59090909090909" height="13" fill="#92a6dd" class="pianoroll"></rect><rect x="1305.3942006269592" y="213.4512195121951" width="18.59090909090909" height="13" fill="#445a8c" class="pianoroll"></rect><rect x="1324.1987983281085" y="652.9146341463415" width="18.59090909090909" height="13" fill="#92a6dd" class="pianoroll"></rect><rect x="1324.1987983281085" y="493.10975609756105" width="18.59090909090909" height="13" fill="#92a6dd" class="pianoroll"></rect><rect x="1324.1987983281085" y="399.89024390243907" width="18.59090909090909" height="13" fill="#92a6dd" class="pianoroll"></rect><rect x="1324.1987983281085" y="280.0365853658536" width="18.59090909090909" height="13" fill="#92a6dd" class="pianoroll"></rect><rect x="1324.1987983281085" y="240.08536585365854" width="18.59090909090909" height="13" fill="#445a8c" class="pianoroll"></rect><rect x="1343.003396029258" y="652.9146341463415" width="18.59090909090909" height="13" fill="#92a6dd" class="pianoroll"></rect><rect x="1343.003396029258" y="493.10975609756105" width="18.59090909090909" height="13" fill="#92a6dd" class="pianoroll"></rect><rect x="1343.003396029258" y="399.89024390243907" width="18.59090909090909" height="13" fill="#92a6dd" class="pianoroll"></rect><rect x="1343.003396029258" y="280.0365853658536" width="18.59090909090909" height="13" fill="#92a6dd" class="pianoroll"></rect><rect x="1343.003396029258" y="240.08536585365854" width="18.59090909090909" height="13" fill="#445a8c" class="pianoroll"></rect><rect x="1361.8079937304076" y="652.9146341463415" width="18.59090909090909" height="13" fill="#92a6dd" class="pianoroll"></rect><rect x="1361.8079937304076" y="493.10975609756105" width="18.59090909090909" height="13" fill="#92a6dd" class="pianoroll"></rect><rect x="1361.8079937304076" y="399.89024390243907" width="18.59090909090909" height="13" fill="#92a6dd" class="pianoroll"></rect><rect x="1361.8079937304076" y="280.0365853658536" width="18.59090909090909" height="13" fill="#92a6dd" class="pianoroll"></rect><rect x="1361.8079937304076" y="173.5" width="18.59090909090909" height="13" fill="#00002e" class="pianoroll"></rect><rect x="1380.612591431557" y="652.9146341463415" width="18.59090909090909" height="13" fill="#92a6dd" class="pianoroll"></rect><rect x="1380.612591431557" y="493.10975609756105" width="18.59090909090909" height="13" fill="#92a6dd" class="pianoroll"></rect><rect x="1380.612591431557" y="399.89024390243907" width="18.59090909090909" height="13" fill="#92a6dd" class="pianoroll"></rect><rect x="1380.612591431557" y="280.0365853658536" width="18.59090909090909" height="13" fill="#92a6dd" class="pianoroll"></rect><rect x="1380.612591431557" y="173.5" width="18.59090909090909" height="13" fill="#00002e" class="pianoroll"></rect><rect x="1399.4171891327064" y="586.3292682926829" width="18.59090909090909" height="13" fill="#92a6dd" class="pianoroll"></rect><rect x="1399.4171891327064" y="426.5243902439024" width="18.59090909090909" height="13" fill="#92a6dd" class="pianoroll"></rect><rect x="1399.4171891327064" y="333.30487804878055" width="18.59090909090909" height="13" fill="#92a6dd" class="pianoroll"></rect><rect x="1399.4171891327064" y="266.719512195122" width="18.59090909090909" height="13" fill="#92a6dd" class="pianoroll"></rect><rect x="1399.4171891327064" y="213.4512195121951" width="18.59090909090909" height="13" fill="#445a8c" class="pianoroll"></rect><rect x="1418.221786833856" y="586.3292682926829" width="18.59090909090909" height="13" fill="#92a6dd" class="pianoroll"></rect><rect x="1418.221786833856" y="426.5243902439024" width="18.59090909090909" height="13" fill="#92a6dd" class="pianoroll"></rect><rect x="1418.221786833856" y="333.30487804878055" width="18.59090909090909" height="13" fill="#92a6dd" class="pianoroll"></rect><rect x="1418.221786833856" y="266.719512195122" width="18.59090909090909" height="13" fill="#92a6dd" class="pianoroll"></rect><rect x="1418.221786833856" y="213.4512195121951" width="18.59090909090909" height="13" fill="#445a8c" class="pianoroll"></rect><rect x="1437.0263845350053" y="586.3292682926829" width="18.59090909090909" height="13" fill="#92a6dd" class="pianoroll"></rect><rect x="1437.0263845350053" y="426.5243902439024" width="18.59090909090909" height="13" fill="#92a6dd" class="pianoroll"></rect><rect x="1437.0263845350053" y="333.30487804878055" width="18.59090909090909" height="13" fill="#92a6dd" class="pianoroll"></rect><rect x="1437.0263845350053" y="266.719512195122" width="18.59090909090909" height="13" fill="#92a6dd" class="pianoroll"></rect><rect x="1437.0263845350053" y="213.4512195121951" width="18.59090909090909" height="13" fill="#445a8c" class="pianoroll"></rect><rect x="1455.8309822361546" y="586.3292682926829" width="18.59090909090909" height="13" fill="#92a6dd" class="pianoroll"></rect><rect x="1455.8309822361546" y="426.5243902439024" width="18.59090909090909" height="13" fill="#92a6dd" class="pianoroll"></rect><rect x="1455.8309822361546" y="333.30487804878055" width="18.59090909090909" height="13" fill="#92a6dd" class="pianoroll"></rect><rect x="1455.8309822361546" y="266.719512195122" width="18.59090909090909" height="13" fill="#92a6dd" class="pianoroll"></rect><rect x="1455.8309822361546" y="213.4512195121951" width="18.59090909090909" height="13" fill="#445a8c" class="pianoroll"></rect><rect x="1474.635579937304" y="626.280487804878" width="18.59090909090909" height="13" fill="#92a6dd" class="pianoroll"></rect><rect x="1474.635579937304" y="466.4756097560976" width="18.59090909090909" height="13" fill="#92a6dd" class="pianoroll"></rect><rect x="1474.635579937304" y="373.2560975609756" width="18.59090909090909" height="13" fill="#92a6dd" class="pianoroll"></rect><rect x="1474.635579937304" y="306.67073170731703" width="18.59090909090909" height="13" fill="#92a6dd" class="pianoroll"></rect><rect x="1474.635579937304" y="266.719512195122" width="18.59090909090909" height="13" fill="#445a8c" class="pianoroll"></rect><rect x="1493.4401776384536" y="626.280487804878" width="18.59090909090909" height="13" fill="#92a6dd" class="pianoroll"></rect><rect x="1493.4401776384536" y="466.4756097560976" width="18.59090909090909" height="13" fill="#92a6dd" class="pianoroll"></rect><rect x="1493.4401776384536" y="373.2560975609756" width="18.59090909090909" height="13" fill="#92a6dd" class="pianoroll"></rect><rect x="1493.4401776384536" y="306.67073170731703" width="18.59090909090909" height="13" fill="#92a6dd" class="pianoroll"></rect><rect x="1493.4401776384536" y="266.719512195122" width="18.59090909090909" height="13" fill="#445a8c" class="pianoroll"></rect><rect x="1512.244775339603" y="626.280487804878" width="18.59090909090909" height="13" fill="#92a6dd" class="pianoroll"></rect><rect x="1512.244775339603" y="466.4756097560976" width="18.59090909090909" height="13" fill="#92a6dd" class="pianoroll"></rect><rect x="1512.244775339603" y="373.2560975609756" width="18.59090909090909" height="13" fill="#92a6dd" class="pianoroll"></rect><rect x="1512.244775339603" y="306.67073170731703" width="18.59090909090909" height="13" fill="#92a6dd" class="pianoroll"></rect><rect x="1512.244775339603" y="266.719512195122" width="18.59090909090909" height="13" fill="#445a8c" class="pianoroll"></rect><rect x="1531.0493730407522" y="626.280487804878" width="18.59090909090909" height="13" fill="#92a6dd" class="pianoroll"></rect><rect x="1531.0493730407522" y="466.4756097560976" width="18.59090909090909" height="13" fill="#92a6dd" class="pianoroll"></rect><rect x="1531.0493730407522" y="373.2560975609756" width="18.59090909090909" height="13" fill="#92a6dd" class="pianoroll"></rect><rect x="1531.0493730407522" y="306.67073170731703" width="18.59090909090909" height="13" fill="#92a6dd" class="pianoroll"></rect><rect x="1531.0493730407522" y="266.719512195122" width="18.59090909090909" height="13" fill="#445a8c" class="pianoroll"></rect><rect x="1549.8539707419018" y="719.5" width="18.59090909090909" height="13" fill="#92a6dd" class="pianoroll"></rect><rect x="1549.8539707419018" y="559.6951219512194" width="18.59090909090909" height="13" fill="#92a6dd" class="pianoroll"></rect><rect x="1549.8539707419018" y="346.6219512195122" width="18.59090909090909" height="13" fill="#92a6dd" class="pianoroll"></rect><rect x="1549.8539707419018" y="306.67073170731703" width="18.59090909090909" height="13" fill="#92a6dd" class="pianoroll"></rect><rect x="1549.8539707419018" y="240.08536585365854" width="18.59090909090909" height="13" fill="#445a8c" class="pianoroll"></rect><rect x="1568.6585684430513" y="719.5" width="18.59090909090909" height="13" fill="#92a6dd" class="pianoroll"></rect><rect x="1568.6585684430513" y="559.6951219512194" width="18.59090909090909" height="13" fill="#92a6dd" class="pianoroll"></rect><rect x="1568.6585684430513" y="346.6219512195122" width="18.59090909090909" height="13" fill="#92a6dd" class="pianoroll"></rect><rect x="1568.6585684430513" y="306.67073170731703" width="18.59090909090909" height="13" fill="#92a6dd" class="pianoroll"></rect><rect x="1568.6585684430513" y="240.08536585365854" width="18.59090909090909" height="13" fill="#445a8c" class="pianoroll"></rect><rect x="1587.4631661442008" y="719.5" width="18.59090909090909" height="13" fill="#92a6dd" class="pianoroll"></rect><rect x="1587.4631661442008" y="559.6951219512194" width="18.59090909090909" height="13" fill="#92a6dd" class="pianoroll"></rect><rect x="1587.4631661442008" y="346.6219512195122" width="18.59090909090909" height="13" fill="#92a6dd" class="pianoroll"></rect><rect x="1587.4631661442008" y="306.67073170731703" width="18.59090909090909" height="13" fill="#92a6dd" class="pianoroll"></rect><rect x="1587.4631661442008" y="240.08536585365854" width="18.59090909090909" height="13" fill="#445a8c" class="pianoroll"></rect><rect x="1606.2677638453501" y="719.5" width="18.59090909090909" height="13" fill="#92a6dd" class="pianoroll"></rect><rect x="1606.2677638453501" y="559.6951219512194" width="18.59090909090909" height="13" fill="#92a6dd" class="pianoroll"></rect><rect x="1606.2677638453501" y="346.6219512195122" width="18.59090909090909" height="13" fill="#92a6dd" class="pianoroll"></rect><rect x="1606.2677638453501" y="306.67073170731703" width="18.59090909090909" height="13" fill="#92a6dd" class="pianoroll"></rect><rect x="1606.2677638453501" y="240.08536585365854" width="18.59090909090909" height="13" fill="#445a8c" class="pianoroll"></rect><rect x="1625.0723615464995" y="666.2317073170732" width="18.59090909090909" height="13" fill="#92a6dd" class="pianoroll"></rect><rect x="1625.0723615464995" y="506.42682926829275" width="18.59090909090909" height="13" fill="#92a6dd" class="pianoroll"></rect><rect x="1625.0723615464995" y="466.4756097560976" width="18.59090909090909" height="13" fill="#92a6dd" class="pianoroll"></rect><rect x="1625.0723615464995" y="399.89024390243907" width="18.59090909090909" height="13" fill="#92a6dd" class="pianoroll"></rect><rect x="1625.0723615464995" y="306.67073170731703" width="18.59090909090909" height="13" fill="#445a8c" class="pianoroll"></rect><rect x="1643.876959247649" y="666.2317073170732" width="18.59090909090909" height="13" fill="#92a6dd" class="pianoroll"></rect><rect x="1643.876959247649" y="506.42682926829275" width="18.59090909090909" height="13" fill="#92a6dd" class="pianoroll"></rect><rect x="1643.876959247649" y="466.4756097560976" width="18.59090909090909" height="13" fill="#92a6dd" class="pianoroll"></rect><rect x="1643.876959247649" y="399.89024390243907" width="18.59090909090909" height="13" fill="#92a6dd" class="pianoroll"></rect><rect x="1643.876959247649" y="306.67073170731703" width="18.59090909090909" height="13" fill="#445a8c" class="pianoroll"></rect><rect x="1662.6815569487983" y="666.2317073170732" width="18.59090909090909" height="13" fill="#92a6dd" class="pianoroll"></rect><rect x="1662.6815569487983" y="506.42682926829275" width="18.59090909090909" height="13" fill="#92a6dd" class="pianoroll"></rect><rect x="1662.6815569487983" y="466.4756097560976" width="18.59090909090909" height="13" fill="#92a6dd" class="pianoroll"></rect><rect x="1662.6815569487983" y="399.89024390243907" width="18.59090909090909" height="13" fill="#92a6dd" class="pianoroll"></rect><rect x="1662.6815569487983" y="306.67073170731703" width="18.59090909090909" height="13" fill="#445a8c" class="pianoroll"></rect><rect x="1681.4861546499476" y="666.2317073170732" width="18.59090909090909" height="13" fill="#92a6dd" class="pianoroll"></rect><rect x="1681.4861546499476" y="506.42682926829275" width="18.59090909090909" height="13" fill="#92a6dd" class="pianoroll"></rect><rect x="1681.4861546499476" y="466.4756097560976" width="18.59090909090909" height="13" fill="#92a6dd" class="pianoroll"></rect><rect x="1681.4861546499476" y="399.89024390243907" width="18.59090909090909" height="13" fill="#92a6dd" class="pianoroll"></rect><rect x="1681.4861546499476" y="306.67073170731703" width="18.59090909090909" height="13" fill="#445a8c" class="pianoroll"></rect><rect x="1700.2907523510971" y="652.9146341463415" width="18.59090909090909" height="13" fill="#b3c6ff" class="pianoroll"></rect><rect x="1700.2907523510971" y="493.10975609756105" width="18.59090909090909" height="13" fill="#b3c6ff" class="pianoroll"></rect><rect x="1700.2907523510971" y="439.8414634146341" width="18.59090909090909" height="13" fill="#b3c6ff" class="pianoroll"></rect><rect x="1700.2907523510971" y="399.89024390243907" width="18.59090909090909" height="13" fill="#b3c6ff" class="pianoroll"></rect><rect x="1700.2907523510971" y="333.30487804878055" width="18.59090909090909" height="13" fill="#6377ab" class="pianoroll"></rect><rect x="1719.0953500522467" y="652.9146341463415" width="18.59090909090909" height="13" fill="#b3c6ff" class="pianoroll"></rect><rect x="1719.0953500522467" y="493.10975609756105" width="18.59090909090909" height="13" fill="#b3c6ff" class="pianoroll"></rect><rect x="1719.0953500522467" y="439.8414634146341" width="18.59090909090909" height="13" fill="#b3c6ff" class="pianoroll"></rect><rect x="1719.0953500522467" y="399.89024390243907" width="18.59090909090909" height="13" fill="#b3c6ff" class="pianoroll"></rect><rect x="1719.0953500522467" y="333.30487804878055" width="18.59090909090909" height="13" fill="#6377ab" class="pianoroll"></rect><rect x="1737.8999477533962" y="652.9146341463415" width="18.59090909090909" height="13" fill="#b3c6ff" class="pianoroll"></rect><rect x="1737.8999477533962" y="493.10975609756105" width="18.59090909090909" height="13" fill="#b3c6ff" class="pianoroll"></rect><rect x="1737.8999477533962" y="439.8414634146341" width="18.59090909090909" height="13" fill="#b3c6ff" class="pianoroll"></rect><rect x="1737.8999477533962" y="399.89024390243907" width="18.59090909090909" height="13" fill="#b3c6ff" class="pianoroll"></rect><rect x="1737.8999477533962" y="333.30487804878055" width="18.59090909090909" height="13" fill="#6377ab" class="pianoroll"></rect><rect x="1756.7045454545455" y="652.9146341463415" width="18.59090909090909" height="13" fill="#b3c6ff" class="pianoroll"></rect><rect x="1756.7045454545455" y="493.10975609756105" width="18.59090909090909" height="13" fill="#b3c6ff" class="pianoroll"></rect><rect x="1756.7045454545455" y="439.8414634146341" width="18.59090909090909" height="13" fill="#b3c6ff" class="pianoroll"></rect><rect x="1756.7045454545455" y="399.89024390243907" width="18.59090909090909" height="13" fill="#b3c6ff" class="pianoroll"></rect><rect x="1756.7045454545455" y="333.30487804878055" width="18.59090909090909" height="13" fill="#6377ab" class="pianoroll"></rect></svg>
