<?xml version="1.0" encoding="utf-8"?>
<!-- Generator: Adobe Illustrator 16.0.4, SVG Export Plug-In . SVG Version: 6.00 Build 0)  -->
<!DOCTYPE svg PUBLIC "-//W3C//DTD SVG 1.1//EN" "http://www.w3.org/Graphics/SVG/1.1/DTD/svg11.dtd">
<svg version="1.1" id="Layer_1" xmlns="http://www.w3.org/2000/svg" xmlns:xlink="http://www.w3.org/1999/xlink" x="0px" y="0px"
	 width="1256px" height="646px" viewBox="0 0 1256 646" enable-background="new 0 0 1256 646" xml:space="preserve">
<rect x="30" y="49.73" opacity="0.9114" enable-background="new    " width="13.143" height="1.967"/>
<rect x="43.289" y="49.73" opacity="0.9114" enable-background="new    " width="13.143" height="1.967"/>
<rect x="56.578" y="49.73" opacity="0.9114" enable-background="new    " width="13.143" height="1.967"/>
<rect x="83.156" y="53.677" opacity="0.9114" enable-background="new    " width="13.143" height="1.966"/>
<rect x="96.444" y="53.677" opacity="0.9114" enable-background="new    " width="13.143" height="1.966"/>
<rect x="109.733" y="53.677" opacity="0.9114" enable-background="new    " width="13.143" height="1.966"/>
<rect x="136.311" y="43.812" opacity="0.9114" enable-background="new    " width="13.143" height="1.966"/>
<rect x="149.6" y="43.812" opacity="0.9114" enable-background="new    " width="13.143" height="1.966"/>
<rect x="162.889" y="43.812" opacity="0.9114" enable-background="new    " width="13.143" height="1.966"/>
<rect x="189.467" y="39.865" opacity="0.9114" enable-background="new    " width="13.143" height="1.967"/>
<rect x="202.755" y="39.865" opacity="0.9114" enable-background="new    " width="13.143" height="1.967"/>
<rect x="216.044" y="30" opacity="0.0886" enable-background="new    " width="13.143" height="1.966"/>
<rect x="229.333" y="30" opacity="0.0886" enable-background="new    " width="13.143" height="1.966"/>
<rect x="242.622" y="35.919" opacity="0.9114" enable-background="new    " width="13.143" height="1.967"/>
<rect x="255.911" y="35.919" opacity="0.9114" enable-background="new    " width="13.143" height="1.967"/>
<rect x="269.2" y="35.919" opacity="0.9114" enable-background="new    " width="13.143" height="1.967"/>
<rect x="295.778" y="39.865" opacity="0.9114" enable-background="new    " width="13.143" height="1.967"/>
<rect x="309.066" y="39.865" opacity="0.9114" enable-background="new    " width="13.144" height="1.967"/>
<rect x="322.355" y="30" opacity="0.0886" enable-background="new    " width="13.143" height="1.966"/>
<rect x="335.645" y="30" opacity="0.0886" enable-background="new    " width="13.143" height="1.966"/>
<rect x="348.934" y="35.919" opacity="0.9114" enable-background="new    " width="13.143" height="1.967"/>
<rect x="362.223" y="35.919" opacity="0.9114" enable-background="new    " width="13.143" height="1.967"/>
<rect x="375.511" y="35.919" opacity="0.9114" enable-background="new    " width="13.144" height="1.967"/>
<rect x="402.089" y="43.812" opacity="0.9114" enable-background="new    " width="13.143" height="1.966"/>
<rect x="415.378" y="43.812" opacity="0.9114" enable-background="new    " width="13.143" height="1.966"/>
<rect x="428.667" y="43.812" opacity="0.9114" enable-background="new    " width="13.143" height="1.966"/>
<rect x="455.244" y="39.865" opacity="0.9114" enable-background="new    " width="13.144" height="1.967"/>
<rect x="468.533" y="39.865" opacity="0.9114" enable-background="new    " width="13.143" height="1.967"/>
<rect x="481.822" y="39.865" opacity="0.9114" enable-background="new    " width="13.143" height="1.967"/>
<rect x="508.4" y="49.73" opacity="0.9114" enable-background="new    " width="13.143" height="1.967"/>
<rect x="521.688" y="49.73" opacity="0.9114" enable-background="new    " width="13.144" height="1.967"/>
<rect x="534.978" y="49.73" opacity="0.9114" enable-background="new    " width="13.144" height="1.967"/>
<rect x="561.556" y="53.677" opacity="0.9114" enable-background="new    " width="13.143" height="1.966"/>
<rect x="574.845" y="53.677" opacity="0.9114" enable-background="new    " width="13.143" height="1.966"/>
<rect x="588.134" y="53.677" opacity="0.9114" enable-background="new    " width="13.143" height="1.966"/>
<rect x="614.711" y="602.188" opacity="0.9114" enable-background="new    " width="13.143" height="1.967"/>
<rect x="614.711" y="578.512" opacity="0.9114" enable-background="new    " width="13.143" height="1.967"/>
<rect x="614.711" y="325.959" opacity="0.8481" enable-background="new    " width="13.143" height="1.967"/>
<rect x="614.711" y="320.041" opacity="0.8481" enable-background="new    " width="13.143" height="1.966"/>
<rect x="614.711" y="312.148" opacity="0.9114" enable-background="new    " width="13.143" height="1.967"/>
<rect x="614.711" y="302.283" opacity="0.9114" enable-background="new    " width="13.143" height="1.966"/>
<rect x="614.711" y="67.488" opacity="0.8481" enable-background="new    " width="13.143" height="1.966"/>
<rect x="614.711" y="59.596" opacity="0.9114" enable-background="new    " width="13.143" height="1.967"/>
<rect x="614.711" y="49.73" opacity="0.9114" enable-background="new    " width="13.143" height="1.967"/>
<rect x="628" y="602.188" opacity="0.9114" enable-background="new    " width="13.143" height="1.967"/>
<rect x="628" y="578.512" opacity="0.9114" enable-background="new    " width="13.143" height="1.967"/>
<rect x="628" y="325.959" opacity="0.8481" enable-background="new    " width="13.143" height="1.967"/>
<rect x="628" y="320.041" opacity="0.8481" enable-background="new    " width="13.143" height="1.966"/>
<rect x="628" y="312.148" opacity="0.9114" enable-background="new    " width="13.143" height="1.967"/>
<rect x="628" y="302.283" opacity="0.9114" enable-background="new    " width="13.143" height="1.966"/>
<rect x="628" y="67.488" opacity="0.8481" enable-background="new    " width="13.143" height="1.966"/>
<rect x="628" y="59.596" opacity="0.9114" enable-background="new    " width="13.143" height="1.967"/>
<rect x="628" y="49.73" opacity="0.9114" enable-background="new    " width="13.143" height="1.967"/>
<rect x="641.289" y="602.188" opacity="0.9114" enable-background="new    " width="13.143" height="1.967"/>
<rect x="641.289" y="578.512" opacity="0.9114" enable-background="new    " width="13.143" height="1.967"/>
<rect x="641.289" y="325.959" opacity="0.8481" enable-background="new    " width="13.143" height="1.967"/>
<rect x="641.289" y="320.041" opacity="0.8481" enable-background="new    " width="13.143" height="1.966"/>
<rect x="641.289" y="312.148" opacity="0.9114" enable-background="new    " width="13.143" height="1.967"/>
<rect x="641.289" y="302.283" opacity="0.9114" enable-background="new    " width="13.143" height="1.966"/>
<rect x="641.289" y="67.488" opacity="0.8481" enable-background="new    " width="13.143" height="1.966"/>
<rect x="641.289" y="59.596" opacity="0.9114" enable-background="new    " width="13.143" height="1.967"/>
<rect x="641.289" y="49.73" opacity="0.9114" enable-background="new    " width="13.143" height="1.967"/>
<rect x="667.866" y="598.242" opacity="0.9114" enable-background="new    " width="13.144" height="1.967"/>
<rect x="667.866" y="582.458" opacity="0.9114" enable-background="new    " width="13.144" height="1.966"/>
<rect x="667.866" y="329.906" opacity="0.8481" enable-background="new    " width="13.144" height="1.966"/>
<rect x="667.866" y="322.014" opacity="0.8481" enable-background="new    " width="13.144" height="1.967"/>
<rect x="667.866" y="316.094" opacity="0.9114" enable-background="new    " width="13.144" height="1.966"/>
<rect x="667.866" y="306.229" opacity="0.9114" enable-background="new    " width="13.144" height="1.966"/>
<rect x="667.866" y="69.461" opacity="0.8481" enable-background="new    " width="13.144" height="1.966"/>
<rect x="667.866" y="63.542" opacity="0.9114" enable-background="new    " width="13.144" height="1.967"/>
<rect x="667.866" y="53.677" opacity="0.9114" enable-background="new    " width="13.144" height="1.966"/>
<rect x="681.155" y="598.242" opacity="0.9114" enable-background="new    " width="13.144" height="1.967"/>
<rect x="681.155" y="582.458" opacity="0.9114" enable-background="new    " width="13.144" height="1.966"/>
<rect x="681.155" y="329.906" opacity="0.8481" enable-background="new    " width="13.144" height="1.966"/>
<rect x="681.155" y="322.014" opacity="0.8481" enable-background="new    " width="13.144" height="1.967"/>
<rect x="681.155" y="316.094" opacity="0.9114" enable-background="new    " width="13.144" height="1.966"/>
<rect x="681.155" y="306.229" opacity="0.9114" enable-background="new    " width="13.144" height="1.966"/>
<rect x="681.155" y="69.461" opacity="0.8481" enable-background="new    " width="13.144" height="1.966"/>
<rect x="681.155" y="63.542" opacity="0.9114" enable-background="new    " width="13.144" height="1.967"/>
<rect x="681.155" y="53.677" opacity="0.9114" enable-background="new    " width="13.144" height="1.966"/>
<rect x="694.444" y="598.242" opacity="0.9114" enable-background="new    " width="13.143" height="1.967"/>
<rect x="694.444" y="582.458" opacity="0.9114" enable-background="new    " width="13.143" height="1.966"/>
<rect x="694.444" y="329.906" opacity="0.8481" enable-background="new    " width="13.143" height="1.966"/>
<rect x="694.444" y="322.014" opacity="0.8481" enable-background="new    " width="13.143" height="1.967"/>
<rect x="694.444" y="316.094" opacity="0.9114" enable-background="new    " width="13.143" height="1.966"/>
<rect x="694.444" y="306.229" opacity="0.9114" enable-background="new    " width="13.143" height="1.966"/>
<rect x="694.444" y="69.461" opacity="0.8481" enable-background="new    " width="13.143" height="1.966"/>
<rect x="694.444" y="63.542" opacity="0.9114" enable-background="new    " width="13.143" height="1.967"/>
<rect x="694.444" y="53.677" opacity="0.9114" enable-background="new    " width="13.143" height="1.966"/>
<rect x="721.022" y="602.188" opacity="0.9114" enable-background="new    " width="13.143" height="1.967"/>
<rect x="721.022" y="578.512" opacity="0.9114" enable-background="new    " width="13.143" height="1.967"/>
<rect x="721.022" y="320.041" opacity="0.8481" enable-background="new    " width="13.143" height="1.966"/>
<rect x="721.022" y="312.148" opacity="0.8481" enable-background="new    " width="13.143" height="1.967"/>
<rect x="721.022" y="302.283" opacity="0.9114" enable-background="new    " width="13.143" height="1.966"/>
<rect x="721.022" y="296.364" opacity="0.9114" enable-background="new    " width="13.143" height="1.966"/>
<rect x="721.022" y="67.488" opacity="0.8481" enable-background="new    " width="13.143" height="1.966"/>
<rect x="721.022" y="59.596" opacity="0.9114" enable-background="new    " width="13.143" height="1.967"/>
<rect x="721.022" y="43.812" opacity="0.9114" enable-background="new    " width="13.143" height="1.966"/>
<rect x="734.312" y="602.188" opacity="0.9114" enable-background="new    " width="13.143" height="1.967"/>
<rect x="734.312" y="578.512" opacity="0.9114" enable-background="new    " width="13.143" height="1.967"/>
<rect x="734.312" y="320.041" opacity="0.8481" enable-background="new    " width="13.143" height="1.966"/>
<rect x="734.312" y="312.148" opacity="0.8481" enable-background="new    " width="13.143" height="1.967"/>
<rect x="734.312" y="302.283" opacity="0.9114" enable-background="new    " width="13.143" height="1.966"/>
<rect x="734.312" y="296.364" opacity="0.9114" enable-background="new    " width="13.143" height="1.966"/>
<rect x="734.312" y="67.488" opacity="0.8481" enable-background="new    " width="13.143" height="1.966"/>
<rect x="734.312" y="59.596" opacity="0.9114" enable-background="new    " width="13.143" height="1.967"/>
<rect x="734.312" y="43.812" opacity="0.9114" enable-background="new    " width="13.143" height="1.966"/>
<rect x="747.6" y="602.188" opacity="0.9114" enable-background="new    " width="13.144" height="1.967"/>
<rect x="747.6" y="578.512" opacity="0.9114" enable-background="new    " width="13.144" height="1.967"/>
<rect x="747.6" y="320.041" opacity="0.8481" enable-background="new    " width="13.144" height="1.966"/>
<rect x="747.6" y="312.148" opacity="0.8481" enable-background="new    " width="13.144" height="1.967"/>
<rect x="747.6" y="302.283" opacity="0.9114" enable-background="new    " width="13.144" height="1.966"/>
<rect x="747.6" y="296.364" opacity="0.9114" enable-background="new    " width="13.144" height="1.966"/>
<rect x="747.6" y="67.488" opacity="0.8481" enable-background="new    " width="13.144" height="1.966"/>
<rect x="747.6" y="59.596" opacity="0.9114" enable-background="new    " width="13.144" height="1.967"/>
<rect x="747.6" y="43.812" opacity="0.9114" enable-background="new    " width="13.144" height="1.966"/>
<rect x="774.178" y="606.135" opacity="0.9114" enable-background="new    " width="13.143" height="1.967"/>
<rect x="774.178" y="582.458" opacity="0.9114" enable-background="new    " width="13.143" height="1.966"/>
<rect x="774.178" y="316.094" opacity="0.8481" enable-background="new    " width="13.143" height="1.966"/>
<rect x="774.178" y="306.229" opacity="0.8481" enable-background="new    " width="13.143" height="1.966"/>
<rect x="774.178" y="298.337" opacity="0.9114" enable-background="new    " width="13.143" height="1.966"/>
<rect x="774.178" y="292.417" opacity="0.9114" enable-background="new    " width="13.143" height="1.966"/>
<rect x="774.178" y="63.542" opacity="0.8481" enable-background="new    " width="13.143" height="1.967"/>
<rect x="774.178" y="45.785" opacity="0.9114" enable-background="new    " width="13.143" height="1.966"/>
<rect x="774.178" y="39.865" opacity="0.9114" enable-background="new    " width="13.143" height="1.967"/>
<rect x="787.467" y="606.135" opacity="0.9114" enable-background="new    " width="13.143" height="1.967"/>
<rect x="787.467" y="582.458" opacity="0.9114" enable-background="new    " width="13.143" height="1.966"/>
<rect x="787.467" y="316.094" opacity="0.8481" enable-background="new    " width="13.143" height="1.966"/>
<rect x="787.467" y="306.229" opacity="0.8481" enable-background="new    " width="13.143" height="1.966"/>
<rect x="787.467" y="298.337" opacity="0.9114" enable-background="new    " width="13.143" height="1.966"/>
<rect x="787.467" y="292.417" opacity="0.9114" enable-background="new    " width="13.143" height="1.966"/>
<rect x="787.467" y="63.542" opacity="0.8481" enable-background="new    " width="13.143" height="1.967"/>
<rect x="787.467" y="45.785" opacity="0.9114" enable-background="new    " width="13.143" height="1.966"/>
<rect x="787.467" y="39.865" opacity="0.9114" enable-background="new    " width="13.143" height="1.967"/>
<rect x="800.756" y="606.135" opacity="0.9114" enable-background="new    " width="13.143" height="1.967"/>
<rect x="800.756" y="582.458" opacity="0.9114" enable-background="new    " width="13.143" height="1.966"/>
<rect x="800.756" y="316.094" opacity="0.8481" enable-background="new    " width="13.143" height="1.966"/>
<rect x="800.756" y="306.229" opacity="0.8481" enable-background="new    " width="13.143" height="1.966"/>
<rect x="800.756" y="298.337" opacity="0.9114" enable-background="new    " width="13.143" height="1.966"/>
<rect x="800.756" y="292.417" opacity="0.9114" enable-background="new    " width="13.143" height="1.966"/>
<rect x="800.756" y="63.542" opacity="0.8481" enable-background="new    " width="13.143" height="1.967"/>
<rect x="800.756" y="45.785" opacity="0.9114" enable-background="new    " width="13.143" height="1.966"/>
<rect x="800.756" y="30" opacity="0.8481" enable-background="new    " width="13.143" height="1.966"/>
<rect x="814.045" y="30" opacity="0.8481" enable-background="new    " width="13.143" height="1.966"/>
<rect x="827.333" y="612.054" opacity="0.9114" enable-background="new    " width="13.144" height="1.967"/>
<rect x="827.333" y="588.377" opacity="0.9114" enable-background="new    " width="13.144" height="1.967"/>
<rect x="827.333" y="312.148" opacity="0.8481" enable-background="new    " width="13.144" height="1.967"/>
<rect x="827.333" y="306.229" opacity="0.8481" enable-background="new    " width="13.144" height="1.966"/>
<rect x="827.333" y="298.337" opacity="0.9114" enable-background="new    " width="13.144" height="1.966"/>
<rect x="827.333" y="288.471" opacity="0.9114" enable-background="new    " width="13.144" height="1.967"/>
<rect x="827.333" y="53.677" opacity="0.8481" enable-background="new    " width="13.144" height="1.966"/>
<rect x="827.333" y="45.785" opacity="0.9114" enable-background="new    " width="13.144" height="1.966"/>
<rect x="827.333" y="35.919" opacity="0.9114" enable-background="new    " width="13.144" height="1.967"/>
<rect x="840.622" y="612.054" opacity="0.9114" enable-background="new    " width="13.143" height="1.967"/>
<rect x="840.622" y="588.377" opacity="0.9114" enable-background="new    " width="13.143" height="1.967"/>
<rect x="840.622" y="312.148" opacity="0.8481" enable-background="new    " width="13.143" height="1.967"/>
<rect x="840.622" y="306.229" opacity="0.8481" enable-background="new    " width="13.143" height="1.966"/>
<rect x="840.622" y="298.337" opacity="0.9114" enable-background="new    " width="13.143" height="1.966"/>
<rect x="840.622" y="288.471" opacity="0.9114" enable-background="new    " width="13.143" height="1.967"/>
<rect x="840.622" y="53.677" opacity="0.8481" enable-background="new    " width="13.143" height="1.966"/>
<rect x="840.622" y="45.785" opacity="0.9114" enable-background="new    " width="13.143" height="1.966"/>
<rect x="840.622" y="35.919" opacity="0.9114" enable-background="new    " width="13.143" height="1.967"/>
<rect x="853.911" y="612.054" opacity="0.9114" enable-background="new    " width="13.143" height="1.967"/>
<rect x="853.911" y="588.377" opacity="0.9114" enable-background="new    " width="13.143" height="1.967"/>
<rect x="853.911" y="312.148" opacity="0.8481" enable-background="new    " width="13.143" height="1.967"/>
<rect x="853.911" y="306.229" opacity="0.8481" enable-background="new    " width="13.143" height="1.966"/>
<rect x="853.911" y="298.337" opacity="0.9114" enable-background="new    " width="13.143" height="1.966"/>
<rect x="853.911" y="288.471" opacity="0.9114" enable-background="new    " width="13.143" height="1.967"/>
<rect x="853.911" y="53.677" opacity="0.8481" enable-background="new    " width="13.143" height="1.966"/>
<rect x="853.911" y="45.785" opacity="0.9114" enable-background="new    " width="13.143" height="1.966"/>
<rect x="853.911" y="35.919" opacity="0.9114" enable-background="new    " width="13.143" height="1.967"/>
<rect x="880.489" y="606.135" opacity="0.9114" enable-background="new    " width="13.143" height="1.967"/>
<rect x="880.489" y="582.458" opacity="0.9114" enable-background="new    " width="13.143" height="1.966"/>
<rect x="880.489" y="316.094" opacity="0.8481" enable-background="new    " width="13.143" height="1.966"/>
<rect x="880.489" y="306.229" opacity="0.8481" enable-background="new    " width="13.143" height="1.966"/>
<rect x="880.489" y="298.337" opacity="0.9114" enable-background="new    " width="13.143" height="1.966"/>
<rect x="880.489" y="292.417" opacity="0.9114" enable-background="new    " width="13.143" height="1.966"/>
<rect x="880.489" y="63.542" opacity="0.8481" enable-background="new    " width="13.143" height="1.967"/>
<rect x="880.489" y="45.785" opacity="0.9114" enable-background="new    " width="13.143" height="1.966"/>
<rect x="880.489" y="39.865" opacity="0.9114" enable-background="new    " width="13.143" height="1.967"/>
<rect x="893.777" y="606.135" opacity="0.9114" enable-background="new    " width="13.144" height="1.967"/>
<rect x="893.777" y="582.458" opacity="0.9114" enable-background="new    " width="13.144" height="1.966"/>
<rect x="893.777" y="316.094" opacity="0.8481" enable-background="new    " width="13.144" height="1.966"/>
<rect x="893.777" y="306.229" opacity="0.8481" enable-background="new    " width="13.144" height="1.966"/>
<rect x="893.777" y="298.337" opacity="0.9114" enable-background="new    " width="13.144" height="1.966"/>
<rect x="893.777" y="292.417" opacity="0.9114" enable-background="new    " width="13.144" height="1.966"/>
<rect x="893.777" y="63.542" opacity="0.8481" enable-background="new    " width="13.144" height="1.967"/>
<rect x="893.777" y="45.785" opacity="0.9114" enable-background="new    " width="13.144" height="1.966"/>
<rect x="893.777" y="39.865" opacity="0.9114" enable-background="new    " width="13.144" height="1.967"/>
<rect x="907.066" y="606.135" opacity="0.9114" enable-background="new    " width="13.144" height="1.967"/>
<rect x="907.066" y="582.458" opacity="0.9114" enable-background="new    " width="13.144" height="1.966"/>
<rect x="907.066" y="316.094" opacity="0.8481" enable-background="new    " width="13.144" height="1.966"/>
<rect x="907.066" y="306.229" opacity="0.8481" enable-background="new    " width="13.144" height="1.966"/>
<rect x="907.066" y="298.337" opacity="0.9114" enable-background="new    " width="13.144" height="1.966"/>
<rect x="907.066" y="292.417" opacity="0.9114" enable-background="new    " width="13.144" height="1.966"/>
<rect x="907.066" y="63.542" opacity="0.8481" enable-background="new    " width="13.144" height="1.967"/>
<rect x="907.066" y="45.785" opacity="0.9114" enable-background="new    " width="13.144" height="1.966"/>
<rect x="907.066" y="30" opacity="0.8481" enable-background="new    " width="13.144" height="1.966"/>
<rect x="920.355" y="30" opacity="0.8481" enable-background="new    " width="13.143" height="1.966"/>
<rect x="933.645" y="596.27" opacity="0.9114" enable-background="new    " width="13.143" height="1.966"/>
<rect x="933.645" y="572.593" opacity="0.9114" enable-background="new    " width="13.143" height="1.966"/>
<rect x="933.645" y="312.148" opacity="0.8481" enable-background="new    " width="13.143" height="1.967"/>
<rect x="933.645" y="306.229" opacity="0.8481" enable-background="new    " width="13.143" height="1.966"/>
<rect x="933.645" y="296.364" opacity="0.9114" enable-background="new    " width="13.143" height="1.966"/>
<rect x="933.645" y="288.471" opacity="0.9114" enable-background="new    " width="13.143" height="1.967"/>
<rect x="933.645" y="53.677" opacity="0.8481" enable-background="new    " width="13.143" height="1.966"/>
<rect x="933.645" y="43.812" opacity="0.9114" enable-background="new    " width="13.143" height="1.966"/>
<rect x="933.645" y="35.919" opacity="0.9114" enable-background="new    " width="13.143" height="1.967"/>
<rect x="946.934" y="596.27" opacity="0.9114" enable-background="new    " width="13.143" height="1.966"/>
<rect x="946.934" y="572.593" opacity="0.9114" enable-background="new    " width="13.143" height="1.966"/>
<rect x="946.934" y="312.148" opacity="0.8481" enable-background="new    " width="13.143" height="1.967"/>
<rect x="946.934" y="306.229" opacity="0.8481" enable-background="new    " width="13.143" height="1.966"/>
<rect x="946.934" y="296.364" opacity="0.9114" enable-background="new    " width="13.143" height="1.966"/>
<rect x="946.934" y="288.471" opacity="0.9114" enable-background="new    " width="13.143" height="1.967"/>
<rect x="946.934" y="53.677" opacity="0.8481" enable-background="new    " width="13.143" height="1.966"/>
<rect x="946.934" y="43.812" opacity="0.9114" enable-background="new    " width="13.143" height="1.966"/>
<rect x="946.934" y="35.919" opacity="0.9114" enable-background="new    " width="13.143" height="1.967"/>
<rect x="960.223" y="596.27" opacity="0.9114" enable-background="new    " width="13.143" height="1.966"/>
<rect x="960.223" y="572.593" opacity="0.9114" enable-background="new    " width="13.143" height="1.966"/>
<rect x="960.223" y="312.148" opacity="0.8481" enable-background="new    " width="13.143" height="1.967"/>
<rect x="960.223" y="306.229" opacity="0.8481" enable-background="new    " width="13.143" height="1.966"/>
<rect x="960.223" y="296.364" opacity="0.9114" enable-background="new    " width="13.143" height="1.966"/>
<rect x="960.223" y="288.471" opacity="0.9114" enable-background="new    " width="13.143" height="1.967"/>
<rect x="960.223" y="53.677" opacity="0.8481" enable-background="new    " width="13.143" height="1.966"/>
<rect x="960.223" y="43.812" opacity="0.9114" enable-background="new    " width="13.143" height="1.966"/>
<rect x="960.223" y="35.919" opacity="0.9114" enable-background="new    " width="13.143" height="1.967"/>
<rect x="986.8" y="602.188" opacity="0.9114" enable-background="new    " width="13.144" height="1.967"/>
<rect x="986.8" y="578.512" opacity="0.9114" enable-background="new    " width="13.144" height="1.967"/>
<rect x="986.8" y="320.041" opacity="0.8481" enable-background="new    " width="13.144" height="1.966"/>
<rect x="986.8" y="312.148" opacity="0.8481" enable-background="new    " width="13.144" height="1.967"/>
<rect x="986.8" y="302.283" opacity="0.9114" enable-background="new    " width="13.144" height="1.966"/>
<rect x="986.8" y="296.364" opacity="0.9114" enable-background="new    " width="13.144" height="1.966"/>
<rect x="986.8" y="59.596" opacity="0.8481" enable-background="new    " width="13.144" height="1.967"/>
<rect x="986.8" y="49.73" opacity="0.9114" enable-background="new    " width="13.144" height="1.967"/>
<rect x="986.8" y="43.812" opacity="0.9114" enable-background="new    " width="13.144" height="1.966"/>
<rect x="1000.089" y="602.188" opacity="0.9114" enable-background="new    " width="13.143" height="1.967"/>
<rect x="1000.089" y="578.512" opacity="0.9114" enable-background="new    " width="13.143" height="1.967"/>
<rect x="1000.089" y="320.041" opacity="0.8481" enable-background="new    " width="13.143" height="1.966"/>
<rect x="1000.089" y="312.148" opacity="0.8481" enable-background="new    " width="13.143" height="1.967"/>
<rect x="1000.089" y="302.283" opacity="0.9114" enable-background="new    " width="13.143" height="1.966"/>
<rect x="1000.089" y="296.364" opacity="0.9114" enable-background="new    " width="13.143" height="1.966"/>
<rect x="1000.089" y="59.596" opacity="0.8481" enable-background="new    " width="13.143" height="1.967"/>
<rect x="1000.089" y="49.73" opacity="0.9114" enable-background="new    " width="13.143" height="1.967"/>
<rect x="1000.089" y="43.812" opacity="0.9114" enable-background="new    " width="13.143" height="1.966"/>
<rect x="1013.378" y="602.188" opacity="0.9114" enable-background="new    " width="13.143" height="1.967"/>
<rect x="1013.378" y="578.512" opacity="0.9114" enable-background="new    " width="13.143" height="1.967"/>
<rect x="1013.378" y="320.041" opacity="0.8481" enable-background="new    " width="13.143" height="1.966"/>
<rect x="1013.378" y="312.148" opacity="0.8481" enable-background="new    " width="13.143" height="1.967"/>
<rect x="1013.378" y="302.283" opacity="0.9114" enable-background="new    " width="13.143" height="1.966"/>
<rect x="1013.378" y="296.364" opacity="0.9114" enable-background="new    " width="13.143" height="1.966"/>
<rect x="1013.378" y="59.596" opacity="0.8481" enable-background="new    " width="13.143" height="1.967"/>
<rect x="1013.378" y="49.73" opacity="0.9114" enable-background="new    " width="13.143" height="1.967"/>
<rect x="1013.378" y="43.812" opacity="0.9114" enable-background="new    " width="13.143" height="1.966"/>
<rect x="1039.955" y="616" opacity="0.5316" enable-background="new    " width="13.144" height="1.967"/>
<rect x="1039.955" y="592.323" opacity="0.5316" enable-background="new    " width="13.144" height="1.967"/>
<rect x="1039.955" y="316.094" opacity="0.4684" enable-background="new    " width="13.144" height="1.966"/>
<rect x="1039.955" y="308.202" opacity="0.4684" enable-background="new    " width="13.144" height="1.966"/>
<rect x="1039.955" y="302.283" opacity="0.5316" enable-background="new    " width="13.144" height="1.966"/>
<rect x="1039.955" y="292.417" opacity="0.5316" enable-background="new    " width="13.144" height="1.966"/>
<rect x="1039.955" y="55.65" opacity="0.4684" enable-background="new    " width="13.144" height="1.966"/>
<rect x="1039.955" y="49.73" opacity="0.5316" enable-background="new    " width="13.144" height="1.967"/>
<rect x="1039.955" y="39.865" opacity="0.5316" enable-background="new    " width="13.144" height="1.967"/>
<rect x="1053.244" y="616" opacity="0.5316" enable-background="new    " width="13.143" height="1.967"/>
<rect x="1053.244" y="592.323" opacity="0.5316" enable-background="new    " width="13.143" height="1.967"/>
<rect x="1053.244" y="316.094" opacity="0.4684" enable-background="new    " width="13.143" height="1.966"/>
<rect x="1053.244" y="308.202" opacity="0.4684" enable-background="new    " width="13.143" height="1.966"/>
<rect x="1053.244" y="302.283" opacity="0.5316" enable-background="new    " width="13.143" height="1.966"/>
<rect x="1053.244" y="292.417" opacity="0.5316" enable-background="new    " width="13.143" height="1.966"/>
<rect x="1053.244" y="55.65" opacity="0.4684" enable-background="new    " width="13.143" height="1.966"/>
<rect x="1053.244" y="49.73" opacity="0.5316" enable-background="new    " width="13.143" height="1.967"/>
<rect x="1053.244" y="39.865" opacity="0.5316" enable-background="new    " width="13.143" height="1.967"/>
<rect x="1066.533" y="616" opacity="0.5316" enable-background="new    " width="13.143" height="1.967"/>
<rect x="1066.533" y="592.323" opacity="0.5316" enable-background="new    " width="13.143" height="1.967"/>
<rect x="1066.533" y="316.094" opacity="0.4684" enable-background="new    " width="13.143" height="1.966"/>
<rect x="1066.533" y="308.202" opacity="0.4684" enable-background="new    " width="13.143" height="1.966"/>
<rect x="1066.533" y="302.283" opacity="0.5316" enable-background="new    " width="13.143" height="1.966"/>
<rect x="1066.533" y="292.417" opacity="0.5316" enable-background="new    " width="13.143" height="1.966"/>
<rect x="1066.533" y="55.65" opacity="0.4684" enable-background="new    " width="13.143" height="1.966"/>
<rect x="1066.533" y="49.73" opacity="0.5316" enable-background="new    " width="13.143" height="1.967"/>
<rect x="1066.533" y="39.865" opacity="0.5316" enable-background="new    " width="13.143" height="1.967"/>
<rect x="1093.111" y="608.107" opacity="0.4051" enable-background="new    " width="13.143" height="1.967"/>
<rect x="1093.111" y="584.431" opacity="0.4051" enable-background="new    " width="13.143" height="1.967"/>
<rect x="1093.111" y="331.879" opacity="0.3418" enable-background="new    " width="13.143" height="1.967"/>
<rect x="1093.111" y="325.959" opacity="0.3418" enable-background="new    " width="13.143" height="1.967"/>
<rect x="1093.111" y="316.094" opacity="0.4051" enable-background="new    " width="13.143" height="1.966"/>
<rect x="1093.111" y="302.283" opacity="0.4051" enable-background="new    " width="13.143" height="1.966"/>
<rect x="1093.111" y="73.407" opacity="0.3418" enable-background="new    " width="13.143" height="1.967"/>
<rect x="1093.111" y="63.542" opacity="0.4051" enable-background="new    " width="13.143" height="1.967"/>
<rect x="1093.111" y="49.73" opacity="0.4051" enable-background="new    " width="13.143" height="1.967"/>
<rect x="1106.4" y="608.107" opacity="0.4051" enable-background="new    " width="13.143" height="1.967"/>
<rect x="1106.4" y="584.431" opacity="0.4051" enable-background="new    " width="13.143" height="1.967"/>
<rect x="1106.4" y="331.879" opacity="0.3418" enable-background="new    " width="13.143" height="1.967"/>
<rect x="1106.4" y="325.959" opacity="0.3418" enable-background="new    " width="13.143" height="1.967"/>
<rect x="1106.4" y="316.094" opacity="0.4051" enable-background="new    " width="13.143" height="1.966"/>
<rect x="1106.4" y="302.283" opacity="0.4051" enable-background="new    " width="13.143" height="1.966"/>
<rect x="1106.4" y="73.407" opacity="0.3418" enable-background="new    " width="13.143" height="1.967"/>
<rect x="1106.4" y="63.542" opacity="0.4051" enable-background="new    " width="13.143" height="1.967"/>
<rect x="1106.4" y="49.73" opacity="0.4051" enable-background="new    " width="13.143" height="1.967"/>
<rect x="1119.688" y="608.107" opacity="0.4051" enable-background="new    " width="13.144" height="1.967"/>
<rect x="1119.688" y="584.431" opacity="0.4051" enable-background="new    " width="13.144" height="1.967"/>
<rect x="1119.688" y="331.879" opacity="0.3418" enable-background="new    " width="13.144" height="1.967"/>
<rect x="1119.688" y="325.959" opacity="0.3418" enable-background="new    " width="13.144" height="1.967"/>
<rect x="1119.688" y="316.094" opacity="0.4051" enable-background="new    " width="13.144" height="1.966"/>
<rect x="1119.688" y="302.283" opacity="0.4051" enable-background="new    " width="13.144" height="1.966"/>
<rect x="1119.688" y="73.407" opacity="0.3418" enable-background="new    " width="13.144" height="1.967"/>
<rect x="1119.688" y="63.542" opacity="0.4051" enable-background="new    " width="13.144" height="1.967"/>
<rect x="1119.688" y="49.73" opacity="0.4051" enable-background="new    " width="13.144" height="1.967"/>
<rect x="1146.267" y="606.135" opacity="0.2152" enable-background="new    " width="13.143" height="1.967"/>
<rect x="1146.267" y="582.458" opacity="0.2152" enable-background="new    " width="13.143" height="1.966"/>
<rect x="1146.267" y="329.906" opacity="0.1519" enable-background="new    " width="13.143" height="1.966"/>
<rect x="1146.267" y="322.014" opacity="0.1519" enable-background="new    " width="13.143" height="1.967"/>
<rect x="1146.267" y="316.094" opacity="0.2152" enable-background="new    " width="13.143" height="1.966"/>
<rect x="1146.267" y="306.229" opacity="0.2152" enable-background="new    " width="13.143" height="1.966"/>
<rect x="1146.267" y="69.461" opacity="0.1519" enable-background="new    " width="13.143" height="1.966"/>
<rect x="1146.267" y="63.542" opacity="0.2152" enable-background="new    " width="13.143" height="1.967"/>
<rect x="1146.267" y="53.677" opacity="0.2152" enable-background="new    " width="13.143" height="1.966"/>
<rect x="1159.556" y="606.135" opacity="0.2152" enable-background="new    " width="13.143" height="1.967"/>
<rect x="1159.556" y="582.458" opacity="0.2152" enable-background="new    " width="13.143" height="1.966"/>
<rect x="1159.556" y="329.906" opacity="0.1519" enable-background="new    " width="13.143" height="1.966"/>
<rect x="1159.556" y="322.014" opacity="0.1519" enable-background="new    " width="13.143" height="1.967"/>
<rect x="1159.556" y="316.094" opacity="0.2152" enable-background="new    " width="13.143" height="1.966"/>
<rect x="1159.556" y="306.229" opacity="0.2152" enable-background="new    " width="13.143" height="1.966"/>
<rect x="1159.556" y="69.461" opacity="0.1519" enable-background="new    " width="13.143" height="1.966"/>
<rect x="1159.556" y="63.542" opacity="0.2152" enable-background="new    " width="13.143" height="1.967"/>
<rect x="1159.556" y="53.677" opacity="0.2152" enable-background="new    " width="13.143" height="1.966"/>
<rect x="1172.845" y="606.135" opacity="0.2152" enable-background="new    " width="13.143" height="1.967"/>
<rect x="1172.845" y="582.458" opacity="0.2152" enable-background="new    " width="13.143" height="1.966"/>
<rect x="1172.845" y="329.906" opacity="0.1519" enable-background="new    " width="13.143" height="1.966"/>
<rect x="1172.845" y="322.014" opacity="0.1519" enable-background="new    " width="13.143" height="1.967"/>
<rect x="1172.845" y="316.094" opacity="0.2152" enable-background="new    " width="13.143" height="1.966"/>
<rect x="1172.845" y="306.229" opacity="0.2152" enable-background="new    " width="13.143" height="1.966"/>
<rect x="1172.845" y="69.461" opacity="0.1519" enable-background="new    " width="13.143" height="1.966"/>
<rect x="1172.845" y="63.542" opacity="0.2152" enable-background="new    " width="13.143" height="1.967"/>
<rect x="1172.845" y="53.677" opacity="0.2152" enable-background="new    " width="13.143" height="1.966"/>
<rect x="1199.422" y="53.677" opacity="0.9114" enable-background="new    " width="13.144" height="1.966"/>
<rect x="1212.711" y="53.677" opacity="0.9114" enable-background="new    " width="13.143" height="1.966"/>
<rect x="1226" y="53.677" opacity="0.9114" enable-background="new    " width="13.143" height="1.966"/>
</svg>
