<?xml version="1.0" encoding="utf-8"?>
<!-- Generator: Adobe Illustrator 16.0.4, SVG Export Plug-In . SVG Version: 6.00 Build 0)  -->
<!DOCTYPE svg PUBLIC "-//W3C//DTD SVG 1.1//EN" "http://www.w3.org/Graphics/SVG/1.1/DTD/svg11.dtd">
<svg version="1.1" id="Layer_1" xmlns="http://www.w3.org/2000/svg" xmlns:xlink="http://www.w3.org/1999/xlink" x="0px" y="0px"
	 width="1256px" height="646px" viewBox="0 0 1256 646" enable-background="new 0 0 1256 646" xml:space="preserve">
<rect x="30" y="172.927" opacity="0.454" enable-background="new    " width="13.143" height="13.953"/>
<rect x="43.289" y="172.927" opacity="0.454" enable-background="new    " width="13.143" height="13.953"/>
<rect x="56.578" y="172.927" opacity="0.454" enable-background="new    " width="13.143" height="13.953"/>
<rect x="83.156" y="201.512" opacity="0.2086" enable-background="new    " width="13.143" height="13.953"/>
<rect x="96.444" y="201.512" opacity="0.2086" enable-background="new    " width="13.143" height="13.953"/>
<rect x="109.733" y="201.512" opacity="0.2086" enable-background="new    " width="13.143" height="13.953"/>
<rect x="123.022" y="201.512" opacity="0.2086" enable-background="new    " width="13.143" height="13.953"/>
<rect x="136.311" y="130.049" opacity="0.454" enable-background="new    " width="13.143" height="13.952"/>
<rect x="149.6" y="130.049" opacity="0.454" enable-background="new    " width="13.143" height="13.952"/>
<rect x="162.889" y="130.049" opacity="0.454" enable-background="new    " width="13.143" height="13.952"/>
<rect x="189.467" y="101.463" opacity="0.7607" enable-background="new    " width="13.143" height="13.953"/>
<rect x="202.755" y="101.463" opacity="0.7607" enable-background="new    " width="13.143" height="13.953"/>
<rect x="216.044" y="30" opacity="0.2086" enable-background="new    " width="13.143" height="13.952"/>
<rect x="229.333" y="30" opacity="0.2086" enable-background="new    " width="13.143" height="13.952"/>
<rect x="242.622" y="72.878" opacity="0.3313" enable-background="new    " width="13.143" height="13.953"/>
<rect x="255.911" y="72.878" opacity="0.3313" enable-background="new    " width="13.143" height="13.953"/>
<rect x="269.2" y="72.878" opacity="0.3313" enable-background="new    " width="13.143" height="13.953"/>
<rect x="295.778" y="101.463" opacity="0.7607" enable-background="new    " width="13.143" height="13.953"/>
<rect x="309.066" y="101.463" opacity="0.7607" enable-background="new    " width="13.144" height="13.953"/>
<rect x="322.355" y="30" opacity="0.5767" enable-background="new    " width="13.143" height="13.952"/>
<rect x="335.645" y="30" opacity="0.5767" enable-background="new    " width="13.143" height="13.952"/>
<rect x="348.934" y="72.878" opacity="0.3313" enable-background="new    " width="13.143" height="13.953"/>
<rect x="362.223" y="72.878" opacity="0.3313" enable-background="new    " width="13.143" height="13.953"/>
<rect x="375.511" y="72.878" opacity="0.3313" enable-background="new    " width="13.144" height="13.953"/>
<rect x="402.089" y="130.049" opacity="0.546" enable-background="new    " width="13.143" height="13.952"/>
<rect x="415.378" y="130.049" opacity="0.546" enable-background="new    " width="13.143" height="13.952"/>
<rect x="428.667" y="130.049" opacity="0.546" enable-background="new    " width="13.143" height="13.952"/>
<rect x="455.244" y="101.463" opacity="0.638" enable-background="new    " width="13.144" height="13.953"/>
<rect x="468.533" y="101.463" opacity="0.638" enable-background="new    " width="13.143" height="13.953"/>
<rect x="481.822" y="101.463" opacity="0.638" enable-background="new    " width="13.143" height="13.953"/>
<rect x="508.4" y="172.927" opacity="0.454" enable-background="new    " width="13.143" height="13.953"/>
<rect x="521.688" y="172.927" opacity="0.454" enable-background="new    " width="13.144" height="13.953"/>
<rect x="534.978" y="172.927" opacity="0.454" enable-background="new    " width="13.144" height="13.953"/>
<rect x="561.556" y="201.512" opacity="0.2699" enable-background="new    " width="13.143" height="13.953"/>
<rect x="574.845" y="201.512" opacity="0.2699" enable-background="new    " width="13.143" height="13.953"/>
<rect x="588.134" y="201.512" opacity="0.2699" enable-background="new    " width="13.143" height="13.953"/>
<rect x="614.711" y="515.951" opacity="0.2086" enable-background="new    " width="13.143" height="13.952"/>
<rect x="614.711" y="344.439" opacity="0.2086" enable-background="new    " width="13.143" height="13.952"/>
<rect x="614.711" y="301.561" opacity="0.2086" enable-background="new    " width="13.143" height="13.952"/>
<rect x="614.711" y="244.39" opacity="0.2086" enable-background="new    " width="13.143" height="13.953"/>
<rect x="614.711" y="172.927" opacity="0.5153" enable-background="new    " width="13.143" height="13.953"/>
<rect x="628" y="515.951" opacity="0.2086" enable-background="new    " width="13.143" height="13.952"/>
<rect x="628" y="344.439" opacity="0.2086" enable-background="new    " width="13.143" height="13.952"/>
<rect x="628" y="301.561" opacity="0.2086" enable-background="new    " width="13.143" height="13.952"/>
<rect x="628" y="244.39" opacity="0.2086" enable-background="new    " width="13.143" height="13.953"/>
<rect x="628" y="172.927" opacity="0.5153" enable-background="new    " width="13.143" height="13.953"/>
<rect x="641.289" y="515.951" opacity="0.2086" enable-background="new    " width="13.143" height="13.952"/>
<rect x="641.289" y="344.439" opacity="0.2086" enable-background="new    " width="13.143" height="13.952"/>
<rect x="641.289" y="301.561" opacity="0.2086" enable-background="new    " width="13.143" height="13.952"/>
<rect x="641.289" y="244.39" opacity="0.2086" enable-background="new    " width="13.143" height="13.953"/>
<rect x="641.289" y="172.927" opacity="0.5153" enable-background="new    " width="13.143" height="13.953"/>
<rect x="654.578" y="515.951" opacity="0.2086" enable-background="new    " width="13.143" height="13.952"/>
<rect x="654.578" y="344.439" opacity="0.2086" enable-background="new    " width="13.143" height="13.952"/>
<rect x="654.578" y="301.561" opacity="0.2086" enable-background="new    " width="13.143" height="13.952"/>
<rect x="654.578" y="244.39" opacity="0.2086" enable-background="new    " width="13.143" height="13.953"/>
<rect x="654.578" y="172.927" opacity="0.5153" enable-background="new    " width="13.143" height="13.953"/>
<rect x="667.866" y="487.366" opacity="0.2086" enable-background="new    " width="13.144" height="13.952"/>
<rect x="667.866" y="373.024" opacity="0.2086" enable-background="new    " width="13.144" height="13.952"/>
<rect x="667.866" y="315.854" opacity="0.2086" enable-background="new    " width="13.144" height="13.953"/>
<rect x="667.866" y="272.976" opacity="0.2086" enable-background="new    " width="13.144" height="13.952"/>
<rect x="667.866" y="201.512" opacity="0.5153" enable-background="new    " width="13.144" height="13.953"/>
<rect x="681.155" y="487.366" opacity="0.2086" enable-background="new    " width="13.144" height="13.952"/>
<rect x="681.155" y="373.024" opacity="0.2086" enable-background="new    " width="13.144" height="13.952"/>
<rect x="681.155" y="315.854" opacity="0.2086" enable-background="new    " width="13.144" height="13.953"/>
<rect x="681.155" y="272.976" opacity="0.2086" enable-background="new    " width="13.144" height="13.952"/>
<rect x="681.155" y="201.512" opacity="0.5153" enable-background="new    " width="13.144" height="13.953"/>
<rect x="694.444" y="487.366" opacity="0.2086" enable-background="new    " width="13.143" height="13.952"/>
<rect x="694.444" y="373.024" opacity="0.2086" enable-background="new    " width="13.143" height="13.952"/>
<rect x="694.444" y="315.854" opacity="0.2086" enable-background="new    " width="13.143" height="13.953"/>
<rect x="694.444" y="272.976" opacity="0.2086" enable-background="new    " width="13.143" height="13.952"/>
<rect x="694.444" y="201.512" opacity="0.5153" enable-background="new    " width="13.143" height="13.953"/>
<rect x="707.733" y="487.366" opacity="0.2086" enable-background="new    " width="13.143" height="13.952"/>
<rect x="707.733" y="373.024" opacity="0.2086" enable-background="new    " width="13.143" height="13.952"/>
<rect x="707.733" y="315.854" opacity="0.2086" enable-background="new    " width="13.143" height="13.953"/>
<rect x="707.733" y="272.976" opacity="0.2086" enable-background="new    " width="13.143" height="13.952"/>
<rect x="707.733" y="201.512" opacity="0.5153" enable-background="new    " width="13.143" height="13.953"/>
<rect x="721.022" y="515.951" opacity="0.2086" enable-background="new    " width="13.143" height="13.952"/>
<rect x="721.022" y="344.439" opacity="0.2086" enable-background="new    " width="13.143" height="13.952"/>
<rect x="721.022" y="301.561" opacity="0.2086" enable-background="new    " width="13.143" height="13.952"/>
<rect x="721.022" y="244.39" opacity="0.2086" enable-background="new    " width="13.143" height="13.953"/>
<rect x="721.022" y="130.049" opacity="0.5153" enable-background="new    " width="13.143" height="13.952"/>
<rect x="734.312" y="515.951" opacity="0.2086" enable-background="new    " width="13.143" height="13.952"/>
<rect x="734.312" y="344.439" opacity="0.2086" enable-background="new    " width="13.143" height="13.952"/>
<rect x="734.312" y="301.561" opacity="0.2086" enable-background="new    " width="13.143" height="13.952"/>
<rect x="734.312" y="244.39" opacity="0.2086" enable-background="new    " width="13.143" height="13.953"/>
<rect x="734.312" y="130.049" opacity="0.5153" enable-background="new    " width="13.143" height="13.952"/>
<rect x="747.6" y="515.951" opacity="0.2086" enable-background="new    " width="13.144" height="13.952"/>
<rect x="747.6" y="344.439" opacity="0.2086" enable-background="new    " width="13.144" height="13.952"/>
<rect x="747.6" y="301.561" opacity="0.2086" enable-background="new    " width="13.144" height="13.952"/>
<rect x="747.6" y="244.39" opacity="0.2086" enable-background="new    " width="13.144" height="13.953"/>
<rect x="747.6" y="130.049" opacity="0.5153" enable-background="new    " width="13.144" height="13.952"/>
<rect x="760.889" y="515.951" opacity="0.2086" enable-background="new    " width="13.144" height="13.952"/>
<rect x="760.889" y="344.439" opacity="0.2086" enable-background="new    " width="13.144" height="13.952"/>
<rect x="760.889" y="301.561" opacity="0.2086" enable-background="new    " width="13.144" height="13.952"/>
<rect x="760.889" y="244.39" opacity="0.2086" enable-background="new    " width="13.144" height="13.953"/>
<rect x="760.889" y="130.049" opacity="0.5153" enable-background="new    " width="13.144" height="13.952"/>
<rect x="774.178" y="544.536" opacity="0.2086" enable-background="new    " width="13.143" height="13.953"/>
<rect x="774.178" y="373.024" opacity="0.2086" enable-background="new    " width="13.143" height="13.952"/>
<rect x="774.178" y="272.976" opacity="0.2086" enable-background="new    " width="13.143" height="13.952"/>
<rect x="774.178" y="144.341" opacity="0.2086" enable-background="new    " width="13.143" height="13.953"/>
<rect x="774.178" y="101.463" opacity="0.5153" enable-background="new    " width="13.143" height="13.953"/>
<rect x="787.467" y="544.536" opacity="0.2086" enable-background="new    " width="13.143" height="13.953"/>
<rect x="787.467" y="373.024" opacity="0.2086" enable-background="new    " width="13.143" height="13.952"/>
<rect x="787.467" y="272.976" opacity="0.2086" enable-background="new    " width="13.143" height="13.952"/>
<rect x="787.467" y="144.341" opacity="0.2086" enable-background="new    " width="13.143" height="13.953"/>
<rect x="787.467" y="101.463" opacity="0.5153" enable-background="new    " width="13.143" height="13.953"/>
<rect x="800.756" y="544.536" opacity="0.2086" enable-background="new    " width="13.143" height="13.953"/>
<rect x="800.756" y="373.024" opacity="0.2086" enable-background="new    " width="13.143" height="13.952"/>
<rect x="800.756" y="272.976" opacity="0.2086" enable-background="new    " width="13.143" height="13.952"/>
<rect x="800.756" y="144.341" opacity="0.2086" enable-background="new    " width="13.143" height="13.953"/>
<rect x="800.756" y="30" opacity="0.9141" enable-background="new    " width="13.143" height="13.952"/>
<rect x="814.045" y="544.536" opacity="0.2086" enable-background="new    " width="13.143" height="13.953"/>
<rect x="814.045" y="373.024" opacity="0.2086" enable-background="new    " width="13.143" height="13.952"/>
<rect x="814.045" y="272.976" opacity="0.2086" enable-background="new    " width="13.143" height="13.952"/>
<rect x="814.045" y="144.341" opacity="0.2086" enable-background="new    " width="13.143" height="13.953"/>
<rect x="814.045" y="30" opacity="0.9141" enable-background="new    " width="13.143" height="13.952"/>
<rect x="827.333" y="587.415" opacity="0.2086" enable-background="new    " width="13.144" height="13.952"/>
<rect x="827.333" y="415.902" opacity="0.2086" enable-background="new    " width="13.144" height="13.952"/>
<rect x="827.333" y="201.512" opacity="0.2086" enable-background="new    " width="13.144" height="13.953"/>
<rect x="827.333" y="144.341" opacity="0.2086" enable-background="new    " width="13.144" height="13.953"/>
<rect x="827.333" y="72.878" opacity="0.5153" enable-background="new    " width="13.144" height="13.953"/>
<rect x="840.622" y="587.415" opacity="0.2086" enable-background="new    " width="13.143" height="13.952"/>
<rect x="840.622" y="415.902" opacity="0.2086" enable-background="new    " width="13.143" height="13.952"/>
<rect x="840.622" y="201.512" opacity="0.2086" enable-background="new    " width="13.143" height="13.953"/>
<rect x="840.622" y="144.341" opacity="0.2086" enable-background="new    " width="13.143" height="13.953"/>
<rect x="840.622" y="72.878" opacity="0.5153" enable-background="new    " width="13.143" height="13.953"/>
<rect x="853.911" y="587.415" opacity="0.2086" enable-background="new    " width="13.143" height="13.952"/>
<rect x="853.911" y="415.902" opacity="0.2086" enable-background="new    " width="13.143" height="13.952"/>
<rect x="853.911" y="201.512" opacity="0.2086" enable-background="new    " width="13.143" height="13.953"/>
<rect x="853.911" y="144.341" opacity="0.2086" enable-background="new    " width="13.143" height="13.953"/>
<rect x="853.911" y="72.878" opacity="0.5153" enable-background="new    " width="13.143" height="13.953"/>
<rect x="867.2" y="587.415" opacity="0.2086" enable-background="new    " width="13.143" height="13.952"/>
<rect x="867.2" y="415.902" opacity="0.2086" enable-background="new    " width="13.143" height="13.952"/>
<rect x="867.2" y="201.512" opacity="0.2086" enable-background="new    " width="13.143" height="13.953"/>
<rect x="867.2" y="144.341" opacity="0.2086" enable-background="new    " width="13.143" height="13.953"/>
<rect x="867.2" y="72.878" opacity="0.5153" enable-background="new    " width="13.143" height="13.953"/>
<rect x="880.489" y="544.536" opacity="0.2086" enable-background="new    " width="13.143" height="13.953"/>
<rect x="880.489" y="373.024" opacity="0.2086" enable-background="new    " width="13.143" height="13.952"/>
<rect x="880.489" y="272.976" opacity="0.2086" enable-background="new    " width="13.143" height="13.952"/>
<rect x="880.489" y="144.341" opacity="0.2086" enable-background="new    " width="13.143" height="13.953"/>
<rect x="880.489" y="101.463" opacity="0.5153" enable-background="new    " width="13.143" height="13.953"/>
<rect x="893.777" y="544.536" opacity="0.2086" enable-background="new    " width="13.144" height="13.953"/>
<rect x="893.777" y="373.024" opacity="0.2086" enable-background="new    " width="13.144" height="13.952"/>
<rect x="893.777" y="272.976" opacity="0.2086" enable-background="new    " width="13.144" height="13.952"/>
<rect x="893.777" y="144.341" opacity="0.2086" enable-background="new    " width="13.144" height="13.953"/>
<rect x="893.777" y="101.463" opacity="0.5153" enable-background="new    " width="13.144" height="13.953"/>
<rect x="907.066" y="544.536" opacity="0.2086" enable-background="new    " width="13.144" height="13.953"/>
<rect x="907.066" y="373.024" opacity="0.2086" enable-background="new    " width="13.144" height="13.952"/>
<rect x="907.066" y="272.976" opacity="0.2086" enable-background="new    " width="13.144" height="13.952"/>
<rect x="907.066" y="144.341" opacity="0.2086" enable-background="new    " width="13.144" height="13.953"/>
<rect x="907.066" y="30" opacity="0.9141" enable-background="new    " width="13.144" height="13.952"/>
<rect x="920.355" y="544.536" opacity="0.2086" enable-background="new    " width="13.143" height="13.953"/>
<rect x="920.355" y="373.024" opacity="0.2086" enable-background="new    " width="13.143" height="13.952"/>
<rect x="920.355" y="272.976" opacity="0.2086" enable-background="new    " width="13.143" height="13.952"/>
<rect x="920.355" y="144.341" opacity="0.2086" enable-background="new    " width="13.143" height="13.953"/>
<rect x="920.355" y="30" opacity="0.9141" enable-background="new    " width="13.143" height="13.952"/>
<rect x="933.645" y="473.073" opacity="0.2086" enable-background="new    " width="13.143" height="13.952"/>
<rect x="933.645" y="301.561" opacity="0.2086" enable-background="new    " width="13.143" height="13.952"/>
<rect x="933.645" y="201.512" opacity="0.2086" enable-background="new    " width="13.143" height="13.953"/>
<rect x="933.645" y="130.049" opacity="0.2086" enable-background="new    " width="13.143" height="13.952"/>
<rect x="933.645" y="72.878" opacity="0.5153" enable-background="new    " width="13.143" height="13.953"/>
<rect x="946.934" y="473.073" opacity="0.2086" enable-background="new    " width="13.143" height="13.952"/>
<rect x="946.934" y="301.561" opacity="0.2086" enable-background="new    " width="13.143" height="13.952"/>
<rect x="946.934" y="201.512" opacity="0.2086" enable-background="new    " width="13.143" height="13.953"/>
<rect x="946.934" y="130.049" opacity="0.2086" enable-background="new    " width="13.143" height="13.952"/>
<rect x="946.934" y="72.878" opacity="0.5153" enable-background="new    " width="13.143" height="13.953"/>
<rect x="960.223" y="473.073" opacity="0.2086" enable-background="new    " width="13.143" height="13.952"/>
<rect x="960.223" y="301.561" opacity="0.2086" enable-background="new    " width="13.143" height="13.952"/>
<rect x="960.223" y="201.512" opacity="0.2086" enable-background="new    " width="13.143" height="13.953"/>
<rect x="960.223" y="130.049" opacity="0.2086" enable-background="new    " width="13.143" height="13.952"/>
<rect x="960.223" y="72.878" opacity="0.5153" enable-background="new    " width="13.143" height="13.953"/>
<rect x="973.511" y="473.073" opacity="0.2086" enable-background="new    " width="13.144" height="13.952"/>
<rect x="973.511" y="301.561" opacity="0.2086" enable-background="new    " width="13.144" height="13.952"/>
<rect x="973.511" y="201.512" opacity="0.2086" enable-background="new    " width="13.144" height="13.953"/>
<rect x="973.511" y="130.049" opacity="0.2086" enable-background="new    " width="13.144" height="13.952"/>
<rect x="973.511" y="72.878" opacity="0.5153" enable-background="new    " width="13.144" height="13.953"/>
<rect x="986.8" y="515.951" opacity="0.2086" enable-background="new    " width="13.144" height="13.952"/>
<rect x="986.8" y="344.439" opacity="0.2086" enable-background="new    " width="13.144" height="13.952"/>
<rect x="986.8" y="244.39" opacity="0.2086" enable-background="new    " width="13.144" height="13.953"/>
<rect x="986.8" y="172.927" opacity="0.2086" enable-background="new    " width="13.144" height="13.953"/>
<rect x="986.8" y="130.049" opacity="0.5153" enable-background="new    " width="13.144" height="13.952"/>
<rect x="1000.089" y="515.951" opacity="0.2086" enable-background="new    " width="13.143" height="13.952"/>
<rect x="1000.089" y="344.439" opacity="0.2086" enable-background="new    " width="13.143" height="13.952"/>
<rect x="1000.089" y="244.39" opacity="0.2086" enable-background="new    " width="13.143" height="13.953"/>
<rect x="1000.089" y="172.927" opacity="0.2086" enable-background="new    " width="13.143" height="13.953"/>
<rect x="1000.089" y="130.049" opacity="0.5153" enable-background="new    " width="13.143" height="13.952"/>
<rect x="1013.378" y="515.951" opacity="0.2086" enable-background="new    " width="13.143" height="13.952"/>
<rect x="1013.378" y="344.439" opacity="0.2086" enable-background="new    " width="13.143" height="13.952"/>
<rect x="1013.378" y="244.39" opacity="0.2086" enable-background="new    " width="13.143" height="13.953"/>
<rect x="1013.378" y="172.927" opacity="0.2086" enable-background="new    " width="13.143" height="13.953"/>
<rect x="1013.378" y="130.049" opacity="0.5153" enable-background="new    " width="13.143" height="13.952"/>
<rect x="1026.667" y="515.951" opacity="0.2086" enable-background="new    " width="13.143" height="13.952"/>
<rect x="1026.667" y="344.439" opacity="0.2086" enable-background="new    " width="13.143" height="13.952"/>
<rect x="1026.667" y="244.39" opacity="0.2086" enable-background="new    " width="13.143" height="13.953"/>
<rect x="1026.667" y="172.927" opacity="0.2086" enable-background="new    " width="13.143" height="13.953"/>
<rect x="1026.667" y="130.049" opacity="0.5153" enable-background="new    " width="13.143" height="13.952"/>
<rect x="1039.955" y="616" opacity="0.2086" enable-background="new    " width="13.144" height="13.952"/>
<rect x="1039.955" y="444.488" opacity="0.2086" enable-background="new    " width="13.144" height="13.952"/>
<rect x="1039.955" y="215.805" opacity="0.2086" enable-background="new    " width="13.144" height="13.953"/>
<rect x="1039.955" y="172.927" opacity="0.2086" enable-background="new    " width="13.144" height="13.953"/>
<rect x="1039.955" y="101.463" opacity="0.5153" enable-background="new    " width="13.144" height="13.953"/>
<rect x="1053.244" y="616" opacity="0.2086" enable-background="new    " width="13.143" height="13.952"/>
<rect x="1053.244" y="444.488" opacity="0.2086" enable-background="new    " width="13.143" height="13.952"/>
<rect x="1053.244" y="215.805" opacity="0.2086" enable-background="new    " width="13.143" height="13.953"/>
<rect x="1053.244" y="172.927" opacity="0.2086" enable-background="new    " width="13.143" height="13.953"/>
<rect x="1053.244" y="101.463" opacity="0.5153" enable-background="new    " width="13.143" height="13.953"/>
<rect x="1066.533" y="616" opacity="0.2086" enable-background="new    " width="13.143" height="13.952"/>
<rect x="1066.533" y="444.488" opacity="0.2086" enable-background="new    " width="13.143" height="13.952"/>
<rect x="1066.533" y="215.805" opacity="0.2086" enable-background="new    " width="13.143" height="13.953"/>
<rect x="1066.533" y="172.927" opacity="0.2086" enable-background="new    " width="13.143" height="13.953"/>
<rect x="1066.533" y="101.463" opacity="0.5153" enable-background="new    " width="13.143" height="13.953"/>
<rect x="1079.822" y="616" opacity="0.2086" enable-background="new    " width="13.143" height="13.952"/>
<rect x="1079.822" y="444.488" opacity="0.2086" enable-background="new    " width="13.143" height="13.952"/>
<rect x="1079.822" y="215.805" opacity="0.2086" enable-background="new    " width="13.143" height="13.953"/>
<rect x="1079.822" y="172.927" opacity="0.2086" enable-background="new    " width="13.143" height="13.953"/>
<rect x="1079.822" y="101.463" opacity="0.5153" enable-background="new    " width="13.143" height="13.953"/>
<rect x="1093.111" y="558.829" opacity="0.2086" enable-background="new    " width="13.143" height="13.952"/>
<rect x="1093.111" y="387.316" opacity="0.2086" enable-background="new    " width="13.143" height="13.953"/>
<rect x="1093.111" y="344.439" opacity="0.2086" enable-background="new    " width="13.143" height="13.952"/>
<rect x="1093.111" y="272.976" opacity="0.2086" enable-background="new    " width="13.143" height="13.952"/>
<rect x="1093.111" y="172.927" opacity="0.5153" enable-background="new    " width="13.143" height="13.953"/>
<rect x="1106.4" y="558.829" opacity="0.2086" enable-background="new    " width="13.143" height="13.952"/>
<rect x="1106.4" y="387.316" opacity="0.2086" enable-background="new    " width="13.143" height="13.953"/>
<rect x="1106.4" y="344.439" opacity="0.2086" enable-background="new    " width="13.143" height="13.952"/>
<rect x="1106.4" y="272.976" opacity="0.2086" enable-background="new    " width="13.143" height="13.952"/>
<rect x="1106.4" y="172.927" opacity="0.5153" enable-background="new    " width="13.143" height="13.953"/>
<rect x="1119.688" y="558.829" opacity="0.2086" enable-background="new    " width="13.144" height="13.952"/>
<rect x="1119.688" y="387.316" opacity="0.2086" enable-background="new    " width="13.144" height="13.953"/>
<rect x="1119.688" y="344.439" opacity="0.2086" enable-background="new    " width="13.144" height="13.952"/>
<rect x="1119.688" y="272.976" opacity="0.2086" enable-background="new    " width="13.144" height="13.952"/>
<rect x="1119.688" y="172.927" opacity="0.5153" enable-background="new    " width="13.144" height="13.953"/>
<rect x="1132.978" y="558.829" opacity="0.2086" enable-background="new    " width="13.144" height="13.952"/>
<rect x="1132.978" y="387.316" opacity="0.2086" enable-background="new    " width="13.144" height="13.953"/>
<rect x="1132.978" y="344.439" opacity="0.2086" enable-background="new    " width="13.144" height="13.952"/>
<rect x="1132.978" y="272.976" opacity="0.2086" enable-background="new    " width="13.144" height="13.952"/>
<rect x="1132.978" y="172.927" opacity="0.5153" enable-background="new    " width="13.144" height="13.953"/>
<rect x="1146.267" y="544.536" opacity="0.0859" enable-background="new    " width="13.143" height="13.953"/>
<rect x="1146.267" y="373.024" opacity="0.0859" enable-background="new    " width="13.143" height="13.952"/>
<rect x="1146.267" y="315.854" opacity="0.0859" enable-background="new    " width="13.143" height="13.953"/>
<rect x="1146.267" y="272.976" opacity="0.0859" enable-background="new    " width="13.143" height="13.952"/>
<rect x="1146.267" y="201.512" opacity="0.3926" enable-background="new    " width="13.143" height="13.953"/>
<rect x="1159.556" y="544.536" opacity="0.0859" enable-background="new    " width="13.143" height="13.953"/>
<rect x="1159.556" y="373.024" opacity="0.0859" enable-background="new    " width="13.143" height="13.952"/>
<rect x="1159.556" y="315.854" opacity="0.0859" enable-background="new    " width="13.143" height="13.953"/>
<rect x="1159.556" y="272.976" opacity="0.0859" enable-background="new    " width="13.143" height="13.952"/>
<rect x="1159.556" y="201.512" opacity="0.3926" enable-background="new    " width="13.143" height="13.953"/>
<rect x="1172.845" y="544.536" opacity="0.0859" enable-background="new    " width="13.143" height="13.953"/>
<rect x="1172.845" y="373.024" opacity="0.0859" enable-background="new    " width="13.143" height="13.952"/>
<rect x="1172.845" y="315.854" opacity="0.0859" enable-background="new    " width="13.143" height="13.953"/>
<rect x="1172.845" y="272.976" opacity="0.0859" enable-background="new    " width="13.143" height="13.952"/>
<rect x="1172.845" y="201.512" opacity="0.3926" enable-background="new    " width="13.143" height="13.953"/>
<rect x="1186.133" y="544.536" opacity="0.0859" enable-background="new    " width="13.144" height="13.953"/>
<rect x="1186.133" y="373.024" opacity="0.0859" enable-background="new    " width="13.144" height="13.952"/>
<rect x="1186.133" y="315.854" opacity="0.0859" enable-background="new    " width="13.144" height="13.953"/>
<rect x="1186.133" y="272.976" opacity="0.0859" enable-background="new    " width="13.144" height="13.952"/>
<rect x="1186.133" y="201.512" opacity="0.3926" enable-background="new    " width="13.144" height="13.953"/>
<rect x="1199.422" y="201.512" opacity="0.454" enable-background="new    " width="13.144" height="13.953"/>
<rect x="1212.711" y="201.512" opacity="0.454" enable-background="new    " width="13.143" height="13.953"/>
<rect x="1226" y="201.512" opacity="0.454" enable-background="new    " width="13.143" height="13.953"/>
</svg>
